<?xml version="1.0" encoding="utf-8"?>
<!-- Generator: Adobe Illustrator 24.2.1, SVG Export Plug-In . SVG Version: 6.00 Build 0)  -->
<svg version="1.1" id="Layer_1" xmlns="http://www.w3.org/2000/svg" xmlns:xlink="http://www.w3.org/1999/xlink" x="0px" y="0px"
	 viewBox="0 0 416 420" style="enable-background:new 0 0 416 420;" xml:space="preserve">
<style type="text/css">
	.st0{fill:none;}
	.st1{fill:#3498DB;}
	.st2{enable-background:new    ;}
	.st3{fill:#2F3442;}
	.st4{fill:#2ECC71;}
</style>
<g id="Group_157" transform="translate(-11396 334)">
	<rect id="Rectangle_47" x="11396" y="-334" class="st0" width="416" height="420"/>
	<g id="Group_153" transform="translate(-160 -25)">
		<rect id="Rectangle_36" x="11673" y="-49" class="st1" width="60" height="60"/>
		<g class="st2">
			<path class="st3" d="M11761.2-16.4h-3.5l-0.9,4h-1.7l0.9-4h-2.4l0.3-1.5h2.4l0.7-3.1h-2.3l0.3-1.5h2.3l0.9-3.8h1.7l-0.9,3.8h3.5
				l0.9-3.8h1.7l-0.9,3.8h2.3l-0.4,1.5h-2.3l-0.7,3.1h2.2l-0.4,1.5h-2.2l-0.9,4h-1.7L11761.2-16.4z M11758.1-17.9h3.5l0.7-3.1h-3.5
				L11758.1-17.9z"/>
			<path class="st3" d="M11773.4-12.4c0.6,0,1.2-0.1,1.8-0.3c0.5-0.2,1-0.4,1.4-0.7c0.4-0.3,0.7-0.7,0.9-1.1
				c0.2-0.4,0.3-0.9,0.3-1.4c0-1.1-0.4-1.9-1.2-2.4c-0.8-0.5-1.8-0.7-3.1-0.7h-1.5v-1.2l4.8-6h-7.2v-1.7h9.5v1.7l-4.8,5.5h0.4
				c0.7,0,1.4,0.1,2,0.3c0.6,0.2,1.1,0.5,1.6,0.9c0.4,0.4,0.8,0.8,1,1.4c0.2,0.5,0.4,1.2,0.4,1.8c0,0.9-0.2,1.6-0.5,2.3
				s-0.8,1.2-1.4,1.7s-1.3,0.8-2,1c-0.8,0.2-1.6,0.3-2.5,0.3c-0.8,0-1.5-0.1-2.1-0.2c-0.6-0.1-1.2-0.3-1.6-0.5l0.5-1.7
				c0.4,0.2,0.9,0.3,1.5,0.5C11772-12.5,11772.6-12.4,11773.4-12.4z"/>
			<path class="st3" d="M11795.7-16.2h-3.2v5.2h-1.9v-5.2h-7.8v-1.4l8-10.2h1.6v10h3.2V-16.2z M11790.6-24.8l-5.5,7h5.5V-24.8z"/>
			<path class="st3" d="M11797.7-22.7c0-0.7,0.1-1.4,0.4-2.1c0.2-0.6,0.6-1.2,1.1-1.7s1.1-0.9,1.8-1.2c0.7-0.3,1.6-0.4,2.5-0.4
				c0.9,0,1.7,0.1,2.4,0.4s1.3,0.7,1.8,1.2c0.5,0.5,0.9,1.2,1.1,1.9s0.4,1.6,0.4,2.5c0,1.8-0.2,3.4-0.7,4.7
				c-0.4,1.4-1.1,2.5-1.9,3.5s-1.8,1.7-2.9,2.2c-1.1,0.5-2.3,0.8-3.6,1l-0.4-1.5c1.1-0.1,2-0.4,2.8-0.8c0.8-0.4,1.6-0.9,2.2-1.5
				c0.6-0.6,1.1-1.3,1.5-2.2c0.4-0.8,0.6-1.7,0.8-2.6c-0.3,0.3-0.5,0.5-0.8,0.7c-0.3,0.2-0.6,0.3-0.9,0.4s-0.7,0.2-1.1,0.2
				c-0.4,0-0.8,0.1-1.3,0.1c-0.7,0-1.4-0.1-2.1-0.3c-0.7-0.2-1.2-0.5-1.7-1c-0.5-0.4-0.9-0.9-1.2-1.5
				C11797.8-21.3,11797.7-22,11797.7-22.7z M11799.7-22.9c0,1.2,0.3,2,1,2.6c0.7,0.6,1.6,0.9,2.8,0.9c0.9,0,1.7-0.1,2.4-0.4
				c0.7-0.3,1.1-0.6,1.4-1c0-0.2,0-0.4,0-0.5s0-0.3,0-0.5c0-0.6-0.1-1.1-0.2-1.7s-0.4-1-0.7-1.5c-0.3-0.4-0.7-0.8-1.2-1
				c-0.5-0.3-1.1-0.4-1.8-0.4c-1.1,0-2,0.3-2.7,0.9S11799.7-24.1,11799.7-22.9z"/>
			<path class="st3" d="M11812.4-15.1c0-1.9,1.2-3.5,3.5-4.7c-0.4-0.2-0.9-0.5-1.2-0.7c-0.4-0.3-0.7-0.5-1-0.9
				c-0.3-0.3-0.5-0.7-0.7-1.1s-0.2-0.9-0.2-1.4c0-0.6,0.1-1.1,0.4-1.7c0.2-0.5,0.6-1,1-1.3c0.4-0.4,1-0.7,1.6-0.9
				c0.6-0.2,1.4-0.3,2.1-0.3c0.7,0,1.4,0.1,2,0.3c0.6,0.2,1.1,0.5,1.5,0.8c0.4,0.3,0.7,0.7,1,1.2c0.2,0.5,0.3,1,0.3,1.5
				c0,0.9-0.2,1.7-0.7,2.5c-0.5,0.8-1.2,1.5-2.2,2.1c0.5,0.2,0.9,0.5,1.3,0.8c0.4,0.3,0.7,0.6,1,0.9s0.5,0.7,0.7,1.1
				s0.3,0.9,0.3,1.5c0,0.7-0.1,1.3-0.4,1.9c-0.2,0.6-0.6,1.1-1.1,1.5c-0.5,0.4-1.1,0.7-1.7,1c-0.7,0.2-1.5,0.4-2.4,0.4
				c-0.8,0-1.6-0.1-2.3-0.4c-0.7-0.2-1.2-0.6-1.6-1c-0.4-0.4-0.8-0.9-1-1.4C11812.5-14,11812.4-14.5,11812.4-15.1z M11821.3-15.3
				c0-0.5-0.1-0.9-0.3-1.2c-0.2-0.4-0.5-0.7-0.9-1c-0.4-0.3-0.8-0.6-1.2-0.8c-0.5-0.2-0.9-0.5-1.4-0.7c-1.2,0.6-2,1.2-2.5,1.8
				c-0.5,0.7-0.7,1.3-0.7,1.9c0,0.4,0.1,0.8,0.2,1.1c0.2,0.4,0.4,0.7,0.7,0.9c0.3,0.3,0.7,0.5,1.1,0.6s0.9,0.2,1.5,0.2
				c0.5,0,0.9-0.1,1.3-0.2s0.8-0.3,1.1-0.6c0.3-0.2,0.6-0.6,0.8-0.9C11821.2-14.4,11821.3-14.8,11821.3-15.3z M11814.7-24
				c0,0.4,0.1,0.8,0.3,1.2c0.2,0.4,0.5,0.7,0.8,0.9c0.3,0.3,0.7,0.5,1.2,0.8c0.4,0.2,0.9,0.5,1.4,0.7c0.8-0.6,1.5-1.1,1.9-1.7
				c0.4-0.6,0.6-1.2,0.6-1.8c0-0.4-0.1-0.8-0.3-1.1c-0.2-0.3-0.4-0.6-0.7-0.8c-0.3-0.2-0.6-0.4-1-0.5c-0.4-0.1-0.8-0.2-1.1-0.2
				c-0.5,0-1,0.1-1.4,0.2c-0.4,0.1-0.7,0.3-1,0.6c-0.3,0.2-0.5,0.5-0.6,0.8C11814.8-24.6,11814.7-24.3,11814.7-24z"/>
			<path class="st3" d="M11826.9-27.8c0.6-0.1,1.2-0.1,1.9-0.2c0.7,0,1.2,0,1.7,0c1.5,0,2.7,0.2,3.7,0.6c1,0.4,1.8,1,2.4,1.7
				s1,1.6,1.3,2.7c0.3,1,0.4,2.2,0.4,3.4c0,1.1-0.1,2.2-0.4,3.3c-0.2,1-0.7,2-1.2,2.8s-1.4,1.5-2.4,1.9c-1,0.5-2.2,0.7-3.7,0.7
				c-0.2,0-0.5,0-0.8,0c-0.3,0-0.7,0-1,0c-0.4,0-0.7,0-1-0.1s-0.6,0-0.7-0.1V-27.8z M11830.6-26.2c-0.2,0-0.5,0-0.9,0
				c-0.3,0-0.6,0-0.9,0.1v13.4c0.1,0,0.2,0,0.3,0c0.2,0,0.3,0,0.5,0s0.3,0,0.5,0c0.2,0,0.3,0,0.4,0c1.2,0,2.1-0.2,2.8-0.6
				c0.7-0.4,1.3-0.9,1.7-1.5c0.4-0.6,0.7-1.4,0.8-2.2s0.2-1.7,0.2-2.6c0-0.8-0.1-1.6-0.2-2.4c-0.1-0.8-0.4-1.5-0.8-2.1
				c-0.4-0.6-1-1.2-1.7-1.6C11832.8-26,11831.8-26.2,11830.6-26.2z"/>
			<path class="st3" d="M11851.9-24c0,0.4-0.1,0.8-0.2,1.2c-0.1,0.4-0.3,0.8-0.6,1.2c-0.3,0.4-0.6,0.7-1,0.9
				c-0.4,0.3-0.9,0.5-1.4,0.6v0.1c0.5,0.1,0.9,0.2,1.4,0.4c0.4,0.2,0.8,0.5,1.2,0.8c0.3,0.3,0.6,0.7,0.8,1.2c0.2,0.5,0.3,1,0.3,1.7
				c0,0.9-0.2,1.6-0.5,2.2c-0.4,0.6-0.8,1.1-1.4,1.5c-0.6,0.4-1.2,0.7-2,0.9c-0.8,0.2-1.5,0.3-2.3,0.3c-0.3,0-0.6,0-1,0
				s-0.8,0-1.2,0c-0.4,0-0.8-0.1-1.2-0.1c-0.4,0-0.8-0.1-1.1-0.2v-16.5c0.6-0.1,1.3-0.2,2.1-0.2c0.8-0.1,1.6-0.1,2.6-0.1
				c0.6,0,1.3,0.1,1.9,0.2c0.6,0.1,1.2,0.3,1.8,0.6c0.5,0.3,1,0.7,1.3,1.2S11851.9-24.8,11851.9-24z M11845-20.4c0.3,0,0.6,0,1,0
				s0.7,0,1-0.1c0.4-0.1,0.7-0.3,1.1-0.5s0.6-0.4,0.9-0.7c0.3-0.3,0.5-0.5,0.6-0.9c0.2-0.3,0.2-0.7,0.2-1.1c0-0.5-0.1-1-0.3-1.3
				c-0.2-0.4-0.5-0.6-0.8-0.8s-0.7-0.4-1.2-0.4s-0.9-0.1-1.3-0.1c-0.5,0-1,0-1.5,0c-0.4,0-0.8,0.1-1,0.1v5.7H11845z M11846.4-12.5
				c0.5,0,1-0.1,1.5-0.2c0.5-0.1,0.9-0.3,1.3-0.6c0.4-0.3,0.7-0.6,0.9-1c0.2-0.4,0.3-0.8,0.3-1.4c0-0.7-0.1-1.2-0.4-1.6
				c-0.3-0.4-0.6-0.7-1-0.9c-0.4-0.2-0.9-0.4-1.4-0.5c-0.5-0.1-1.1-0.1-1.6-0.1h-2.1v6c0.1,0,0.3,0.1,0.5,0.1s0.4,0,0.7,0
				c0.2,0,0.5,0,0.7,0C11845.9-12.5,11846.2-12.5,11846.4-12.5z"/>
		</g>
		<rect id="Rectangle_37" x="11673" y="-209" class="st4" width="60" height="60"/>
		<g class="st2">
			<path class="st3" d="M11761.2-176.4h-3.5l-0.9,4h-1.7l0.9-4h-2.4l0.3-1.5h2.4l0.7-3.1h-2.3l0.3-1.5h2.3l0.9-3.8h1.7l-0.9,3.8h3.5
				l0.9-3.8h1.7l-0.9,3.8h2.3l-0.4,1.5h-2.3l-0.7,3.1h2.2l-0.4,1.5h-2.2l-0.9,4h-1.7L11761.2-176.4z M11758.1-177.9h3.5l0.7-3.1
				h-3.5L11758.1-177.9z"/>
			<path class="st3" d="M11779.4-183.6c0,1.5-0.7,3.1-2.1,4.9c-1.4,1.8-3.3,3.8-5.8,5.9h8.5v1.7h-10.7v-1.7c0.3-0.3,0.7-0.7,1.2-1.1
				c0.5-0.5,1.1-1,1.7-1.5c0.6-0.6,1.2-1.2,1.9-1.8c0.6-0.7,1.2-1.3,1.7-2s0.9-1.4,1.2-2.1c0.3-0.7,0.5-1.4,0.5-2
				c0-1-0.3-1.7-0.8-2.3s-1.3-0.8-2.3-0.8c-0.9,0-1.6,0.1-2.2,0.3c-0.6,0.2-1.1,0.5-1.6,0.8l-0.8-1.3c0.7-0.5,1.5-0.9,2.3-1.1
				c0.8-0.2,1.7-0.4,2.7-0.4c1.5,0,2.6,0.4,3.4,1.2C11779-186,11779.4-184.9,11779.4-183.6z"/>
			<path class="st3" d="M11784.4-187.8h9.9v1.8h-7.9v5.5h7.3v1.8h-7.3v6h8v1.8h-10V-187.8z"/>
			<path class="st3" d="M11807.2-186c-0.3-0.1-0.6-0.2-0.9-0.3c-0.3-0.1-0.7-0.1-1.2-0.1c-0.7,0-1.3,0.1-1.9,0.4
				c-0.6,0.2-1.2,0.6-1.7,1.2c-0.5,0.5-0.9,1.3-1.2,2.1s-0.4,2-0.4,3.2c0,1.2,0.1,2.2,0.4,3c0.3,0.9,0.6,1.6,1.1,2.2
				c0.5,0.6,1,1,1.7,1.3s1.4,0.4,2.2,0.4c0.4,0,0.8,0,1.2-0.1c0.4-0.1,0.7-0.2,1-0.3v-2.4h1.8v3.2l0,0c-0.5,0.4-1.1,0.7-1.8,0.9
				c-0.7,0.2-1.6,0.4-2.7,0.4c-1,0-1.9-0.2-2.8-0.5c-0.9-0.3-1.6-0.9-2.2-1.6c-0.6-0.7-1.1-1.6-1.5-2.7s-0.5-2.4-0.5-3.9
				c0-1.6,0.2-2.9,0.6-4c0.4-1.1,0.9-2,1.6-2.7s1.4-1.2,2.3-1.5c0.9-0.3,1.8-0.5,2.8-0.5c0.5,0,1,0,1.4,0.1c0.4,0,0.8,0.1,1.1,0.2
				c0.3,0.1,0.6,0.2,0.8,0.3c0.2,0.1,0.5,0.2,0.7,0.4h0v3.8h-1.8V-186z"/>
			<path class="st3" d="M11821.6-186c-0.3-0.1-0.6-0.2-0.9-0.3c-0.3-0.1-0.7-0.1-1.2-0.1c-0.7,0-1.3,0.1-1.9,0.4
				c-0.6,0.2-1.2,0.6-1.7,1.2c-0.5,0.5-0.9,1.3-1.2,2.1c-0.3,0.9-0.4,2-0.4,3.2c0,1.2,0.1,2.2,0.4,3c0.3,0.9,0.6,1.6,1.1,2.2
				c0.5,0.6,1,1,1.7,1.3s1.4,0.4,2.2,0.4c0.4,0,0.8,0,1.2-0.1c0.4-0.1,0.7-0.2,1-0.3v-2.4h1.8v3.2l0,0c-0.5,0.4-1.1,0.7-1.8,0.9
				s-1.6,0.4-2.7,0.4c-1,0-1.9-0.2-2.8-0.5c-0.9-0.3-1.6-0.9-2.2-1.6s-1.1-1.6-1.5-2.7c-0.3-1.1-0.5-2.4-0.5-3.9
				c0-1.6,0.2-2.9,0.6-4c0.4-1.1,0.9-2,1.6-2.7s1.4-1.2,2.3-1.5c0.9-0.3,1.8-0.5,2.8-0.5c0.5,0,1,0,1.4,0.1c0.4,0,0.8,0.1,1.1,0.2
				c0.3,0.1,0.6,0.2,0.8,0.3c0.2,0.1,0.5,0.2,0.7,0.4h0v3.8h-1.8V-186z"/>
			<path class="st3" d="M11828-171l7.3-15.1h-8.7v-1.7h10.6v1.6l-7.3,15.2H11828z"/>
			<path class="st3" d="M11842.4-172.7h3.8v-12.6l-3.8,2.7l-0.9-1.4l5.3-3.8h1.3v15.1h3.7v1.7h-9.3V-172.7z"/>
		</g>
	</g>
</g>
</svg>
