<?xml version="1.0" encoding="utf-8"?>
<!-- Generator: Adobe Illustrator 24.2.1, SVG Export Plug-In . SVG Version: 6.00 Build 0)  -->
<svg version="1.1" id="Layer_1" xmlns="http://www.w3.org/2000/svg" xmlns:xlink="http://www.w3.org/1999/xlink" x="0px" y="0px"
	 viewBox="0 0 416 420" style="enable-background:new 0 0 416 420;" xml:space="preserve">
<style type="text/css">
	.st0{fill:none;}
	.st1{fill:#F1F2F6;}
	.st2{fill:none;stroke:#2F3442;stroke-width:2;}
	.st3{enable-background:new    ;}
	.st4{fill:#2F3442;}
</style>
<g id="Group_156" transform="translate(-10980 334)">
	<rect id="Rectangle_48" x="10980" y="-334" class="st0" width="416" height="420"/>
	<g id="Group_152" transform="translate(-286 -25)">
		<g id="Rectangle_33" transform="translate(11383 -209)">
			<rect y="0" class="st1" width="60" height="60"/>
			<rect x="1" y="1" class="st2" width="58" height="58"/>
		</g>
		<g class="st3">
			<path class="st4" d="M11471.2-176.4h-3.5l-0.9,4h-1.7l0.9-4h-2.4l0.3-1.5h2.4l0.7-3.1h-2.3l0.3-1.5h2.3l0.9-3.8h1.7l-0.9,3.8h3.5
				l0.9-3.8h1.7l-0.9,3.8h2.3l-0.4,1.5h-2.3l-0.7,3.1h2.2l-0.4,1.5h-2.2l-0.9,4h-1.7L11471.2-176.4z M11468.1-177.9h3.5l0.7-3.1
				h-3.5L11468.1-177.9z"/>
			<path class="st4" d="M11480.2-187.8h9.6v1.8h-7.6v5.7h7.2v1.8h-7.2v7.5h-2V-187.8z"/>
			<path class="st4" d="M11494.8-172.7h3.8v-12.6l-3.8,2.7l-0.9-1.4l5.3-3.8h1.3v15.1h3.7v1.7h-9.3V-172.7z"/>
			<path class="st4" d="M11509-187.8h9.6v1.8h-7.6v5.7h7.2v1.8h-7.2v7.5h-2V-187.8z"/>
			<path class="st4" d="M11532.6-183.6c0,1.5-0.7,3.1-2.1,4.9c-1.4,1.8-3.3,3.8-5.8,5.9h8.5v1.7h-10.7v-1.7c0.3-0.3,0.7-0.7,1.2-1.1
				c0.5-0.5,1.1-1,1.7-1.5c0.6-0.6,1.2-1.2,1.9-1.8c0.6-0.7,1.2-1.3,1.7-2s0.9-1.4,1.2-2.1c0.3-0.7,0.5-1.4,0.5-2
				c0-1-0.3-1.7-0.8-2.3s-1.3-0.8-2.3-0.8c-0.9,0-1.6,0.1-2.2,0.3c-0.6,0.2-1.1,0.5-1.6,0.8l-0.8-1.3c0.7-0.5,1.5-0.9,2.3-1.1
				c0.8-0.2,1.7-0.4,2.7-0.4c1.5,0,2.6,0.4,3.4,1.2C11532.2-186,11532.6-184.9,11532.6-183.6z"/>
			<path class="st4" d="M11537.8-187.8h9.6v1.8h-7.6v5.7h7.2v1.8h-7.2v7.5h-2V-187.8z"/>
			<path class="st4" d="M11562.4-176.1c0,0.7-0.1,1.4-0.4,2c-0.2,0.6-0.6,1.2-1.1,1.7c-0.5,0.5-1.1,0.9-1.8,1.2s-1.5,0.5-2.5,0.5
				c-0.9,0-1.7-0.1-2.4-0.4c-0.7-0.3-1.3-0.7-1.8-1.2s-0.9-1.1-1.2-1.9c-0.3-0.7-0.4-1.6-0.4-2.5c0-1.5,0.2-2.9,0.7-4.3
				c0.4-1.3,1.1-2.5,1.9-3.6c0.8-1,1.7-1.9,2.8-2.5c1.1-0.6,2.3-1,3.6-1.2l0.3,1.5c-1,0.1-1.9,0.4-2.8,0.9s-1.6,1-2.2,1.7
				c-0.6,0.7-1.1,1.4-1.5,2.3c-0.4,0.8-0.6,1.7-0.8,2.5c0.1-0.2,0.3-0.4,0.6-0.6s0.5-0.4,0.9-0.6c0.3-0.2,0.7-0.3,1.2-0.4
				c0.4-0.1,0.9-0.2,1.4-0.2c0.8,0,1.6,0.1,2.3,0.3c0.7,0.2,1.2,0.6,1.7,1s0.8,0.9,1.1,1.5
				C11562.2-177.5,11562.4-176.8,11562.4-176.1z M11560.4-175.9c0-1.1-0.3-2-0.9-2.6c-0.6-0.6-1.6-0.9-2.9-0.9
				c-0.5,0-0.9,0.1-1.3,0.2c-0.4,0.1-0.8,0.3-1.1,0.4c-0.3,0.2-0.6,0.4-0.8,0.6s-0.4,0.5-0.5,0.7c0,0.2,0,0.4,0,0.5s0,0.3,0,0.5
				c0,0.5,0.1,1,0.2,1.5c0.2,0.5,0.4,0.9,0.7,1.3s0.7,0.7,1.2,0.9c0.5,0.2,1.1,0.4,1.7,0.4c0.5,0,1-0.1,1.5-0.3
				c0.4-0.2,0.8-0.4,1.2-0.8c0.3-0.3,0.6-0.7,0.8-1.1S11560.4-175.4,11560.4-175.9z"/>
		</g>
		<rect id="Rectangle_35" x="11383" y="-49" class="st4" width="60" height="60"/>
		<g class="st3">
			<path class="st4" d="M11471.2-16.4h-3.5l-0.9,4h-1.7l0.9-4h-2.4l0.3-1.5h2.4l0.7-3.1h-2.3l0.3-1.5h2.3l0.9-3.8h1.7l-0.9,3.8h3.5
				l0.9-3.8h1.7l-0.9,3.8h2.3l-0.4,1.5h-2.3l-0.7,3.1h2.2l-0.4,1.5h-2.2l-0.9,4h-1.7L11471.2-16.4z M11468.1-17.9h3.5l0.7-3.1h-3.5
				L11468.1-17.9z"/>
			<path class="st4" d="M11489.4-23.6c0,1.5-0.7,3.1-2.1,4.9c-1.4,1.8-3.3,3.8-5.8,5.9h8.5v1.7h-10.7v-1.7c0.3-0.3,0.7-0.7,1.2-1.1
				c0.5-0.5,1.1-1,1.7-1.5c0.6-0.6,1.2-1.2,1.9-1.8c0.6-0.7,1.2-1.3,1.7-2s0.9-1.4,1.2-2.1c0.3-0.7,0.5-1.4,0.5-2
				c0-1-0.3-1.7-0.8-2.3s-1.3-0.8-2.3-0.8c-0.9,0-1.6,0.1-2.2,0.3c-0.6,0.2-1.1,0.5-1.6,0.8l-0.8-1.3c0.7-0.5,1.5-0.9,2.3-1.1
				c0.8-0.2,1.7-0.4,2.7-0.4c1.5,0,2.6,0.4,3.4,1.2C11489-26,11489.4-24.9,11489.4-23.6z"/>
			<path class="st4" d="M11494.6-27.8h9.6v1.8h-7.6v5.7h7.2v1.8h-7.2v7.5h-2V-27.8z"/>
			<path class="st4" d="M11512.2-12.4c0.6,0,1.2-0.1,1.8-0.3c0.5-0.2,1-0.4,1.4-0.7c0.4-0.3,0.7-0.7,0.9-1.1
				c0.2-0.4,0.3-0.9,0.3-1.4c0-1.1-0.4-1.9-1.2-2.4c-0.8-0.5-1.8-0.7-3.1-0.7h-1.5v-1.2l4.8-6h-7.2v-1.7h9.5v1.7l-4.8,5.5h0.4
				c0.7,0,1.4,0.1,2,0.3s1.1,0.5,1.6,0.9c0.5,0.4,0.8,0.8,1,1.4s0.4,1.2,0.4,1.8c0,0.9-0.2,1.6-0.5,2.3c-0.3,0.7-0.8,1.2-1.4,1.7
				c-0.6,0.5-1.3,0.8-2,1c-0.8,0.2-1.6,0.3-2.5,0.3c-0.8,0-1.5-0.1-2.1-0.2c-0.6-0.1-1.2-0.3-1.6-0.5l0.5-1.7
				c0.4,0.2,0.9,0.3,1.5,0.5C11510.8-12.5,11511.4-12.4,11512.2-12.4z"/>
			<path class="st4" d="M11534.5-16.2h-3.2v5.2h-1.9v-5.2h-7.8v-1.4l8-10.2h1.6v10h3.2V-16.2z M11529.4-24.8l-5.5,7h5.5V-24.8z"/>
			<path class="st4" d="M11548.9-16.2h-3.2v5.2h-1.9v-5.2h-7.8v-1.4l8-10.2h1.6v10h3.2V-16.2z M11543.8-24.8l-5.5,7h5.5V-24.8z"/>
			<path class="st4" d="M11561.4-23.6c0,1.5-0.7,3.1-2.1,4.9s-3.3,3.8-5.8,5.9h8.5v1.7h-10.7v-1.7c0.3-0.3,0.7-0.7,1.2-1.1
				c0.5-0.5,1.1-1,1.7-1.5c0.6-0.6,1.2-1.2,1.9-1.8c0.6-0.7,1.2-1.3,1.7-2c0.5-0.7,0.9-1.4,1.2-2.1c0.3-0.7,0.5-1.4,0.5-2
				c0-1-0.3-1.7-0.8-2.3s-1.3-0.8-2.3-0.8c-0.9,0-1.6,0.1-2.2,0.3c-0.6,0.2-1.1,0.5-1.6,0.8l-0.8-1.3c0.7-0.5,1.5-0.9,2.3-1.1
				c0.8-0.2,1.7-0.4,2.7-0.4c1.5,0,2.6,0.4,3.4,1.2C11561-26,11561.4-24.9,11561.4-23.6z"/>
		</g>
	</g>
</g>
</svg>
