<svg xmlns="http://www.w3.org/2000/svg" width="800" height="532.688" viewBox="0 0 800 532.688">
  <g id="Group_145" data-name="Group 145" transform="translate(-9386 3072)">
    <rect id="Rectangle_32" data-name="Rectangle 32" width="800" height="532.688" transform="translate(9386 -3072)" fill="none"/>
    <g id="Group_144" data-name="Group 144" transform="translate(-428.877 -242.53)">
      <g id="Group_140" data-name="Group 140" transform="translate(10015 -2701.998)">
        <g id="Group_81" data-name="Group 81" transform="translate(0 0)">
          <path id="Path_155" data-name="Path 155" d="M294.262,210.529h14.264v15.2h7.968v-15.2h14.33v44.664h-14.33V238.653h-7.968v16.539H294.262Zm8.438,39.307V232.894h19.688v16.941h1.741v-33.95h-1.741v15.4H302.7v-15.4h-1.741v33.95Z" transform="translate(-290.144 -209.457)" fill="#f1f2f6"/>
          <path id="Path_156" data-name="Path 156" d="M331.6,210.529h26.316v11.719H345.866V227.2h11.852v11.115H345.866v5.157h12.523v11.717H331.6Zm21.83,39.307v-1.607H340.039V233.564h12.724v-1.607H340.039V217.493h13.393v-1.607H338.3v33.95Z" transform="translate(-286.235 -209.457)" fill="#f1f2f6"/>
          <path id="Path_157" data-name="Path 157" d="M359.486,210.529h14.866v32.946h12.322v11.717H359.486Zm23.437,39.307v-1.607h-15V215.886h-1.741v33.95Z" transform="translate(-283.316 -209.457)" fill="#f1f2f6"/>
          <path id="Path_158" data-name="Path 158" d="M386.218,210.529h14.866v32.946h12.322v11.717H386.218Zm23.437,39.307v-1.607h-15V215.886h-1.74v33.95Z" transform="translate(-280.517 -209.457)" fill="#f1f2f6"/>
          <path id="Path_159" data-name="Path 159" d="M410.222,233a22.809,22.809,0,0,1,1.842-9.107A23.43,23.43,0,0,1,424.552,211.4a23.443,23.443,0,0,1,18.215,0,23.422,23.422,0,0,1,12.487,12.488,23.44,23.44,0,0,1,0,18.214,23.422,23.422,0,0,1-12.487,12.488,23.442,23.442,0,0,1-18.215,0A23.43,23.43,0,0,1,412.064,242.1,22.8,22.8,0,0,1,410.222,233Zm6.295,0a16.684,16.684,0,0,0,1.339,6.662A17.27,17.27,0,0,0,427,248.8a17.248,17.248,0,0,0,13.326,0,17.273,17.273,0,0,0,9.14-9.141,17.245,17.245,0,0,0,0-13.325,17.273,17.273,0,0,0-9.14-9.141,17.249,17.249,0,0,0-13.326,0,17.27,17.27,0,0,0-9.141,9.141A16.685,16.685,0,0,0,416.517,233Zm17.143,15.4a14.9,14.9,0,0,1-5.993-1.205,15.681,15.681,0,0,1-8.2-8.2,15.5,15.5,0,0,1,0-11.986,15.672,15.672,0,0,1,8.2-8.2,15.5,15.5,0,0,1,11.986,0,15.672,15.672,0,0,1,8.2,8.2,15.5,15.5,0,0,1,0,11.986,15.681,15.681,0,0,1-8.2,8.2A14.9,14.9,0,0,1,433.659,248.4ZM424.285,233a9.127,9.127,0,0,0,.736,3.65,9.412,9.412,0,0,0,4.99,4.989,9.418,9.418,0,0,0,7.3,0,9.415,9.415,0,0,0,4.989-4.989,9.409,9.409,0,0,0,0-7.3,9.416,9.416,0,0,0-4.989-4.989,9.418,9.418,0,0,0-7.3,0,9.413,9.413,0,0,0-4.99,4.989A9.123,9.123,0,0,0,424.285,233Z" transform="translate(-278.004 -209.559)" fill="#f1f2f6"/>
          <path id="Path_160" data-name="Path 160" d="M323.954,286.815a9.253,9.253,0,0,0-3.417-1.861,13.423,13.423,0,0,0-4.027-.645,9.931,9.931,0,0,0-4.024.8,9.55,9.55,0,0,0-3.153,2.2,10.167,10.167,0,0,0-2.089,3.38,11.729,11.729,0,0,0-.76,4.253,10.784,10.784,0,0,0,.836,4.253,10.173,10.173,0,0,0,2.278,3.38,10.541,10.541,0,0,0,3.38,2.2,10.746,10.746,0,0,0,4.139.8,10.085,10.085,0,0,0,4.709-1.1,11.241,11.241,0,0,0,3.647-3h-4.557V290.841h19.52V307.7a27.946,27.946,0,0,1-4.177,5.658,26.567,26.567,0,0,1-5.431,4.369,26.127,26.127,0,0,1-6.5,2.809,26.459,26.459,0,0,1-33.8-25.6,27.176,27.176,0,0,1,1.975-10.33,26.565,26.565,0,0,1,5.431-8.47,25.412,25.412,0,0,1,8.2-5.7,25.092,25.092,0,0,1,10.216-2.089,28.67,28.67,0,0,1,7.367.835,28.173,28.173,0,0,1,5.242,1.9,19.164,19.164,0,0,1,4.177,2.659Zm.76-9.8a12.542,12.542,0,0,0-2.2-.76,21.844,21.844,0,0,0-2.507-.531,20.594,20.594,0,0,0-3.189-.228,19.485,19.485,0,0,0-7.52,1.444,18.763,18.763,0,0,0-6.077,3.987,18.336,18.336,0,0,0-4.064,6.115,20.422,20.422,0,0,0-1.481,7.9,19.941,19.941,0,0,0,1.52,7.9,18.2,18.2,0,0,0,4.177,6.116,19.551,19.551,0,0,0,6.191,3.988,19.785,19.785,0,0,0,7.557,1.443,18.574,18.574,0,0,0,9.5-2.469,20.2,20.2,0,0,0,6.911-6.57V295.4h-8.051v1.824h6.077v7.595a17.176,17.176,0,0,1-14.433,7.6,18.21,18.21,0,0,1-6.8-1.255,16.6,16.6,0,0,1-9.3-9.114,18.033,18.033,0,0,1-1.368-7.1,18.468,18.468,0,0,1,1.33-7.1,16.743,16.743,0,0,1,3.645-5.544,16.079,16.079,0,0,1,5.431-3.57,17.944,17.944,0,0,1,6.761-1.253,14.046,14.046,0,0,1,2.582.228q1.215.227,2.128.456,1.062.3,1.974.608Z" transform="translate(-290.534 -203.404)" fill="#f1f2f6"/>
          <path id="Path_161" data-name="Path 161" d="M339.489,269.458h17.167V320.12H339.489Zm9.571,44.585V275.534h-1.975v38.509Z" transform="translate(-285.409 -203.288)" fill="#f1f2f6"/>
          <path id="Path_162" data-name="Path 162" d="M359.841,269.458h17.47a30.108,30.108,0,0,1,9,1.291,20.944,20.944,0,0,1,7.177,3.8,17.416,17.416,0,0,1,4.748,6.189,19.925,19.925,0,0,1,1.709,8.469,17.427,17.427,0,0,1-1.064,6.458,19.8,19.8,0,0,1-2.354,4.4,16.47,16.47,0,0,1-3.419,3.343L402.6,320.12H383.615l-7.6-12.835V320.12H359.841Zm15.8,33.04a27.229,27.229,0,0,0,5.773-.606l7.216,12.151h2.354l-7.595-12.76a14.272,14.272,0,0,0,6.532-4.443,11.983,11.983,0,0,0,2.43-7.786,12.608,12.608,0,0,0-1.291-5.848,12.379,12.379,0,0,0-3.532-4.216,15.84,15.84,0,0,0-5.279-2.583,23.885,23.885,0,0,0-6.608-.874h-8.2v38.509h1.974V302.5Zm-6.228-1.822V277.358h6.228q6.911,0,10.824,3.038a10.323,10.323,0,0,1,3.912,8.659,10.218,10.218,0,0,1-3.912,8.622q-3.912,3-10.824,3Zm6.608-6.3h.835a8.88,8.88,0,0,0,4.9-1.292,5.66,5.66,0,0,0,0-8.659,8.889,8.889,0,0,0-4.9-1.29h-.835Z" transform="translate(-283.279 -203.288)" fill="#f1f2f6"/>
          <path id="Path_163" data-name="Path 163" d="M399.926,269.458h16.862v37.369h13.977V320.12H399.926Zm26.584,44.585V312.22H409.5V275.534h-1.974v38.509Z" transform="translate(-279.082 -203.288)" fill="#f1f2f6"/>
          <path id="Path_164" data-name="Path 164" d="M431.278,269.458H448.6l-2.584,35.7H433.861Zm.531,37.978h16.254V320.12H431.809Zm11.7,7.216V312.9h-7.14v1.748Zm-2.658-14.28V275.079h-1.823v25.293Z" transform="translate(-275.8 -203.288)" fill="#f1f2f6"/>
        </g>
      </g>
      <g id="Group_141" data-name="Group 141" transform="translate(10235.973 -2701.998)">
        <g id="Group_81-2" data-name="Group 81" transform="translate(0 0)">
          <path id="Path_155-2" data-name="Path 155" d="M294.262,210.529h14.264v15.2h7.968v-15.2h14.33v44.664h-14.33V238.653h-7.968v16.539H294.262Zm8.438,39.307V232.894h19.688v16.941h1.741v-33.95h-1.741v15.4H302.7v-15.4h-1.741v33.95Z" transform="translate(-290.144 -209.457)" fill="#2f3442"/>
          <path id="Path_156-2" data-name="Path 156" d="M331.6,210.529h26.316v11.719H345.866V227.2h11.852v11.115H345.866v5.157h12.523v11.717H331.6Zm21.83,39.307v-1.607H340.039V233.564h12.724v-1.607H340.039V217.493h13.393v-1.607H338.3v33.95Z" transform="translate(-286.235 -209.457)" fill="#2f3442"/>
          <path id="Path_157-2" data-name="Path 157" d="M359.486,210.529h14.866v32.946h12.322v11.717H359.486Zm23.437,39.307v-1.607h-15V215.886h-1.741v33.95Z" transform="translate(-283.316 -209.457)" fill="#2f3442"/>
          <path id="Path_158-2" data-name="Path 158" d="M386.218,210.529h14.866v32.946h12.322v11.717H386.218Zm23.437,39.307v-1.607h-15V215.886h-1.74v33.95Z" transform="translate(-280.517 -209.457)" fill="#2f3442"/>
          <path id="Path_159-2" data-name="Path 159" d="M410.222,233a22.809,22.809,0,0,1,1.842-9.107A23.43,23.43,0,0,1,424.552,211.4a23.443,23.443,0,0,1,18.215,0,23.422,23.422,0,0,1,12.487,12.488,23.44,23.44,0,0,1,0,18.214,23.422,23.422,0,0,1-12.487,12.488,23.442,23.442,0,0,1-18.215,0A23.43,23.43,0,0,1,412.064,242.1,22.8,22.8,0,0,1,410.222,233Zm6.295,0a16.684,16.684,0,0,0,1.339,6.662A17.27,17.27,0,0,0,427,248.8a17.248,17.248,0,0,0,13.326,0,17.273,17.273,0,0,0,9.14-9.141,17.245,17.245,0,0,0,0-13.325,17.273,17.273,0,0,0-9.14-9.141,17.249,17.249,0,0,0-13.326,0,17.27,17.27,0,0,0-9.141,9.141A16.685,16.685,0,0,0,416.517,233Zm17.143,15.4a14.9,14.9,0,0,1-5.993-1.205,15.681,15.681,0,0,1-8.2-8.2,15.5,15.5,0,0,1,0-11.986,15.672,15.672,0,0,1,8.2-8.2,15.5,15.5,0,0,1,11.986,0,15.672,15.672,0,0,1,8.2,8.2,15.5,15.5,0,0,1,0,11.986,15.681,15.681,0,0,1-8.2,8.2A14.9,14.9,0,0,1,433.659,248.4ZM424.285,233a9.127,9.127,0,0,0,.736,3.65,9.412,9.412,0,0,0,4.99,4.989,9.418,9.418,0,0,0,7.3,0,9.415,9.415,0,0,0,4.989-4.989,9.409,9.409,0,0,0,0-7.3,9.416,9.416,0,0,0-4.989-4.989,9.418,9.418,0,0,0-7.3,0,9.413,9.413,0,0,0-4.99,4.989A9.123,9.123,0,0,0,424.285,233Z" transform="translate(-278.004 -209.559)" fill="#2f3442"/>
          <path id="Path_160-2" data-name="Path 160" d="M323.954,286.815a9.253,9.253,0,0,0-3.417-1.861,13.423,13.423,0,0,0-4.027-.645,9.931,9.931,0,0,0-4.024.8,9.55,9.55,0,0,0-3.153,2.2,10.167,10.167,0,0,0-2.089,3.38,11.729,11.729,0,0,0-.76,4.253,10.784,10.784,0,0,0,.836,4.253,10.173,10.173,0,0,0,2.278,3.38,10.541,10.541,0,0,0,3.38,2.2,10.746,10.746,0,0,0,4.139.8,10.085,10.085,0,0,0,4.709-1.1,11.241,11.241,0,0,0,3.647-3h-4.557V290.841h19.52V307.7a27.946,27.946,0,0,1-4.177,5.658,26.567,26.567,0,0,1-5.431,4.369,26.127,26.127,0,0,1-6.5,2.809,26.459,26.459,0,0,1-33.8-25.6,27.176,27.176,0,0,1,1.975-10.33,26.565,26.565,0,0,1,5.431-8.47,25.412,25.412,0,0,1,8.2-5.7,25.092,25.092,0,0,1,10.216-2.089,28.67,28.67,0,0,1,7.367.835,28.173,28.173,0,0,1,5.242,1.9,19.164,19.164,0,0,1,4.177,2.659Zm.76-9.8a12.542,12.542,0,0,0-2.2-.76,21.844,21.844,0,0,0-2.507-.531,20.594,20.594,0,0,0-3.189-.228,19.485,19.485,0,0,0-7.52,1.444,18.763,18.763,0,0,0-6.077,3.987,18.336,18.336,0,0,0-4.064,6.115,20.422,20.422,0,0,0-1.481,7.9,19.941,19.941,0,0,0,1.52,7.9,18.2,18.2,0,0,0,4.177,6.116,19.551,19.551,0,0,0,6.191,3.988,19.785,19.785,0,0,0,7.557,1.443,18.574,18.574,0,0,0,9.5-2.469,20.2,20.2,0,0,0,6.911-6.57V295.4h-8.051v1.824h6.077v7.595a17.176,17.176,0,0,1-14.433,7.6,18.21,18.21,0,0,1-6.8-1.255,16.6,16.6,0,0,1-9.3-9.114,18.033,18.033,0,0,1-1.368-7.1,18.468,18.468,0,0,1,1.33-7.1,16.743,16.743,0,0,1,3.645-5.544,16.079,16.079,0,0,1,5.431-3.57,17.944,17.944,0,0,1,6.761-1.253,14.046,14.046,0,0,1,2.582.228q1.215.227,2.128.456,1.062.3,1.974.608Z" transform="translate(-290.534 -203.404)" fill="#2f3442"/>
          <path id="Path_161-2" data-name="Path 161" d="M339.489,269.458h17.167V320.12H339.489Zm9.571,44.585V275.534h-1.975v38.509Z" transform="translate(-285.409 -203.288)" fill="#2f3442"/>
          <path id="Path_162-2" data-name="Path 162" d="M359.841,269.458h17.47a30.108,30.108,0,0,1,9,1.291,20.944,20.944,0,0,1,7.177,3.8,17.416,17.416,0,0,1,4.748,6.189,19.925,19.925,0,0,1,1.709,8.469,17.427,17.427,0,0,1-1.064,6.458,19.8,19.8,0,0,1-2.354,4.4,16.47,16.47,0,0,1-3.419,3.343L402.6,320.12H383.615l-7.6-12.835V320.12H359.841Zm15.8,33.04a27.229,27.229,0,0,0,5.773-.606l7.216,12.151h2.354l-7.595-12.76a14.272,14.272,0,0,0,6.532-4.443,11.983,11.983,0,0,0,2.43-7.786,12.608,12.608,0,0,0-1.291-5.848,12.379,12.379,0,0,0-3.532-4.216,15.84,15.84,0,0,0-5.279-2.583,23.885,23.885,0,0,0-6.608-.874h-8.2v38.509h1.974V302.5Zm-6.228-1.822V277.358h6.228q6.911,0,10.824,3.038a10.323,10.323,0,0,1,3.912,8.659,10.218,10.218,0,0,1-3.912,8.622q-3.912,3-10.824,3Zm6.608-6.3h.835a8.88,8.88,0,0,0,4.9-1.292,5.66,5.66,0,0,0,0-8.659,8.889,8.889,0,0,0-4.9-1.29h-.835Z" transform="translate(-283.279 -203.288)" fill="#2f3442"/>
          <path id="Path_163-2" data-name="Path 163" d="M399.926,269.458h16.862v37.369h13.977V320.12H399.926Zm26.584,44.585V312.22H409.5V275.534h-1.974v38.509Z" transform="translate(-279.082 -203.288)" fill="#2f3442"/>
          <path id="Path_164-2" data-name="Path 164" d="M431.278,269.458H448.6l-2.584,35.7H433.861Zm.531,37.978h16.254V320.12H431.809Zm11.7,7.216V312.9h-7.14v1.748Zm-2.658-14.28V275.079h-1.823v25.293Z" transform="translate(-275.8 -203.288)" fill="#2f3442"/>
        </g>
      </g>
      <g id="Group_142" data-name="Group 142" transform="translate(10015 -2541.711)">
        <g id="Group_81-3" data-name="Group 81" transform="translate(0 0)">
          <path id="Path_155-3" data-name="Path 155" d="M294.262,210.529h14.264v15.2h7.968v-15.2h14.33v44.664h-14.33V238.653h-7.968v16.539H294.262Zm8.438,39.307V232.894h19.688v16.941h1.741v-33.95h-1.741v15.4H302.7v-15.4h-1.741v33.95Z" transform="translate(-290.144 -209.457)" fill="#2f3442"/>
          <path id="Path_156-3" data-name="Path 156" d="M331.6,210.529h26.316v11.719H345.866V227.2h11.852v11.115H345.866v5.157h12.523v11.717H331.6Zm21.83,39.307v-1.607H340.039V233.564h12.724v-1.607H340.039V217.493h13.393v-1.607H338.3v33.95Z" transform="translate(-286.235 -209.457)" fill="#2f3442"/>
          <path id="Path_157-3" data-name="Path 157" d="M359.486,210.529h14.866v32.946h12.322v11.717H359.486Zm23.437,39.307v-1.607h-15V215.886h-1.741v33.95Z" transform="translate(-283.316 -209.457)" fill="#2f3442"/>
          <path id="Path_158-3" data-name="Path 158" d="M386.218,210.529h14.866v32.946h12.322v11.717H386.218Zm23.437,39.307v-1.607h-15V215.886h-1.74v33.95Z" transform="translate(-280.517 -209.457)" fill="#2f3442"/>
          <path id="Path_159-3" data-name="Path 159" d="M410.222,233a22.809,22.809,0,0,1,1.842-9.107A23.43,23.43,0,0,1,424.552,211.4a23.443,23.443,0,0,1,18.215,0,23.422,23.422,0,0,1,12.487,12.488,23.44,23.44,0,0,1,0,18.214,23.422,23.422,0,0,1-12.487,12.488,23.442,23.442,0,0,1-18.215,0A23.43,23.43,0,0,1,412.064,242.1,22.8,22.8,0,0,1,410.222,233Zm6.295,0a16.684,16.684,0,0,0,1.339,6.662A17.27,17.27,0,0,0,427,248.8a17.248,17.248,0,0,0,13.326,0,17.273,17.273,0,0,0,9.14-9.141,17.245,17.245,0,0,0,0-13.325,17.273,17.273,0,0,0-9.14-9.141,17.249,17.249,0,0,0-13.326,0,17.27,17.27,0,0,0-9.141,9.141A16.685,16.685,0,0,0,416.517,233Zm17.143,15.4a14.9,14.9,0,0,1-5.993-1.205,15.681,15.681,0,0,1-8.2-8.2,15.5,15.5,0,0,1,0-11.986,15.672,15.672,0,0,1,8.2-8.2,15.5,15.5,0,0,1,11.986,0,15.672,15.672,0,0,1,8.2,8.2,15.5,15.5,0,0,1,0,11.986,15.681,15.681,0,0,1-8.2,8.2A14.9,14.9,0,0,1,433.659,248.4ZM424.285,233a9.127,9.127,0,0,0,.736,3.65,9.412,9.412,0,0,0,4.99,4.989,9.418,9.418,0,0,0,7.3,0,9.415,9.415,0,0,0,4.989-4.989,9.409,9.409,0,0,0,0-7.3,9.416,9.416,0,0,0-4.989-4.989,9.418,9.418,0,0,0-7.3,0,9.413,9.413,0,0,0-4.99,4.989A9.123,9.123,0,0,0,424.285,233Z" transform="translate(-278.004 -209.559)" fill="#2f3442"/>
          <path id="Path_160-3" data-name="Path 160" d="M323.954,286.815a9.253,9.253,0,0,0-3.417-1.861,13.423,13.423,0,0,0-4.027-.645,9.931,9.931,0,0,0-4.024.8,9.55,9.55,0,0,0-3.153,2.2,10.167,10.167,0,0,0-2.089,3.38,11.729,11.729,0,0,0-.76,4.253,10.784,10.784,0,0,0,.836,4.253,10.173,10.173,0,0,0,2.278,3.38,10.541,10.541,0,0,0,3.38,2.2,10.746,10.746,0,0,0,4.139.8,10.085,10.085,0,0,0,4.709-1.1,11.241,11.241,0,0,0,3.647-3h-4.557V290.841h19.52V307.7a27.946,27.946,0,0,1-4.177,5.658,26.567,26.567,0,0,1-5.431,4.369,26.127,26.127,0,0,1-6.5,2.809,26.459,26.459,0,0,1-33.8-25.6,27.176,27.176,0,0,1,1.975-10.33,26.565,26.565,0,0,1,5.431-8.47,25.412,25.412,0,0,1,8.2-5.7,25.092,25.092,0,0,1,10.216-2.089,28.67,28.67,0,0,1,7.367.835,28.173,28.173,0,0,1,5.242,1.9,19.164,19.164,0,0,1,4.177,2.659Zm.76-9.8a12.542,12.542,0,0,0-2.2-.76,21.844,21.844,0,0,0-2.507-.531,20.594,20.594,0,0,0-3.189-.228,19.485,19.485,0,0,0-7.52,1.444,18.763,18.763,0,0,0-6.077,3.987,18.336,18.336,0,0,0-4.064,6.115,20.422,20.422,0,0,0-1.481,7.9,19.941,19.941,0,0,0,1.52,7.9,18.2,18.2,0,0,0,4.177,6.116,19.551,19.551,0,0,0,6.191,3.988,19.785,19.785,0,0,0,7.557,1.443,18.574,18.574,0,0,0,9.5-2.469,20.2,20.2,0,0,0,6.911-6.57V295.4h-8.051v1.824h6.077v7.595a17.176,17.176,0,0,1-14.433,7.6,18.21,18.21,0,0,1-6.8-1.255,16.6,16.6,0,0,1-9.3-9.114,18.033,18.033,0,0,1-1.368-7.1,18.468,18.468,0,0,1,1.33-7.1,16.743,16.743,0,0,1,3.645-5.544,16.079,16.079,0,0,1,5.431-3.57,17.944,17.944,0,0,1,6.761-1.253,14.046,14.046,0,0,1,2.582.228q1.215.227,2.128.456,1.062.3,1.974.608Z" transform="translate(-290.534 -203.404)" fill="#2f3442"/>
          <path id="Path_161-3" data-name="Path 161" d="M339.489,269.458h17.167V320.12H339.489Zm9.571,44.585V275.534h-1.975v38.509Z" transform="translate(-285.409 -203.288)" fill="#2f3442"/>
          <path id="Path_162-3" data-name="Path 162" d="M359.841,269.458h17.47a30.108,30.108,0,0,1,9,1.291,20.944,20.944,0,0,1,7.177,3.8,17.416,17.416,0,0,1,4.748,6.189,19.925,19.925,0,0,1,1.709,8.469,17.427,17.427,0,0,1-1.064,6.458,19.8,19.8,0,0,1-2.354,4.4,16.47,16.47,0,0,1-3.419,3.343L402.6,320.12H383.615l-7.6-12.835V320.12H359.841Zm15.8,33.04a27.229,27.229,0,0,0,5.773-.606l7.216,12.151h2.354l-7.595-12.76a14.272,14.272,0,0,0,6.532-4.443,11.983,11.983,0,0,0,2.43-7.786,12.608,12.608,0,0,0-1.291-5.848,12.379,12.379,0,0,0-3.532-4.216,15.84,15.84,0,0,0-5.279-2.583,23.885,23.885,0,0,0-6.608-.874h-8.2v38.509h1.974V302.5Zm-6.228-1.822V277.358h6.228q6.911,0,10.824,3.038a10.323,10.323,0,0,1,3.912,8.659,10.218,10.218,0,0,1-3.912,8.622q-3.912,3-10.824,3Zm6.608-6.3h.835a8.88,8.88,0,0,0,4.9-1.292,5.66,5.66,0,0,0,0-8.659,8.889,8.889,0,0,0-4.9-1.29h-.835Z" transform="translate(-283.279 -203.288)" fill="#2f3442"/>
          <path id="Path_163-3" data-name="Path 163" d="M399.926,269.458h16.862v37.369h13.977V320.12H399.926Zm26.584,44.585V312.22H409.5V275.534h-1.974v38.509Z" transform="translate(-279.082 -203.288)" fill="#2f3442"/>
          <path id="Path_164-3" data-name="Path 164" d="M431.278,269.458H448.6l-2.584,35.7H433.861Zm.531,37.978h16.254V320.12H431.809Zm11.7,7.216V312.9h-7.14v1.748Zm-2.658-14.28V275.079h-1.823v25.293Z" transform="translate(-275.8 -203.288)" fill="#2f3442"/>
        </g>
      </g>
      <g id="Group_143" data-name="Group 143" transform="translate(10235.973 -2541.711)">
        <g id="Group_81-4" data-name="Group 81" transform="translate(0 0)">
          <path id="Path_155-4" data-name="Path 155" d="M294.262,210.529h14.264v15.2h7.968v-15.2h14.33v44.664h-14.33V238.653h-7.968v16.539H294.262Zm8.438,39.307V232.894h19.688v16.941h1.741v-33.95h-1.741v15.4H302.7v-15.4h-1.741v33.95Z" transform="translate(-290.144 -209.457)" fill="#f1f2f6"/>
          <path id="Path_156-4" data-name="Path 156" d="M331.6,210.529h26.316v11.719H345.866V227.2h11.852v11.115H345.866v5.157h12.523v11.717H331.6Zm21.83,39.307v-1.607H340.039V233.564h12.724v-1.607H340.039V217.493h13.393v-1.607H338.3v33.95Z" transform="translate(-286.235 -209.457)" fill="#f1f2f6"/>
          <path id="Path_157-4" data-name="Path 157" d="M359.486,210.529h14.866v32.946h12.322v11.717H359.486Zm23.437,39.307v-1.607h-15V215.886h-1.741v33.95Z" transform="translate(-283.316 -209.457)" fill="#f1f2f6"/>
          <path id="Path_158-4" data-name="Path 158" d="M386.218,210.529h14.866v32.946h12.322v11.717H386.218Zm23.437,39.307v-1.607h-15V215.886h-1.74v33.95Z" transform="translate(-280.517 -209.457)" fill="#f1f2f6"/>
          <path id="Path_159-4" data-name="Path 159" d="M410.222,233a22.809,22.809,0,0,1,1.842-9.107A23.43,23.43,0,0,1,424.552,211.4a23.443,23.443,0,0,1,18.215,0,23.422,23.422,0,0,1,12.487,12.488,23.44,23.44,0,0,1,0,18.214,23.422,23.422,0,0,1-12.487,12.488,23.442,23.442,0,0,1-18.215,0A23.43,23.43,0,0,1,412.064,242.1,22.8,22.8,0,0,1,410.222,233Zm6.295,0a16.684,16.684,0,0,0,1.339,6.662A17.27,17.27,0,0,0,427,248.8a17.248,17.248,0,0,0,13.326,0,17.273,17.273,0,0,0,9.14-9.141,17.245,17.245,0,0,0,0-13.325,17.273,17.273,0,0,0-9.14-9.141,17.249,17.249,0,0,0-13.326,0,17.27,17.27,0,0,0-9.141,9.141A16.685,16.685,0,0,0,416.517,233Zm17.143,15.4a14.9,14.9,0,0,1-5.993-1.205,15.681,15.681,0,0,1-8.2-8.2,15.5,15.5,0,0,1,0-11.986,15.672,15.672,0,0,1,8.2-8.2,15.5,15.5,0,0,1,11.986,0,15.672,15.672,0,0,1,8.2,8.2,15.5,15.5,0,0,1,0,11.986,15.681,15.681,0,0,1-8.2,8.2A14.9,14.9,0,0,1,433.659,248.4ZM424.285,233a9.127,9.127,0,0,0,.736,3.65,9.412,9.412,0,0,0,4.99,4.989,9.418,9.418,0,0,0,7.3,0,9.415,9.415,0,0,0,4.989-4.989,9.409,9.409,0,0,0,0-7.3,9.416,9.416,0,0,0-4.989-4.989,9.418,9.418,0,0,0-7.3,0,9.413,9.413,0,0,0-4.99,4.989A9.123,9.123,0,0,0,424.285,233Z" transform="translate(-278.004 -209.559)" fill="#f1f2f6"/>
          <path id="Path_160-4" data-name="Path 160" d="M323.954,286.815a9.253,9.253,0,0,0-3.417-1.861,13.423,13.423,0,0,0-4.027-.645,9.931,9.931,0,0,0-4.024.8,9.55,9.55,0,0,0-3.153,2.2,10.167,10.167,0,0,0-2.089,3.38,11.729,11.729,0,0,0-.76,4.253,10.784,10.784,0,0,0,.836,4.253,10.173,10.173,0,0,0,2.278,3.38,10.541,10.541,0,0,0,3.38,2.2,10.746,10.746,0,0,0,4.139.8,10.085,10.085,0,0,0,4.709-1.1,11.241,11.241,0,0,0,3.647-3h-4.557V290.841h19.52V307.7a27.946,27.946,0,0,1-4.177,5.658,26.567,26.567,0,0,1-5.431,4.369,26.127,26.127,0,0,1-6.5,2.809,26.459,26.459,0,0,1-33.8-25.6,27.176,27.176,0,0,1,1.975-10.33,26.565,26.565,0,0,1,5.431-8.47,25.412,25.412,0,0,1,8.2-5.7,25.092,25.092,0,0,1,10.216-2.089,28.67,28.67,0,0,1,7.367.835,28.173,28.173,0,0,1,5.242,1.9,19.164,19.164,0,0,1,4.177,2.659Zm.76-9.8a12.542,12.542,0,0,0-2.2-.76,21.844,21.844,0,0,0-2.507-.531,20.594,20.594,0,0,0-3.189-.228,19.485,19.485,0,0,0-7.52,1.444,18.763,18.763,0,0,0-6.077,3.987,18.336,18.336,0,0,0-4.064,6.115,20.422,20.422,0,0,0-1.481,7.9,19.941,19.941,0,0,0,1.52,7.9,18.2,18.2,0,0,0,4.177,6.116,19.551,19.551,0,0,0,6.191,3.988,19.785,19.785,0,0,0,7.557,1.443,18.574,18.574,0,0,0,9.5-2.469,20.2,20.2,0,0,0,6.911-6.57V295.4h-8.051v1.824h6.077v7.595a17.176,17.176,0,0,1-14.433,7.6,18.21,18.21,0,0,1-6.8-1.255,16.6,16.6,0,0,1-9.3-9.114,18.033,18.033,0,0,1-1.368-7.1,18.468,18.468,0,0,1,1.33-7.1,16.743,16.743,0,0,1,3.645-5.544,16.079,16.079,0,0,1,5.431-3.57,17.944,17.944,0,0,1,6.761-1.253,14.046,14.046,0,0,1,2.582.228q1.215.227,2.128.456,1.062.3,1.974.608Z" transform="translate(-290.534 -203.404)" fill="#f1f2f6"/>
          <path id="Path_161-4" data-name="Path 161" d="M339.489,269.458h17.167V320.12H339.489Zm9.571,44.585V275.534h-1.975v38.509Z" transform="translate(-285.409 -203.288)" fill="#f1f2f6"/>
          <path id="Path_162-4" data-name="Path 162" d="M359.841,269.458h17.47a30.108,30.108,0,0,1,9,1.291,20.944,20.944,0,0,1,7.177,3.8,17.416,17.416,0,0,1,4.748,6.189,19.925,19.925,0,0,1,1.709,8.469,17.427,17.427,0,0,1-1.064,6.458,19.8,19.8,0,0,1-2.354,4.4,16.47,16.47,0,0,1-3.419,3.343L402.6,320.12H383.615l-7.6-12.835V320.12H359.841Zm15.8,33.04a27.229,27.229,0,0,0,5.773-.606l7.216,12.151h2.354l-7.595-12.76a14.272,14.272,0,0,0,6.532-4.443,11.983,11.983,0,0,0,2.43-7.786,12.608,12.608,0,0,0-1.291-5.848,12.379,12.379,0,0,0-3.532-4.216,15.84,15.84,0,0,0-5.279-2.583,23.885,23.885,0,0,0-6.608-.874h-8.2v38.509h1.974V302.5Zm-6.228-1.822V277.358h6.228q6.911,0,10.824,3.038a10.323,10.323,0,0,1,3.912,8.659,10.218,10.218,0,0,1-3.912,8.622q-3.912,3-10.824,3Zm6.608-6.3h.835a8.88,8.88,0,0,0,4.9-1.292,5.66,5.66,0,0,0,0-8.659,8.889,8.889,0,0,0-4.9-1.29h-.835Z" transform="translate(-283.279 -203.288)" fill="#f1f2f6"/>
          <path id="Path_163-4" data-name="Path 163" d="M399.926,269.458h16.862v37.369h13.977V320.12H399.926Zm26.584,44.585V312.22H409.5V275.534h-1.974v38.509Z" transform="translate(-279.082 -203.288)" fill="#f1f2f6"/>
          <path id="Path_164-4" data-name="Path 164" d="M431.278,269.458H448.6l-2.584,35.7H433.861Zm.531,37.978h16.254V320.12H431.809Zm11.7,7.216V312.9h-7.14v1.748Zm-2.658-14.28V275.079h-1.823v25.293Z" transform="translate(-275.8 -203.288)" fill="#f1f2f6"/>
        </g>
      </g>
    </g>
  </g>
</svg>
