<?xml version="1.0" encoding="utf-8"?>
<!-- Generator: Adobe Illustrator 24.2.1, SVG Export Plug-In . SVG Version: 6.00 Build 0)  -->
<svg version="1.1" id="Layer_1" xmlns="http://www.w3.org/2000/svg" xmlns:xlink="http://www.w3.org/1999/xlink" x="0px" y="0px"
	 viewBox="0 0 416 420" style="enable-background:new 0 0 416 420;" xml:space="preserve">
<style type="text/css">
	.st0{fill:none;}
	.st1{fill:#FD79A8;}
	.st2{enable-background:new    ;}
	.st3{fill:#2F3442;}
	.st4{fill:#7158E2;}
</style>
<g id="Group_159" transform="translate(-12228 334)">
	<rect id="Rectangle_45" x="12228" y="-334" class="st0" width="416" height="420"/>
	<g id="Group_155" transform="translate(92 -25)">
		<rect id="Rectangle_39" x="12253" y="-49" class="st1" width="60" height="60"/>
		<g class="st2">
			<path class="st3" d="M12341.2-16.4h-3.5l-0.9,4h-1.7l0.9-4h-2.4l0.3-1.5h2.4l0.7-3.1h-2.3l0.3-1.5h2.3l0.9-3.8h1.7l-0.9,3.8h3.5
				l0.9-3.8h1.7l-0.9,3.8h2.3l-0.4,1.5h-2.3l-0.7,3.1h2.2l-0.4,1.5h-2.2l-0.9,4h-1.7L12341.2-16.4z M12338.1-17.9h3.5l0.7-3.1h-3.5
				L12338.1-17.9z"/>
			<path class="st3" d="M12350.2-27.8h9.6v1.8h-7.6v5.7h7.2v1.8h-7.2v7.5h-2V-27.8z"/>
			<path class="st3" d="M12363.7-27.8c0.6-0.1,1.2-0.1,1.9-0.2c0.7,0,1.2,0,1.7,0c1.5,0,2.7,0.2,3.7,0.6c1,0.4,1.8,1,2.4,1.7
				s1,1.6,1.3,2.7c0.3,1,0.4,2.2,0.4,3.4c0,1.1-0.1,2.2-0.4,3.3c-0.2,1-0.7,2-1.2,2.8s-1.4,1.5-2.4,1.9c-1,0.5-2.2,0.7-3.7,0.7
				c-0.2,0-0.5,0-0.8,0c-0.3,0-0.7,0-1,0c-0.4,0-0.7,0-1-0.1s-0.6,0-0.7-0.1V-27.8z M12367.4-26.2c-0.2,0-0.5,0-0.9,0
				c-0.3,0-0.6,0-0.9,0.1v13.4c0.1,0,0.2,0,0.3,0c0.2,0,0.3,0,0.5,0s0.3,0,0.5,0c0.2,0,0.3,0,0.4,0c1.2,0,2.1-0.2,2.8-0.6
				c0.7-0.4,1.3-0.9,1.7-1.5c0.4-0.6,0.7-1.4,0.8-2.2s0.2-1.7,0.2-2.6c0-0.8-0.1-1.6-0.2-2.4c-0.1-0.8-0.4-1.5-0.8-2.1
				c-0.4-0.6-1-1.2-1.7-1.6C12369.6-26,12368.6-26.2,12367.4-26.2z"/>
			<path class="st3" d="M12379.2-11l7.3-15.1h-8.7v-1.7h10.6v1.6l-7.3,15.2H12379.2z"/>
			<path class="st3" d="M12392.1-22.7c0-0.7,0.1-1.4,0.4-2.1c0.2-0.6,0.6-1.2,1.1-1.7c0.5-0.5,1.1-0.9,1.8-1.2
				c0.7-0.3,1.6-0.4,2.5-0.4c0.9,0,1.7,0.1,2.4,0.4c0.7,0.3,1.3,0.7,1.8,1.2c0.5,0.5,0.9,1.2,1.1,1.9c0.3,0.7,0.4,1.6,0.4,2.5
				c0,1.8-0.2,3.4-0.7,4.7c-0.4,1.4-1.1,2.5-1.9,3.5c-0.8,0.9-1.8,1.7-2.9,2.2s-2.3,0.8-3.6,1l-0.4-1.5c1.1-0.1,2-0.4,2.8-0.8
				c0.8-0.4,1.6-0.9,2.2-1.5s1.1-1.3,1.5-2.2c0.4-0.8,0.6-1.7,0.8-2.6c-0.3,0.3-0.5,0.5-0.8,0.7c-0.3,0.2-0.6,0.3-0.9,0.4
				c-0.3,0.1-0.7,0.2-1.1,0.2c-0.4,0-0.8,0.1-1.3,0.1c-0.7,0-1.4-0.1-2.1-0.3c-0.7-0.2-1.2-0.5-1.7-1c-0.5-0.4-0.9-0.9-1.2-1.5
				S12392.1-22,12392.1-22.7z M12394.1-22.9c0,1.2,0.3,2,1,2.6s1.6,0.9,2.8,0.9c0.9,0,1.7-0.1,2.4-0.4c0.7-0.3,1.1-0.6,1.4-1
				c0-0.2,0-0.4,0-0.5s0-0.3,0-0.5c0-0.6-0.1-1.1-0.2-1.7c-0.2-0.5-0.4-1-0.7-1.5c-0.3-0.4-0.7-0.8-1.2-1c-0.5-0.3-1.1-0.4-1.8-0.4
				c-1.1,0-2,0.3-2.7,0.9C12394.4-24.9,12394.1-24.1,12394.1-22.9z"/>
			<path class="st3" d="M12415.3-15.7h-6.4l-1.5,4.7h-2l5.6-16.8h2.4l5.7,16.8h-2.1L12415.3-15.7z M12409.5-17.4h5.3l-2.5-7.9h-0.3
				L12409.5-17.4z"/>
			<path class="st3" d="M12421.2-15.1c0-1.9,1.2-3.5,3.5-4.7c-0.4-0.2-0.9-0.5-1.2-0.7c-0.4-0.3-0.7-0.5-1-0.9
				c-0.3-0.3-0.5-0.7-0.7-1.1s-0.2-0.9-0.2-1.4c0-0.6,0.1-1.1,0.4-1.7c0.2-0.5,0.6-1,1-1.3c0.4-0.4,1-0.7,1.6-0.9
				c0.6-0.2,1.4-0.3,2.1-0.3c0.7,0,1.4,0.1,2,0.3c0.6,0.2,1.1,0.5,1.5,0.8c0.4,0.3,0.7,0.7,1,1.2c0.2,0.5,0.3,1,0.3,1.5
				c0,0.9-0.2,1.7-0.7,2.5s-1.2,1.5-2.2,2.1c0.5,0.2,0.9,0.5,1.3,0.8c0.4,0.3,0.7,0.6,1,0.9c0.3,0.3,0.5,0.7,0.7,1.1
				s0.3,0.9,0.3,1.5c0,0.7-0.1,1.3-0.4,1.9s-0.6,1.1-1.1,1.5c-0.5,0.4-1.1,0.7-1.7,1c-0.7,0.2-1.5,0.4-2.4,0.4
				c-0.8,0-1.6-0.1-2.3-0.4c-0.7-0.2-1.2-0.6-1.6-1c-0.4-0.4-0.8-0.9-1-1.4C12421.3-14,12421.2-14.5,12421.2-15.1z M12430.1-15.3
				c0-0.5-0.1-0.9-0.3-1.2c-0.2-0.4-0.5-0.7-0.9-1c-0.4-0.3-0.8-0.6-1.2-0.8c-0.5-0.2-0.9-0.5-1.4-0.7c-1.2,0.6-2,1.2-2.5,1.8
				c-0.5,0.7-0.7,1.3-0.7,1.9c0,0.4,0.1,0.8,0.2,1.1c0.2,0.4,0.4,0.7,0.7,0.9c0.3,0.3,0.7,0.5,1.1,0.6c0.4,0.2,0.9,0.2,1.5,0.2
				c0.5,0,0.9-0.1,1.3-0.2s0.8-0.3,1.1-0.6c0.3-0.2,0.6-0.6,0.8-0.9S12430.1-14.8,12430.1-15.3z M12423.5-24c0,0.4,0.1,0.8,0.3,1.2
				c0.2,0.4,0.5,0.7,0.8,0.9s0.7,0.5,1.2,0.8c0.4,0.2,0.9,0.5,1.4,0.7c0.8-0.6,1.5-1.1,1.9-1.7c0.4-0.6,0.6-1.2,0.6-1.8
				c0-0.4-0.1-0.8-0.3-1.1c-0.2-0.3-0.4-0.6-0.7-0.8c-0.3-0.2-0.6-0.4-1-0.5s-0.7-0.2-1.1-0.2c-0.5,0-1,0.1-1.4,0.2
				c-0.4,0.1-0.7,0.3-1,0.6c-0.3,0.2-0.5,0.5-0.6,0.8C12423.6-24.6,12423.5-24.3,12423.5-24z"/>
		</g>
		<rect id="Rectangle_40" x="12253" y="-209" class="st4" width="60" height="60"/>
		<g class="st2">
			<path class="st3" d="M12341.2-176.4h-3.5l-0.9,4h-1.7l0.9-4h-2.4l0.3-1.5h2.4l0.7-3.1h-2.3l0.3-1.5h2.3l0.9-3.8h1.7l-0.9,3.8h3.5
				l0.9-3.8h1.7l-0.9,3.8h2.3l-0.4,1.5h-2.3l-0.7,3.1h2.2l-0.4,1.5h-2.2l-0.9,4h-1.7L12341.2-176.4z M12338.1-177.9h3.5l0.7-3.1
				h-3.5L12338.1-177.9z"/>
			<path class="st3" d="M12350.4-171l7.3-15.1h-8.7v-1.7h10.6v1.6l-7.3,15.2H12350.4z"/>
			<path class="st3" d="M12364.8-172.7h3.8v-12.6l-3.8,2.7l-0.9-1.4l5.3-3.8h1.3v15.1h3.7v1.7h-9.3V-172.7z"/>
			<path class="st3" d="M12382.3-172.4c0.6,0,1.2-0.1,1.7-0.2c0.5-0.2,0.9-0.4,1.3-0.7c0.4-0.3,0.6-0.7,0.8-1.2
				c0.2-0.5,0.3-1,0.3-1.6c0-1.2-0.4-2-1.2-2.6c-0.8-0.6-1.9-0.9-3.4-0.9l-2.3,0.1v-8.3h8.3v1.7h-6.5v4.9l1.2,0
				c1.8,0,3.2,0.4,4.2,1.3s1.5,2.1,1.5,3.7c0,0.9-0.2,1.7-0.5,2.4c-0.3,0.7-0.7,1.3-1.3,1.7s-1.2,0.8-1.9,1.1
				c-0.7,0.2-1.6,0.4-2.4,0.4c-0.5,0-0.9,0-1.4-0.1c-0.4-0.1-0.8-0.2-1.2-0.3s-0.7-0.2-0.9-0.3c-0.3-0.1-0.5-0.2-0.6-0.3l0.8-1.6
				c0.3,0.2,0.7,0.4,1.2,0.6C12380.8-172.5,12381.5-172.4,12382.3-172.4z"/>
			<path class="st3" d="M12392.4-175.1c0-1.9,1.2-3.5,3.5-4.7c-0.4-0.2-0.9-0.5-1.2-0.7c-0.4-0.3-0.7-0.5-1-0.9
				c-0.3-0.3-0.5-0.7-0.7-1.1s-0.2-0.9-0.2-1.4c0-0.6,0.1-1.1,0.4-1.7c0.2-0.5,0.6-1,1-1.3c0.4-0.4,1-0.7,1.6-0.9
				c0.6-0.2,1.4-0.3,2.1-0.3c0.7,0,1.4,0.1,2,0.3c0.6,0.2,1.1,0.5,1.5,0.8c0.4,0.3,0.7,0.7,1,1.2c0.2,0.5,0.3,1,0.3,1.5
				c0,0.9-0.2,1.7-0.7,2.5c-0.5,0.8-1.2,1.5-2.2,2.1c0.5,0.2,0.9,0.5,1.3,0.8c0.4,0.3,0.7,0.6,1,0.9s0.5,0.7,0.7,1.1
				s0.3,0.9,0.3,1.5c0,0.7-0.1,1.3-0.4,1.9c-0.2,0.6-0.6,1.1-1.1,1.5c-0.5,0.4-1.1,0.7-1.7,1c-0.7,0.2-1.5,0.4-2.4,0.4
				c-0.8,0-1.6-0.1-2.3-0.4c-0.7-0.2-1.2-0.6-1.6-1c-0.4-0.4-0.8-0.9-1-1.4C12392.5-174,12392.4-174.5,12392.4-175.1z
				 M12401.3-175.3c0-0.5-0.1-0.9-0.3-1.2c-0.2-0.4-0.5-0.7-0.9-1c-0.4-0.3-0.8-0.6-1.2-0.8c-0.5-0.2-0.9-0.5-1.4-0.7
				c-1.2,0.6-2,1.2-2.5,1.8c-0.5,0.7-0.7,1.3-0.7,1.9c0,0.4,0.1,0.8,0.2,1.1c0.2,0.4,0.4,0.7,0.7,0.9c0.3,0.3,0.7,0.5,1.1,0.6
				s0.9,0.2,1.5,0.2c0.5,0,0.9-0.1,1.3-0.2s0.8-0.3,1.1-0.6c0.3-0.2,0.6-0.6,0.8-0.9C12401.2-174.4,12401.3-174.8,12401.3-175.3z
				 M12394.7-184c0,0.4,0.1,0.8,0.3,1.2c0.2,0.4,0.5,0.7,0.8,0.9c0.3,0.3,0.7,0.5,1.2,0.8c0.4,0.2,0.9,0.5,1.4,0.7
				c0.8-0.6,1.5-1.1,1.9-1.7c0.4-0.6,0.6-1.2,0.6-1.8c0-0.4-0.1-0.8-0.3-1.1c-0.2-0.3-0.4-0.6-0.7-0.8c-0.3-0.2-0.6-0.4-1-0.5
				c-0.4-0.1-0.8-0.2-1.1-0.2c-0.5,0-1,0.1-1.4,0.2c-0.4,0.1-0.7,0.3-1,0.6c-0.3,0.2-0.5,0.5-0.6,0.8
				C12394.8-184.6,12394.7-184.3,12394.7-184z"/>
			<path class="st3" d="M12407.6-187.8h9.9v1.8h-7.9v5.5h7.3v1.8h-7.3v6h8v1.8h-10V-187.8z"/>
			<path class="st3" d="M12431.4-183.6c0,1.5-0.7,3.1-2.1,4.9s-3.3,3.8-5.8,5.9h8.5v1.7h-10.7v-1.7c0.3-0.3,0.7-0.7,1.2-1.1
				c0.5-0.5,1.1-1,1.7-1.5c0.6-0.6,1.2-1.2,1.9-1.8c0.6-0.7,1.2-1.3,1.7-2c0.5-0.7,0.9-1.4,1.2-2.1c0.3-0.7,0.5-1.4,0.5-2
				c0-1-0.3-1.7-0.8-2.3s-1.3-0.8-2.3-0.8c-0.9,0-1.6,0.1-2.2,0.3c-0.6,0.2-1.1,0.5-1.6,0.8l-0.8-1.3c0.7-0.5,1.5-0.9,2.3-1.1
				c0.8-0.2,1.7-0.4,2.7-0.4c1.5,0,2.6,0.4,3.4,1.2C12431-186,12431.4-184.9,12431.4-183.6z"/>
		</g>
	</g>
</g>
</svg>
