<?xml version="1.0" encoding="utf-8"?>
<!-- Generator: Adobe Illustrator 24.2.1, SVG Export Plug-In . SVG Version: 6.00 Build 0)  -->
<svg version="1.1" id="Layer_1" xmlns="http://www.w3.org/2000/svg" xmlns:xlink="http://www.w3.org/1999/xlink" x="0px" y="0px"
	 viewBox="0 0 416 420" style="enable-background:new 0 0 416 420;" xml:space="preserve">
<style type="text/css">
	.st0{fill:none;}
	.st1{fill:#FFB72E;}
	.st2{enable-background:new    ;}
	.st3{fill:#2F3442;}
	.st4{fill:#EA5D30;}
</style>
<g id="Group_158" transform="translate(-11812 334)">
	<rect id="Rectangle_46" x="11812" y="-334" class="st0" width="416" height="420"/>
	<g id="Group_154" transform="translate(-34 -25)">
		<rect id="Rectangle_34" x="11963" y="-49" class="st1" width="60" height="60"/>
		<g class="st2">
			<path class="st3" d="M12051.2-16.4h-3.5l-0.9,4h-1.7l0.9-4h-2.4l0.3-1.5h2.4l0.7-3.1h-2.3l0.3-1.5h2.3l0.9-3.8h1.7l-0.9,3.8h3.5
				l0.9-3.8h1.7l-0.9,3.8h2.3l-0.4,1.5h-2.3l-0.7,3.1h2.2l-0.4,1.5h-2.2l-0.9,4h-1.7L12051.2-16.4z M12048.1-17.9h3.5l0.7-3.1h-3.5
				L12048.1-17.9z"/>
			<path class="st3" d="M12060.2-27.8h9.6v1.8h-7.6v5.7h7.2v1.8h-7.2v7.5h-2V-27.8z"/>
			<path class="st3" d="M12074.6-27.8h9.6v1.8h-7.6v5.7h7.2v1.8h-7.2v7.5h-2V-27.8z"/>
			<path class="st3" d="M12098.7-24c0,0.4-0.1,0.8-0.2,1.2c-0.1,0.4-0.3,0.8-0.6,1.2c-0.3,0.4-0.6,0.7-1,0.9
				c-0.4,0.3-0.9,0.5-1.4,0.6v0.1c0.5,0.1,0.9,0.2,1.4,0.4c0.4,0.2,0.8,0.5,1.2,0.8c0.3,0.3,0.6,0.7,0.8,1.2c0.2,0.5,0.3,1,0.3,1.7
				c0,0.9-0.2,1.6-0.5,2.2c-0.4,0.6-0.8,1.1-1.4,1.5c-0.6,0.4-1.2,0.7-2,0.9c-0.8,0.2-1.5,0.3-2.3,0.3c-0.3,0-0.6,0-1,0
				s-0.8,0-1.2,0c-0.4,0-0.8-0.1-1.2-0.1c-0.4,0-0.8-0.1-1.1-0.2v-16.5c0.6-0.1,1.3-0.2,2.1-0.2c0.8-0.1,1.6-0.1,2.6-0.1
				c0.6,0,1.3,0.1,1.9,0.2c0.6,0.1,1.2,0.3,1.8,0.6c0.5,0.3,1,0.7,1.3,1.2S12098.7-24.8,12098.7-24z M12091.8-20.4c0.3,0,0.6,0,1,0
				s0.7,0,1-0.1c0.4-0.1,0.7-0.3,1.1-0.5s0.6-0.4,0.9-0.7c0.3-0.3,0.5-0.5,0.6-0.9c0.2-0.3,0.2-0.7,0.2-1.1c0-0.5-0.1-1-0.3-1.3
				c-0.2-0.4-0.5-0.6-0.8-0.8s-0.7-0.4-1.2-0.4s-0.9-0.1-1.3-0.1c-0.5,0-1,0-1.5,0c-0.4,0-0.8,0.1-1,0.1v5.7H12091.8z M12093.2-12.5
				c0.5,0,1-0.1,1.5-0.2c0.5-0.1,0.9-0.3,1.3-0.6c0.4-0.3,0.7-0.6,0.9-1c0.2-0.4,0.3-0.8,0.3-1.4c0-0.7-0.1-1.2-0.4-1.6
				c-0.3-0.4-0.6-0.7-1-0.9c-0.4-0.2-0.9-0.4-1.4-0.5c-0.5-0.1-1.1-0.1-1.6-0.1h-2.1v6c0.1,0,0.3,0.1,0.5,0.1s0.4,0,0.7,0
				c0.2,0,0.5,0,0.7,0C12092.7-12.5,12093-12.5,12093.2-12.5z"/>
			<path class="st3" d="M12103.6-11l7.3-15.1h-8.7v-1.7h10.6v1.6l-7.3,15.2H12103.6z"/>
			<path class="st3" d="M12127-23.6c0,1.5-0.7,3.1-2.1,4.9c-1.4,1.8-3.3,3.8-5.8,5.9h8.5v1.7h-10.7v-1.7c0.3-0.3,0.7-0.7,1.2-1.1
				c0.5-0.5,1.1-1,1.7-1.5c0.6-0.6,1.2-1.2,1.9-1.8c0.6-0.7,1.2-1.3,1.7-2c0.5-0.7,0.9-1.4,1.2-2.1c0.3-0.7,0.5-1.4,0.5-2
				c0-1-0.3-1.7-0.8-2.3s-1.3-0.8-2.3-0.8c-0.9,0-1.6,0.1-2.2,0.3c-0.6,0.2-1.1,0.5-1.6,0.8l-0.8-1.3c0.7-0.5,1.5-0.9,2.3-1.1
				c0.8-0.2,1.7-0.4,2.7-0.4c1.5,0,2.6,0.4,3.4,1.2C12126.6-26,12127-24.9,12127-23.6z"/>
			<path class="st3" d="M12132-27.8h9.9v1.8h-7.9v5.5h7.3v1.8h-7.3v6h8v1.8h-10V-27.8z"/>
		</g>
		<rect id="Rectangle_38" x="11963" y="-209" class="st4" width="60" height="60"/>
		<g class="st2">
			<path class="st3" d="M12051.2-176.4h-3.5l-0.9,4h-1.7l0.9-4h-2.4l0.3-1.5h2.4l0.7-3.1h-2.3l0.3-1.5h2.3l0.9-3.8h1.7l-0.9,3.8h3.5
				l0.9-3.8h1.7l-0.9,3.8h2.3l-0.4,1.5h-2.3l-0.7,3.1h2.2l-0.4,1.5h-2.2l-0.9,4h-1.7L12051.2-176.4z M12048.1-177.9h3.5l0.7-3.1
				h-3.5L12048.1-177.9z"/>
			<path class="st3" d="M12060-187.8h9.9v1.8h-7.9v5.5h7.3v1.8h-7.3v6h8v1.8h-10V-187.8z"/>
			<path class="st3" d="M12082.1-175.7h-6.4l-1.5,4.7h-2l5.6-16.8h2.4l5.7,16.8h-2.1L12082.1-175.7z M12076.3-177.4h5.3l-2.5-7.9
				h-0.3L12076.3-177.4z"/>
			<path class="st3" d="M12092.3-172.4c0.6,0,1.2-0.1,1.7-0.2c0.5-0.2,0.9-0.4,1.3-0.7c0.4-0.3,0.6-0.7,0.8-1.2
				c0.2-0.5,0.3-1,0.3-1.6c0-1.2-0.4-2-1.2-2.6c-0.8-0.6-1.9-0.9-3.4-0.9l-2.3,0.1v-8.3h8.3v1.7h-6.5v4.9l1.2,0
				c1.8,0,3.2,0.4,4.2,1.3s1.5,2.1,1.5,3.7c0,0.9-0.2,1.7-0.5,2.4c-0.3,0.7-0.7,1.3-1.3,1.7s-1.2,0.8-1.9,1.1
				c-0.7,0.2-1.6,0.4-2.4,0.4c-0.5,0-0.9,0-1.4-0.1c-0.4-0.1-0.8-0.2-1.2-0.3s-0.7-0.2-0.9-0.3c-0.3-0.1-0.5-0.2-0.6-0.3l0.8-1.6
				c0.3,0.2,0.7,0.4,1.2,0.6C12090.8-172.5,12091.5-172.4,12092.3-172.4z"/>
			<path class="st3" d="M12102.5-187.8c0.6-0.1,1.2-0.1,1.9-0.2s1.2,0,1.7,0c1.5,0,2.7,0.2,3.7,0.6s1.8,1,2.4,1.7
				c0.6,0.7,1,1.6,1.3,2.7s0.4,2.2,0.4,3.4c0,1.1-0.1,2.2-0.4,3.3s-0.7,2-1.2,2.8c-0.6,0.8-1.4,1.5-2.4,1.9c-1,0.5-2.2,0.7-3.7,0.7
				c-0.2,0-0.5,0-0.8,0c-0.3,0-0.7,0-1,0c-0.4,0-0.7,0-1-0.1c-0.3,0-0.6,0-0.7-0.1V-187.8z M12106.2-186.2c-0.2,0-0.5,0-0.9,0
				c-0.3,0-0.6,0-0.9,0.1v13.4c0.1,0,0.2,0,0.3,0c0.2,0,0.3,0,0.5,0c0.2,0,0.3,0,0.5,0c0.2,0,0.3,0,0.4,0c1.2,0,2.1-0.2,2.8-0.6
				c0.7-0.4,1.3-0.9,1.7-1.5c0.4-0.6,0.7-1.4,0.8-2.2c0.1-0.8,0.2-1.7,0.2-2.6c0-0.8-0.1-1.6-0.2-2.4s-0.4-1.5-0.8-2.1
				c-0.4-0.6-1-1.2-1.7-1.6C12108.4-186,12107.4-186.2,12106.2-186.2z"/>
			<path class="st3" d="M12121-172.4c0.6,0,1.2-0.1,1.8-0.3c0.5-0.2,1-0.4,1.4-0.7c0.4-0.3,0.7-0.7,0.9-1.1s0.3-0.9,0.3-1.4
				c0-1.1-0.4-1.9-1.2-2.4c-0.8-0.5-1.8-0.7-3.1-0.7h-1.5v-1.2l4.8-6h-7.2v-1.7h9.5v1.7l-4.8,5.5h0.4c0.7,0,1.4,0.1,2,0.3
				s1.1,0.5,1.6,0.9c0.4,0.4,0.8,0.8,1,1.4s0.4,1.2,0.4,1.8c0,0.9-0.2,1.6-0.5,2.3c-0.3,0.7-0.8,1.2-1.4,1.7c-0.6,0.5-1.3,0.8-2,1
				c-0.8,0.2-1.6,0.3-2.5,0.3c-0.8,0-1.5-0.1-2.1-0.2c-0.6-0.1-1.2-0.3-1.6-0.5l0.5-1.7c0.4,0.2,0.9,0.3,1.5,0.5
				S12120.2-172.4,12121-172.4z"/>
			<path class="st3" d="M12130.7-179.4c0-1.4,0.1-2.6,0.4-3.7c0.2-1.1,0.6-2,1.1-2.7c0.5-0.7,1.1-1.3,1.8-1.7
				c0.7-0.4,1.6-0.6,2.6-0.6c1.1,0,2,0.2,2.7,0.6c0.7,0.4,1.4,0.9,1.8,1.7c0.5,0.7,0.8,1.6,1,2.7c0.2,1.1,0.3,2.3,0.3,3.7
				c0,1.4-0.1,2.6-0.4,3.7s-0.6,2-1.1,2.7s-1.1,1.3-1.8,1.7c-0.7,0.4-1.6,0.6-2.6,0.6c-1.1,0-2-0.2-2.7-0.6s-1.4-1-1.8-1.8
				c-0.5-0.8-0.8-1.7-1-2.7C12130.8-176.9,12130.7-178.1,12130.7-179.4z M12132.7-179.4c0,0.4,0,0.8,0,1.2c0,0.4,0.1,0.7,0.1,1.1
				l7.2-6.5c-0.3-0.9-0.7-1.6-1.2-2.1s-1.3-0.8-2.2-0.8c-1.4,0-2.4,0.6-3,1.8S12132.7-181.8,12132.7-179.4z M12140.5-179.4
				c0-0.8,0-1.7-0.1-2.4l-7.1,6.5c0.3,0.9,0.7,1.6,1.2,2.2s1.3,0.8,2.1,0.8c1.4,0,2.4-0.6,3-1.8
				C12140.2-175.2,12140.5-177,12140.5-179.4z"/>
		</g>
	</g>
</g>
</svg>
