<?xml version="1.0" encoding="utf-8"?>
<!-- Generator: Adobe Illustrator 24.2.1, SVG Export Plug-In . SVG Version: 6.00 Build 0)  -->
<svg version="1.1" id="Layer_1" xmlns="http://www.w3.org/2000/svg" xmlns:xlink="http://www.w3.org/1999/xlink" x="0px" y="0px"
	 viewBox="0 0 800 384.4" style="enable-background:new 0 0 800 384.4;" xml:space="preserve">
<style type="text/css">
	.st0{fill:none;}
	.st1{enable-background:new    ;}
	.st2{fill:#FFFFFF;}
</style>
<rect id="Rectangle_146" x="-1.4" y="0" class="st0" width="800" height="384.4"/>
<g>
	<g class="st1">
		<path class="st2" d="M38.5,172.5h-9.6l-2.3,7h-3l8.4-25.1h3.5l8.5,25.1h-3.1L38.5,172.5z M29.8,169.9h7.8L34,158.1h-0.5
			L29.8,169.9z"/>
		<path class="st2" d="M48.4,162.9c1-0.6,2.2-1,3.5-1.3c1.3-0.3,2.6-0.4,3.8-0.4s2.2,0.2,3,0.6c0.8,0.4,1.4,0.9,1.8,1.5
			c0.5,0.6,0.8,1.3,0.9,2.1c0.2,0.8,0.2,1.6,0.2,2.4c0,0.9,0,1.9-0.1,2.9c-0.1,1-0.1,2.1-0.1,3.1c0,1.2,0.1,2.4,0.2,3.4h2.4v2.4
			h-4.7l-0.3-2.6h0c-0.2,0.2-0.4,0.5-0.7,0.9s-0.7,0.7-1.1,0.9c-0.5,0.3-1,0.6-1.7,0.9c-0.7,0.3-1.5,0.4-2.4,0.4
			c-1.8,0-3.2-0.5-4.3-1.3c-1-0.9-1.5-2.2-1.5-3.8c0-1.2,0.3-2.3,0.9-3c0.6-0.9,1.3-1.4,2.4-1.9s2.3-0.7,3.7-0.8
			c1.4-0.1,3,0,4.8,0.3c0.1-1.1,0.1-2,0.1-2.7c-0.1-0.8-0.3-1.3-0.6-1.7c-0.3-0.5-0.8-0.8-1.2-0.9c-0.6-0.2-1.2-0.3-2-0.3
			c-1,0-2.1,0.2-3.1,0.5c-0.9,0.3-1.9,0.6-2.6,0.9L48.4,162.9z M53.7,177.4c0.7,0,1.3-0.1,1.9-0.3s1-0.5,1.5-0.9
			c0.5-0.4,0.8-0.7,1-1.1c0.3-0.4,0.5-0.8,0.7-1.1v-2.6c-1.2-0.2-2.4-0.3-3.4-0.3c-1,0-2,0.1-2.7,0.4c-0.8,0.2-1.3,0.6-1.8,1
			c-0.5,0.5-0.7,1.1-0.7,1.9s0.3,1.5,0.9,2.1C51.6,177.1,52.5,177.4,53.7,177.4z"/>
		<path class="st2" d="M106.3,160c0,0.6-0.1,1.2-0.3,1.8c-0.2,0.7-0.5,1.2-0.9,1.7c-0.4,0.6-0.9,1-1.5,1.4c-0.6,0.4-1.3,0.8-2.1,0.9
			v0.2c0.8,0.1,1.4,0.3,2.1,0.6c0.7,0.3,1.2,0.7,1.7,1.2c0.5,0.6,0.9,1.1,1.2,1.8c0.3,0.7,0.5,1.6,0.5,2.6c0,1.3-0.3,2.5-0.9,3.4
			s-1.2,1.7-2.1,2.4c-0.9,0.6-1.9,1-3,1.3c-1.1,0.3-2.3,0.5-3.4,0.5c-0.4,0-0.9,0-1.4,0s-1.1,0-1.7-0.1c-0.6-0.1-1.2-0.1-1.8-0.2
			s-1.1-0.2-1.6-0.3v-24.7c0.9-0.2,1.9-0.3,3.1-0.4c1.1-0.1,2.5-0.2,3.9-0.2c0.9,0,1.9,0.1,2.8,0.2c0.9,0.2,1.9,0.5,2.6,0.9
			c0.8,0.5,1.4,1,2,1.9C106.1,157.8,106.3,158.8,106.3,160z M96,165.4c0.4,0,0.9,0,1.5,0c0.6,0,1-0.1,1.4-0.1
			c0.6-0.2,1.1-0.4,1.6-0.7c0.5-0.3,0.9-0.6,1.3-0.9c0.4-0.4,0.7-0.9,0.9-1.3c0.2-0.5,0.4-1,0.4-1.6c0-0.8-0.2-1.4-0.5-2
			s-0.7-0.9-1.2-1.2c-0.5-0.3-1-0.6-1.7-0.7c-0.7-0.1-1.3-0.2-2-0.2c-0.8,0-1.5,0-2.2,0.1c-0.7,0.1-1.1,0.1-1.5,0.2v8.5L96,165.4
			L96,165.4z M98,177.1c0.8,0,1.5-0.1,2.3-0.3c0.8-0.2,1.3-0.5,1.9-0.9c0.6-0.4,0.9-0.9,1.3-1.4c0.3-0.6,0.5-1.2,0.5-2.1
			c0-0.9-0.2-1.8-0.6-2.4c-0.4-0.6-0.9-1-1.5-1.4c-0.7-0.4-1.3-0.6-2.2-0.7c-0.9-0.1-1.6-0.2-2.4-0.2h-3.1v9
			c0.2,0.1,0.4,0.1,0.8,0.1c0.3,0,0.7,0.1,1,0.1c0.4,0,0.8,0,1.1,0.1C97.5,177.1,97.7,177.1,98,177.1z"/>
		<path class="st2" d="M109.3,154.4h5.8v9.3h0.2c0.7-0.8,1.4-1.4,2.4-1.8c0.9-0.5,2.1-0.7,3.2-0.7c5.3,0,7.9,3,7.9,9.2
			c0,3.1-0.9,5.5-2.6,7.1c-1.7,1.6-4.2,2.5-7.3,2.5c-1.5,0-2.8-0.2-4.1-0.5c-1.2-0.3-2.1-0.7-2.6-1v-21.5h-3L109.3,154.4
			L109.3,154.4z M120.4,163.5c-1.4,0-2.6,0.4-3.5,1.2c-0.9,0.9-1.5,2-2,3.4v8.2c0.6,0.3,1.2,0.5,2,0.7c0.8,0.2,1.6,0.3,2.4,0.3
			c0.9,0,1.8-0.1,2.6-0.4c0.9-0.3,1.4-0.7,2-1.3c0.6-0.6,0.9-1.3,1.2-2.3s0.5-2,0.5-3.2c0-0.9-0.1-1.8-0.3-2.6
			c-0.2-0.9-0.5-1.5-0.9-2.2c-0.4-0.6-0.9-1.1-1.6-1.4C122.2,163.6,121.4,163.5,120.4,163.5z"/>
		<path class="st2" d="M168.7,157.1c-0.4-0.2-0.9-0.3-1.3-0.4c-0.5-0.1-1-0.1-1.8-0.1c-0.9,0-2,0.2-2.9,0.6s-1.8,0.9-2.6,1.8
			c-0.8,0.9-1.3,1.9-1.8,3.2c-0.5,1.3-0.7,2.9-0.7,4.8c0,1.7,0.2,3.2,0.6,4.5c0.4,1.3,0.9,2.4,1.7,3.2c0.7,0.9,1.6,1.5,2.6,2
			c1,0.5,2.1,0.7,3.3,0.7c0.7,0,1.2-0.1,1.7-0.2c0.6-0.1,1-0.3,1.5-0.5v-3.6h2.6v4.8v0.1c-0.8,0.6-1.6,1-2.7,1.4
			c-1.1,0.4-2.5,0.6-4.1,0.6c-1.5,0-2.9-0.3-4.2-0.8c-1.3-0.5-2.4-1.3-3.3-2.4c-0.9-1-1.7-2.4-2.2-4.1c-0.5-1.6-0.8-3.6-0.8-5.9
			c0-2.4,0.3-4.3,0.9-6c0.6-1.6,1.3-3,2.4-4.1c0.9-1,2.1-1.8,3.4-2.3c1.3-0.5,2.7-0.8,4.2-0.8c0.9,0,1.5,0,2.1,0.1
			c0.6,0.1,1.1,0.2,1.6,0.3c0.5,0.1,0.9,0.3,1.2,0.4c0.4,0.2,0.7,0.4,1,0.6l0,0v5.7h-2.6v-3.9H168.7z"/>
		<path class="st2" d="M189.6,164.3c-0.6-0.2-1.1-0.4-1.8-0.5c-0.7-0.1-1.2-0.2-1.9-0.2c-2.4,0-4.1,0.6-5.2,1.7
			c-1.1,1.1-1.7,2.8-1.7,5.3c0,1,0.2,2,0.5,2.8c0.4,0.9,0.9,1.5,1.4,2.1s1.4,1,2.3,1.3c0.9,0.3,1.8,0.5,2.9,0.5s2.2-0.2,3.3-0.6
			c1-0.4,2-0.9,2.6-1.5l1.2,2.1c-0.4,0.3-0.8,0.6-1.2,0.9c-0.5,0.3-1,0.6-1.7,0.9c-0.7,0.3-1.4,0.5-2.2,0.7
			c-0.8,0.2-1.7,0.3-2.6,0.3c-1.5,0-2.9-0.2-4.2-0.7s-2.2-1-2.9-1.9c-0.8-0.9-1.4-1.8-1.8-3c-0.4-1.1-0.6-2.5-0.6-3.9
			c0-1.5,0.2-2.8,0.7-4.1c0.4-1.1,1-2.2,1.8-2.9c0.8-0.8,1.7-1.4,2.8-1.8c1.1-0.4,2.4-0.7,3.8-0.7c1.8,0,3.2,0.2,4.3,0.5
			c1.1,0.3,2.1,0.7,2.8,1v0.1v5h-2.6v-3.4H189.6z"/>
		<path class="st2" d="M219.7,154.4c0.9-0.1,1.9-0.2,2.8-0.2s1.8-0.1,2.6-0.1c2.2,0,4,0.3,5.5,0.9c1.5,0.7,2.6,1.5,3.6,2.6
			c0.9,1.1,1.5,2.5,1.9,4c0.4,1.5,0.6,3.3,0.6,5.1c0,1.7-0.2,3.3-0.6,4.9c-0.4,1.6-0.9,2.9-1.9,4.2c-0.9,1.2-2.1,2.2-3.6,2.9
			c-1.5,0.8-3.4,1.1-5.6,1.1c-0.3,0-0.8,0-1.2,0s-1,0-1.5-0.1c-0.6,0-1-0.1-1.5-0.1c-0.5,0-0.9-0.1-1-0.1L219.7,154.4L219.7,154.4z
			 M225.3,156.7c-0.4,0-0.8,0-1.2,0c-0.5,0-0.9,0.1-1.2,0.2V177c0.1,0,0.3,0,0.6,0.1c0.2,0,0.5,0,0.7,0c0.3,0,0.5,0,0.7,0
			c0.2,0,0.4,0,0.6,0c1.7,0,3.1-0.3,4.3-0.9c1.1-0.6,1.9-1.3,2.6-2.4c0.6-0.9,1-2.1,1.2-3.3c0.2-1.2,0.3-2.6,0.3-3.9
			c0-1.1-0.1-2.4-0.3-3.5c-0.2-1.2-0.6-2.3-1.1-3.2c-0.6-0.9-1.4-1.7-2.6-2.4C228.5,157,227.1,156.7,225.3,156.7z"/>
		<path class="st2" d="M250.9,154.4h5.9v19c0,0.2,0,0.5,0,0.9c0,0.3,0.1,0.7,0.1,1c0,0.4,0.1,0.8,0.1,1c0.1,0.4,0.1,0.7,0.2,0.9h2.4
			v2.4h-4.8l-0.4-2.7h-0.2c-0.6,0.9-1.3,1.7-2.4,2.3c-1,0.6-2.3,0.9-3.6,0.9c-2.7,0-4.7-0.8-6-2.3c-1.3-1.5-1.9-3.9-1.9-7.1
			c0-1.5,0.2-2.8,0.7-4s1-2.2,1.9-2.9c0.8-0.8,1.8-1.3,2.9-1.8c1.1-0.4,2.4-0.6,3.8-0.6c0.5,0,0.9,0,1.3,0c0.4,0,0.8,0.1,1.1,0.1
			c0.4,0.1,0.7,0.1,0.9,0.2c0.3,0.1,0.7,0.2,0.9,0.3v-5.1h-3V154.4z M248.8,177.5c1.4,0,2.6-0.4,3.4-1.1c0.9-0.8,1.4-1.9,1.7-3.4
			v-8.3c-0.6-0.4-1.1-0.7-1.8-0.8c-0.7-0.2-1.5-0.3-2.6-0.3c-1.9,0-3.4,0.6-4.5,1.7s-1.6,2.8-1.6,5.3c0,0.9,0.1,1.9,0.3,2.7
			c0.2,0.9,0.5,1.6,0.9,2.2c0.4,0.7,0.9,1.1,1.7,1.5C247,177.4,247.7,177.5,248.8,177.5z"/>
		<path class="st2" d="M285.3,154.4h14.7v2.6h-11.8v8.2h10.9v2.6h-10.9v9h12v2.6h-14.9L285.3,154.4L285.3,154.4z"/>
		<path class="st2" d="M322,177.2c-0.5,0.4-0.9,0.8-1.5,1c-0.6,0.4-1.2,0.7-1.9,0.9c-0.7,0.3-1.4,0.4-2.2,0.6
			c-0.8,0.1-1.5,0.2-2.3,0.2c-1.4,0-2.7-0.2-3.8-0.7c-1-0.5-2-1-2.7-1.9c-0.8-0.9-1.3-1.8-1.7-2.9c-0.4-1.1-0.6-2.5-0.6-3.9
			c0-1.5,0.2-2.8,0.7-4.1c0.5-1.2,1-2.2,1.8-2.9s1.7-1.4,2.8-1.8s2.4-0.7,3.8-0.7c1,0,2,0.1,3,0.4c0.9,0.3,1.9,0.8,2.6,1.5
			c0.8,0.8,1.3,1.7,1.7,3c0.4,1.3,0.6,2.9,0.5,5h-13.9c0,2.2,0.6,3.8,1.7,4.8c1.1,1,2.7,1.6,4.6,1.6c0.7,0,1.3-0.1,1.9-0.2
			c0.7-0.2,1.2-0.4,1.8-0.6c0.6-0.2,1-0.5,1.5-0.8c0.5-0.3,0.8-0.5,1-0.8L322,177.2z M314.4,163.4c-0.8,0-1.5,0.1-2.3,0.3
			c-0.7,0.2-1.3,0.5-1.9,0.9c-0.6,0.4-0.9,0.9-1.3,1.5c-0.4,0.7-0.6,1.4-0.7,2.4h11.1c-0.1-1.6-0.7-2.8-1.5-3.7
			C317.1,163.9,315.9,163.4,314.4,163.4z"/>
		<path class="st2" d="M350.2,154.4h14.4v2.6h-11.4v8.6h10.7v2.6h-10.7v11.2h-3L350.2,154.4L350.2,154.4z"/>
		<path class="st2" d="M370.7,179.5v-2.4h4.3V164h-4.3v-2.4h4.3v-1c0-2.3,0.6-3.9,1.8-4.9c1.1-1,2.8-1.5,5-1.5
			c0.8,0,1.5,0.1,2.1,0.2c0.7,0.1,1.3,0.3,2,0.6l-0.7,2.4c-0.7-0.3-1.2-0.5-1.8-0.6c-0.6-0.1-1.1-0.1-1.6-0.1
			c-1.6,0-2.6,0.4-3.2,1.1c-0.6,0.8-0.9,2.1-0.9,3.8h7.5v2.4h-7.5V177h7.5v2.4L370.7,179.5L370.7,179.5z"/>
		<path class="st2" d="M426.4,156.8c-0.9-0.2-1.8-0.3-3-0.3c-1,0-2,0.2-2.9,0.6c-0.9,0.4-1.7,0.9-2.5,1.7c-0.8,0.9-1.2,1.9-1.7,3.2
			c-0.4,1.3-0.7,2.9-0.7,4.9c0,3.5,0.7,6.1,2,7.8c1.3,1.7,3.2,2.6,5.7,2.6c1.5,0,2.8-0.3,4-0.9v-7H422v-2.4h7.7v11.1
			c-0.4,0.3-0.9,0.6-1.4,0.8c-0.6,0.2-1.1,0.5-1.7,0.6c-0.6,0.2-1.2,0.3-1.9,0.4c-0.7,0.1-1.3,0.1-1.9,0.1c-1.6,0-3-0.3-4.3-0.8
			c-1.2-0.5-2.4-1.3-3.2-2.4c-0.9-1-1.6-2.5-2.1-4.1s-0.8-3.6-0.8-5.8c0-2.4,0.3-4.3,0.9-6c0.6-1.6,1.4-3,2.4-4.1s2.1-1.8,3.4-2.3
			s2.6-0.8,3.9-0.8c1.4,0,2.6,0.1,3.6,0.2c0.9,0.2,1.7,0.4,2.4,0.7v0.2v6h-2.6V156.8z"/>
		<path class="st2" d="M451,180.3c0,1.1-0.2,2.1-0.7,2.9c-0.5,0.9-1,1.5-1.8,2.1s-1.6,0.9-2.6,1.2c-1,0.3-2.1,0.4-3.3,0.4
			c-1.4,0-2.6-0.2-3.7-0.5c-1-0.3-2-0.7-2.7-1.1l1.3-2.6c0.2,0.2,0.5,0.4,0.9,0.6c0.4,0.2,0.8,0.4,1.2,0.5s0.9,0.3,1.4,0.4
			c0.5,0.1,1,0.2,1.5,0.2c1,0,1.9-0.1,2.6-0.3c0.8-0.2,1.2-0.5,1.7-0.9c0.5-0.4,0.8-0.9,0.9-1.6s0.3-1.4,0.3-2.4v-1.8h0
			c-0.6,0.8-1.2,1.4-2.1,1.8c-0.9,0.5-2,0.7-3.3,0.7c-2.7,0-4.7-0.8-6-2.3c-1.3-1.5-1.9-3.9-1.9-7.1c0-3,0.9-5.4,2.5-7
			s4.1-2.4,7.3-2.4c1.5,0,2.7,0.1,3.8,0.3c1,0.2,2,0.5,2.8,0.8v18.1H451z M443,177.5c1.4,0,2.6-0.4,3.4-1.1c0.9-0.8,1.4-1.9,1.7-3.5
			v-8.5c-1-0.5-2.6-0.8-4.3-0.8c-1.9,0-3.4,0.6-4.5,1.7c-1.1,1.1-1.6,2.8-1.6,5.2c0,1,0.1,2,0.3,2.8c0.2,0.9,0.5,1.6,0.9,2.2
			s0.9,1.1,1.6,1.4C441.2,177.3,442.1,177.5,443,177.5z"/>
		<path class="st2" d="M491.7,168h-11.2v11.5h-3v-25.1h3v11h11.2v-11h3v25.1h-3V168z"/>
		<path class="st2" d="M496.9,154.4h5.6v9.4h0.2c0.8-0.9,1.6-1.5,2.6-2c0.9-0.5,2.2-0.7,3.7-0.7c1.1,0,2.2,0.1,3,0.4
			c0.9,0.3,1.5,0.7,2.1,1.2c0.6,0.6,0.9,1.4,1.2,2.5c0.3,1,0.4,2.4,0.4,4v10.3h-2.8v-9.8c0-1-0.1-1.9-0.2-2.6
			c-0.1-0.8-0.4-1.4-0.7-1.9c-0.4-0.5-0.9-0.9-1.4-1.1c-0.6-0.3-1.3-0.4-2.3-0.4c-0.7,0-1.3,0.1-1.9,0.4c-0.7,0.2-1.2,0.6-1.7,0.9
			c-0.5,0.4-0.9,0.9-1.3,1.4s-0.7,1.1-0.8,1.9v11.4h-2.7v-22.8H497L496.9,154.4L496.9,154.4z"/>
		<path class="st2" d="M542.1,154.4h17.2v2.6h-7.2v19.8h7.2v2.6h-17.2v-2.6h7.1V157h-7.1V154.4z"/>
		<path class="st2" d="M565.2,179.5v-2.4h6.2V164h-6.2v-2.4h9.1v15.6h6.1v2.4L565.2,179.5L565.2,179.5z M570.4,156.4
			c0-0.7,0.2-1.2,0.7-1.7s0.9-0.7,1.6-0.7c0.7,0,1.2,0.2,1.7,0.7s0.7,1,0.7,1.7s-0.2,1.1-0.7,1.6s-1,0.7-1.7,0.7
			c-0.7,0-1.2-0.2-1.6-0.7S570.4,157,570.4,156.4z"/>
		<path class="st2" d="M608,154.4h14.2v16.2c0,3-0.8,5.3-2.2,6.9s-3.5,2.4-6.2,2.4c-0.7,0-1.4-0.1-2.1-0.2c-0.7-0.1-1.3-0.3-1.9-0.5
			c-0.6-0.2-1-0.4-1.5-0.7c-0.4-0.3-0.8-0.5-0.9-0.7l1.3-2.4c0.3,0.2,0.6,0.4,0.9,0.6c0.3,0.2,0.7,0.4,1,0.6
			c0.4,0.2,0.9,0.3,1.3,0.5c0.5,0.1,1,0.2,1.7,0.2c1.8,0,3.1-0.6,4.1-1.7s1.4-2.9,1.4-5.5v-13h-11.2v-2.7H608z"/>
		<path class="st2" d="M638.1,163.9h-8.7v-2.4H641V180c0,2.5-0.7,4.3-1.9,5.4s-2.9,1.8-5.1,1.8c-0.7,0-1.2-0.1-1.9-0.3
			c-0.6-0.2-1.1-0.4-1.7-0.6s-0.9-0.5-1.4-0.7c-0.5-0.2-0.7-0.5-0.9-0.6l1.2-2.4c0.7,0.5,1.4,0.9,2.2,1.2c0.8,0.3,1.7,0.6,2.6,0.6
			c1.4,0,2.5-0.5,3.1-1.3c0.6-0.9,0.9-2.2,0.9-3.7L638.1,163.9L638.1,163.9z M636.6,156.4c0-0.7,0.2-1.2,0.7-1.7s0.9-0.7,1.6-0.7
			c0.7,0,1.2,0.2,1.7,0.7s0.7,1,0.7,1.7s-0.2,1.1-0.7,1.6s-1,0.7-1.7,0.7c-0.7,0-1.2-0.2-1.6-0.7C636.8,157.6,636.6,157,636.6,156.4
			z"/>
		<path class="st2" d="M677.9,167.9h-2.7v11.6h-3v-25.1h3v11.2h2.7l8-11.2h3.4l-8.9,12l10,13.1h-3.8L677.9,167.9z"/>
		<path class="st2" d="M691.5,154.4h5.9v14.8h2l7.1-7.7h3.4l-7.9,8.5l6.5,7h2.4v2.4h-3.7l-7.7-8.1h-2v8.1h-2.7v-22.8h-3v-2.3H691.5z
			"/>
		<path class="st2" d="M737,154.4h3v22.5h10.2v-6.2h2.6v8.9H737L737,154.4L737,154.4z"/>
		<path class="st2" d="M759.5,154.4h6v19.1c0,1.4,0.3,2.5,0.8,3.1c0.5,0.6,1.2,0.9,2.2,0.9c0.7,0,1.3-0.1,1.9-0.4
			c0.6-0.3,1.3-0.7,2-1.2l1.3,2c-0.4,0.4-0.9,0.7-1.2,0.9c-0.5,0.3-0.9,0.5-1.4,0.7c-0.5,0.2-0.9,0.3-1.4,0.4
			c-0.5,0.1-0.9,0.2-1.3,0.2c-0.9,0-1.7-0.1-2.4-0.4c-0.7-0.3-1.3-0.6-1.7-1.1c-0.5-0.5-0.9-1.1-1-2c-0.2-0.9-0.4-1.9-0.4-3v-16.7
			h-3.1L759.5,154.4L759.5,154.4z"/>
	</g>
	<g class="st1">
		<path class="st2" d="M39.5,234.6l0.4-3.4h-0.2l-1.7,3.1l-3.7,6.1h-0.9l-3.9-6.1l-1.6-3h-0.2l0.5,3.4v16.7h-2.9v-25.1h2.7l6,9.5H34
			l5.8-9.5h2.7v25.1h-3V234.6z"/>
		<path class="st2" d="M54,251.3v-12c0-0.5,0-0.9-0.1-1.4c0-0.5-0.1-0.9-0.3-1.2c-0.1-0.4-0.3-0.7-0.6-0.9c-0.3-0.2-0.6-0.3-0.9-0.3
			c-0.9,0-1.5,0.4-2.1,1c-0.6,0.7-0.9,1.5-1.2,2.6v12.4h-2.7v-17.9H48l0.6,2.2h0.2c0.3-0.4,0.5-0.7,0.7-1c0.2-0.3,0.5-0.6,0.8-0.9
			s0.7-0.4,1-0.6c0.4-0.1,0.9-0.2,1.5-0.2c0.4,0,0.8,0.1,1.1,0.2c0.4,0.1,0.8,0.3,1,0.5c0.3,0.2,0.6,0.6,0.9,0.9
			c0.3,0.4,0.4,0.9,0.5,1.4c0.6-0.9,1.1-1.7,1.9-2.2c0.7-0.6,1.6-0.8,2.8-0.8c0.8,0,1.4,0.1,1.9,0.4c0.5,0.3,0.9,0.7,1.1,1.1
			c0.3,0.5,0.5,1,0.6,1.8c0.1,0.7,0.2,1.4,0.2,2.3v12.8H62v-12.2c0-0.5,0-0.9-0.1-1.4c-0.1-0.5-0.1-0.9-0.3-1.1
			c-0.1-0.4-0.3-0.6-0.6-0.8c-0.2-0.2-0.6-0.3-0.9-0.3c-0.9,0-1.5,0.4-2.1,1c-0.6,0.7-1,1.6-1.3,2.8v12H54V251.3z"/>
		<path class="st2" d="M94.7,235.5l-1.9-3.6h-0.2l0.4,3.6v15.7h-2.8v-25.1h2l10.1,15.7l1.9,3.4h0.1l-0.4-3.4v-15.7h2.8v25.1h-2
			L94.7,235.5z"/>
		<path class="st2" d="M112.5,239.6c0-0.2,0-0.5,0-0.9s0-0.7-0.1-1c0-0.4-0.1-0.8-0.1-1.1s-0.1-0.7-0.1-0.9h-2.4v-2.4h4.8l0.3,2.9
			h0.2c0.3-0.4,0.6-0.9,0.9-1.2c0.4-0.4,0.9-0.8,1.4-1c0.6-0.3,1.1-0.6,1.8-0.8c0.7-0.2,1.3-0.3,2.1-0.3c1.1,0,2.1,0.1,2.9,0.4
			c0.9,0.3,1.5,0.7,2.1,1.2s0.9,1.4,1.2,2.5s0.5,2.4,0.5,4v10.3h-2.8v-9.7c0-2-0.3-3.5-0.9-4.4c-0.7-0.9-1.8-1.5-3.5-1.5
			c-0.7,0-1.2,0.1-1.8,0.4c-0.6,0.3-1.1,0.6-1.6,0.9c-0.5,0.4-0.9,0.9-1.2,1.4c-0.4,0.6-0.7,1.1-0.8,1.7v11.2h-2.7v-11.6H112.5z"/>
		<path class="st2" d="M154,238.7c0-4.2,0.8-7.4,2.2-9.6c1.5-2.3,3.8-3.4,6.8-3.4c1.7,0,3.1,0.3,4.3,0.9s2.1,1.5,2.8,2.6
			c0.8,1.1,1.2,2.5,1.5,4.1c0.3,1.6,0.5,3.4,0.5,5.3c0,4.2-0.8,7.4-2.2,9.6c-1.5,2.3-3.8,3.4-6.9,3.4c-1.6,0-3-0.3-4.2-0.9
			s-2.1-1.5-2.8-2.6c-0.8-1.1-1.2-2.5-1.5-4.1C154.1,242.4,154,240.6,154,238.7z M157.1,238.7c0,1.4,0.1,2.7,0.3,4
			c0.2,1.2,0.5,2.4,0.9,3.3s1,1.7,1.8,2.3c0.8,0.6,1.7,0.9,2.8,0.9c2.1,0,3.6-0.9,4.5-2.6c0.9-1.7,1.4-4.3,1.4-7.8
			c0-1.3-0.1-2.6-0.3-4c-0.2-1.2-0.5-2.4-0.9-3.3c-0.5-0.9-1-1.7-1.8-2.3c-0.8-0.6-1.7-0.9-2.8-0.9c-2.1,0-3.5,0.9-4.4,2.6
			C157.5,232.6,157.1,235.1,157.1,238.7z"/>
		<path class="st2" d="M175.9,242.3c0-2.9,0.8-5.2,2.3-6.9c1.5-1.7,3.7-2.6,6.4-2.6c1.5,0,2.8,0.3,3.9,0.8c1.1,0.5,2,1.1,2.7,2
			c0.8,0.9,1.2,1.8,1.6,3c0.4,1.1,0.6,2.4,0.6,3.7c0,1.4-0.2,2.7-0.6,3.9c-0.4,1.1-0.9,2.2-1.7,2.9c-0.8,0.9-1.7,1.4-2.7,1.9
			c-1.1,0.5-2.4,0.7-3.7,0.7c-1.5,0-2.7-0.3-3.9-0.8c-1.1-0.5-2-1.1-2.7-2c-0.8-0.9-1.2-1.8-1.6-3S175.9,243.6,175.9,242.3z
			 M178.8,242.3c0,0.9,0.1,1.7,0.3,2.6c0.2,0.9,0.6,1.6,0.9,2.3c0.5,0.7,1,1.2,1.8,1.6c0.8,0.4,1.6,0.6,2.6,0.6
			c1.9,0,3.3-0.6,4.3-1.8c0.9-1.2,1.4-2.9,1.4-5.2c0-0.9-0.1-1.7-0.3-2.6c-0.2-0.9-0.6-1.6-1-2.3c-0.5-0.7-1-1.2-1.8-1.6
			c-0.8-0.4-1.6-0.6-2.6-0.6c-1.9,0-3.3,0.6-4.3,1.8C179.3,238.2,178.8,239.9,178.8,242.3z"/>
		<path class="st2" d="M220.5,226.3c0.9-0.2,1.9-0.4,2.9-0.5c1-0.1,2.1-0.1,3.1-0.1c1.1,0,2.2,0.1,3.4,0.3c1.1,0.2,2.2,0.6,3.1,1.2
			c0.9,0.6,1.7,1.3,2.3,2.4c0.6,1,0.9,2.3,0.9,3.9c0,1.5-0.3,2.8-0.9,3.9c-0.6,1-1.3,1.9-2.2,2.6c-0.9,0.7-2,1.1-3.1,1.4
			c-1.1,0.3-2.4,0.5-3.6,0.5c-0.1,0-0.3,0-0.6,0c-0.3,0-0.6,0-0.9,0c-0.3,0-0.6,0-0.9-0.1c-0.3,0-0.5,0-0.6-0.1v9.5h-3.1V226.3z
			 M226.6,228.4c-0.7,0-1.2,0-1.8,0s-1,0.1-1.3,0.2V239c0.1,0.1,0.3,0.1,0.6,0.1c0.3,0,0.6,0,0.9,0s0.6,0,0.9,0c0.3,0,0.5,0,0.6,0
			c0.9,0,1.6-0.1,2.5-0.2c0.9-0.2,1.5-0.5,2.2-0.9c0.7-0.4,1.1-0.9,1.6-1.7c0.4-0.8,0.6-1.7,0.6-2.8c0-0.9-0.2-1.8-0.6-2.5
			c-0.4-0.7-0.9-1.2-1.5-1.6c-0.7-0.4-1.3-0.7-2.1-0.9C228.1,228.5,227.3,228.4,226.6,228.4z"/>
		<path class="st2" d="M241.8,239.6c0-0.2,0-0.5,0-0.9s0-0.7-0.1-1c0-0.4-0.1-0.8-0.1-1.1s-0.1-0.7-0.1-0.9h-2.4v-2.4h4.8l0.4,2.6
			h0.2c0.7-0.9,1.5-1.5,2.5-2.1c1-0.6,2.2-0.9,3.7-0.9c2.6,0,4.5,0.7,5.8,2.1c1.3,1.4,2,3.7,2,6.9c0,1.5-0.2,2.8-0.7,4.1
			c-0.5,1.2-1,2.3-1.9,3c-0.9,0.9-1.8,1.5-2.9,2c-1.1,0.5-2.5,0.7-3.8,0.7c-0.5,0-0.9,0-1.3-0.1c-0.4,0-0.8-0.1-1-0.2
			c-0.3-0.1-0.7-0.1-0.9-0.2c-0.3-0.1-0.7-0.2-1-0.4v7.6h-2.7v-18.7H241.8z M250.1,235.5c-0.8,0-1.4,0.1-2,0.4
			c-0.7,0.3-1.2,0.6-1.7,1c-0.5,0.5-0.9,0.9-1.2,1.4s-0.5,1-0.6,1.6v8.1c0.6,0.4,1.1,0.7,1.8,0.9c0.7,0.2,1.5,0.3,2.6,0.3
			c1.9,0,3.4-0.7,4.6-1.9c1.1-1.2,1.7-3.1,1.7-5.5c0-2-0.4-3.6-1.2-4.7C253.3,236,252,235.5,250.1,235.5z"/>
		<path class="st2" d="M283.2,238.7c0-4.2,0.8-7.4,2.2-9.6c1.5-2.3,3.8-3.4,6.8-3.4c1.7,0,3.1,0.3,4.3,0.9s2.1,1.5,2.8,2.6
			c0.8,1.1,1.2,2.5,1.5,4.1c0.3,1.6,0.5,3.4,0.5,5.3c0,3.9-0.6,6.9-1.8,9.1c-1.2,2.2-3.1,3.5-5.8,3.8c0.2,0.9,0.7,1.5,1.2,1.9
			c0.6,0.4,1.3,0.7,2.3,0.7c1,0,2-0.3,2.7-0.8l0.8,2.2c-0.4,0.4-0.9,0.7-1.6,0.9c-0.7,0.2-1.4,0.4-2.2,0.4c-0.7,0-1.3-0.1-2-0.3
			s-1.3-0.5-1.9-0.9c-0.6-0.4-1.1-0.9-1.6-1.6s-0.8-1.5-0.9-2.5c-1.3-0.2-2.6-0.7-3.4-1.3c-0.9-0.7-1.7-1.6-2.3-2.6
			c-0.6-1.1-1-2.5-1.2-3.9C283.4,242.1,283.2,240.5,283.2,238.7z M286.3,238.7c0,1.4,0.1,2.7,0.3,4c0.2,1.2,0.5,2.4,0.9,3.3
			s1,1.7,1.8,2.3c0.8,0.6,1.7,0.9,2.8,0.9c2.1,0,3.6-0.9,4.5-2.6s1.4-4.3,1.4-7.8c0-1.3-0.1-2.6-0.3-4c-0.2-1.3-0.5-2.4-0.9-3.3
			c-0.5-0.9-1-1.7-1.8-2.3c-0.8-0.6-1.7-0.9-2.8-0.9c-2.1,0-3.5,0.9-4.4,2.6C286.8,232.6,286.3,235.2,286.3,238.7z"/>
		<path class="st2" d="M321.5,258.5h-2.8v-9.3h-0.2c-0.6,0.8-1.2,1.4-2.1,1.8c-0.9,0.4-2,0.7-3.3,0.7c-2.7,0-4.7-0.8-6-2.3
			c-1.3-1.5-1.9-3.9-1.9-7.1c0-3,0.9-5.4,2.5-7s4.1-2.4,7.3-2.4c1.4,0,2.7,0.1,4,0.4c1.2,0.3,2.1,0.5,2.7,0.8v24.4H321.5z
			 M313.5,249.3c2.8,0,4.5-1.5,5.2-4.5v-8.7c-0.6-0.3-1.1-0.5-1.9-0.6c-0.8-0.1-1.5-0.2-2.5-0.2c-1.9,0-3.4,0.6-4.5,1.6
			c-1.1,1.1-1.6,2.8-1.6,5.2c0,1,0.1,2,0.3,2.8c0.2,0.9,0.5,1.6,0.9,2.2s0.9,1.1,1.7,1.4C311.9,248.8,312.5,249.3,313.5,249.3z"/>
		<path class="st2" d="M349.7,226.3c0.9-0.2,2-0.3,3.1-0.4c1.2-0.1,2.3-0.2,3.2-0.2c1.1,0,2.2,0.1,3.1,0.4s1.9,0.7,2.6,1.2
			c0.8,0.6,1.3,1.2,1.8,2.2c0.5,0.9,0.7,2,0.7,3.2c0,0.9-0.2,1.9-0.5,2.6c-0.3,0.8-0.8,1.4-1.2,2c-0.5,0.6-0.9,0.9-1.4,1.3
			s-0.9,0.6-1.3,0.8l6.6,11.9h-3.5l-6-11.1h-4.4v11.1h-3v-25H349.7z M356.1,228.4c-0.3,0-0.7,0-0.9,0c-0.4,0-0.7,0-0.9,0
			c-0.3,0-0.6,0.1-0.9,0.1c-0.3,0-0.5,0.1-0.7,0.1v9.3h2.8c1.6,0,3-0.4,4.1-1.2c1-0.9,1.6-2.1,1.6-3.8c0-1.3-0.5-2.4-1.3-3.2
			C359,228.8,357.7,228.4,356.1,228.4z"/>
		<path class="st2" d="M370,251.3v-2.4h4.8v-13.1H370v-2.4h6.7l0.6,2.4h0.2c0.9-0.8,1.7-1.4,2.7-1.9c1-0.6,2.2-0.8,3.6-0.8
			c0.9,0,1.5,0.2,2,0.5c0.5,0.3,0.9,0.8,1.1,1.3c0.3,0.6,0.5,1.3,0.6,2.2s0.2,1.8,0.2,2.9h-2.6c0-1.5-0.2-2.6-0.5-3.3
			c-0.3-0.8-0.9-1-1.6-1s-1.4,0.1-2,0.3c-0.6,0.2-1.1,0.5-1.6,0.8c-0.5,0.3-0.9,0.7-1.1,0.9c-0.3,0.3-0.6,0.6-0.7,0.8V249h6.9v2.4
			L370,251.3L370,251.3z"/>
		<path class="st2" d="M416.1,247.7c0.8,0.4,1.5,0.7,2.5,0.9c0.9,0.3,1.8,0.4,2.7,0.4c0.8,0,1.5-0.1,2.3-0.2
			c0.7-0.2,1.3-0.4,1.8-0.8c0.5-0.4,0.9-0.8,1.2-1.3c0.3-0.6,0.5-1.1,0.5-1.9c0-0.9-0.3-1.8-0.9-2.4c-0.7-0.7-1.5-1.1-2.5-1.6
			s-2.1-0.9-3.2-1.4c-1.1-0.5-2.2-1-3.2-1.6c-0.9-0.7-1.8-1.4-2.5-2.3c-0.7-0.9-0.9-2.1-0.9-3.4c0-0.9,0.2-1.9,0.6-2.6
			c0.4-0.8,0.9-1.4,1.7-2c0.8-0.6,1.6-0.9,2.6-1.2c1-0.3,2.2-0.5,3.4-0.5c1.4,0,2.7,0.1,3.9,0.3s2.1,0.5,2.8,0.9h0.1v0.1l0,0v0.1
			v5.8h-2.6v-3.9c-0.6-0.2-1.2-0.3-2-0.4c-0.8-0.1-1.5-0.2-2.3-0.2c-0.8,0-1.5,0.1-2.2,0.3c-0.7,0.2-1.1,0.5-1.6,0.8
			c-0.5,0.3-0.8,0.7-1,1.1s-0.4,0.9-0.4,1.3c0,0.9,0.3,1.7,0.9,2.4s1.5,1.1,2.5,1.7c0.9,0.5,2.1,0.9,3.2,1.4s2.2,1,3.2,1.7
			c0.9,0.7,1.8,1.4,2.5,2.3c0.7,0.9,0.9,2,0.9,3.3c0,1-0.2,2.1-0.6,2.9c-0.4,0.9-0.9,1.6-1.7,2.3c-0.8,0.7-1.6,1.1-2.6,1.4
			c-1,0.4-2.3,0.5-3.6,0.5c-0.9,0-1.8-0.1-2.6-0.2c-0.9-0.2-1.6-0.3-2.3-0.6c-0.7-0.2-1.3-0.5-1.8-0.7c-0.6-0.3-0.9-0.5-1.2-0.6
			v-0.1v-5.9h2.6v3.8H416.1z"/>
		<path class="st2" d="M447.9,246.4c0-0.8-0.3-1.3-0.9-1.8c-0.6-0.4-1.3-0.8-2.2-1c-0.9-0.3-1.9-0.5-2.9-0.7c-1-0.2-2-0.5-2.8-0.9
			c-0.9-0.4-1.6-0.9-2.2-1.4s-0.9-1.5-0.9-2.6c0-0.9,0.2-1.7,0.6-2.4c0.4-0.7,0.9-1.1,1.6-1.6c0.7-0.4,1.4-0.8,2.3-0.9
			c0.9-0.2,1.8-0.3,2.7-0.3c1.7,0,3.1,0.2,4.3,0.7c1.2,0.5,2.2,0.9,2.9,1.3l-1.1,2.3c-0.8-0.5-1.6-0.9-2.6-1.2
			c-0.9-0.4-2.1-0.6-3.5-0.6c-0.6,0-1,0.1-1.5,0.2c-0.5,0.1-0.9,0.3-1.4,0.5c-0.4,0.2-0.8,0.5-1,0.9c-0.3,0.4-0.4,0.8-0.4,1.2
			c0,0.7,0.3,1.1,0.9,1.4c0.6,0.4,1.3,0.7,2.2,0.9c0.9,0.2,1.9,0.5,2.8,0.7c1,0.2,2,0.5,2.9,0.9c0.9,0.4,1.6,0.9,2.2,1.5
			c0.6,0.7,0.9,1.5,0.9,2.6c0,1.6-0.7,3-2,4.1c-1.3,1-3.3,1.6-5.9,1.6c-0.8,0-1.6-0.1-2.4-0.2c-0.8-0.2-1.5-0.4-2.2-0.6
			c-0.7-0.3-1.3-0.5-1.8-0.9c-0.6-0.3-1-0.6-1.3-0.9l1.4-2.4c0.3,0.3,0.7,0.6,1.1,0.9c0.5,0.3,1,0.6,1.6,0.9
			c0.6,0.3,1.2,0.5,1.9,0.6c0.7,0.2,1.3,0.2,2,0.2s1.2-0.1,1.8-0.2c0.6-0.1,1-0.3,1.5-0.5c0.5-0.2,0.8-0.6,1-0.9
			C447.8,247.4,447.9,246.9,447.9,246.4z"/>
		<path class="st2" d="M476.7,226.2h18.7v6.6h-2.6v-3.9h-5.2v19.8h4v2.6h-10.9v-2.6h4v-19.8h-5.2v3.9h-2.6L476.7,226.2L476.7,226.2z
			"/>
		<path class="st2" d="M498,233.3h4.3v-3.6l2.8-0.8v4.3h9.5v2.4h-9.5v8.5c0,1.7,0.4,3,1.2,3.9c0.9,0.9,2.1,1.2,3.6,1.2
			c1,0,2-0.2,2.8-0.6c0.8-0.4,1.5-0.9,2.2-1.3l0.9,2.1c-0.9,0.7-1.8,1.2-3,1.6c-1.1,0.4-2.4,0.6-3.6,0.6c-0.9,0-1.9-0.1-2.7-0.4
			s-1.6-0.7-2.3-1.2c-0.7-0.6-1.1-1.3-1.5-2.2c-0.4-0.9-0.6-2-0.6-3.2v-8.9h-4.3L498,233.3L498,233.3z"/>
		<path class="st2" d="M556.4,226.2h2.8v16.7c0,1.5-0.2,2.8-0.6,3.9c-0.4,1.1-0.9,2-1.7,2.7c-0.8,0.7-1.6,1.2-2.6,1.6
			c-1,0.4-2.2,0.5-3.4,0.5c-2.9,0-5.2-0.7-6.7-2c-1.5-1.3-2.3-3.4-2.3-6.1v-17.4h3v16c0,1.2,0.1,2.4,0.4,3.2
			c0.3,0.9,0.7,1.6,1.1,2.1c0.5,0.5,1.1,0.9,1.9,1.1c0.8,0.2,1.6,0.4,2.6,0.4c2,0,3.3-0.6,4.2-1.6c0.9-1,1.2-2.8,1.2-5.3
			L556.4,226.2L556.4,226.2z"/>
		<path class="st2" d="M574.4,233.3h5.1v12.3c0,1.1,0.1,2.3,0.2,3.4h2.4v2.4h-4.8l-0.1-3h-0.2c-0.7,1-1.4,1.9-2.5,2.6
			c-1,0.7-2.3,0.9-3.7,0.9c-1.1,0-2.1-0.1-2.8-0.4c-0.8-0.3-1.4-0.7-1.9-1.3s-0.9-1.4-1.1-2.5c-0.3-1-0.4-2.4-0.4-3.9v-7.9h-2.4
			v-2.4h5.2v9.7c0,0.9,0,1.9,0.1,2.6s0.3,1.4,0.5,2c0.3,0.6,0.7,0.9,1.1,1.2c0.5,0.3,1.2,0.4,2.1,0.4c1.2,0,2.3-0.4,3.2-1.2
			c0.9-0.9,1.6-1.8,2.1-3V236h-2.3v-2.6H574.4z"/>
		<path class="st2" d="M615.4,247.5h0.4l6.8-21.4h3l-8.4,25.1h-3.5l-8.6-25.1h3.3L615.4,247.5z"/>
		<path class="st2" d="M636.8,247.8h0.4l5.7-14.5h3.1l-7.6,17.9h-3.1l-7.7-17.9h3.3L636.8,247.8z"/>
	</g>
	<g class="st1">
		<path class="st2" d="M29.3,315.8l0.2,2.4h0.2l0.5-2.6l2.6-9.8h2.4l2.5,9.7l0.7,2.6h0.2l0.2-2.5l2.6-17.9h2.6L40,323h-2.8
			l-2.9-10.2l-0.4-2.5h-0.1l-0.4,2.5L30.5,323h-3l-3.9-25.1h2.8L29.3,315.8z"/>
		<path class="st2" d="M56.8,309l3.6,10h0.3l2.6-13.9h2.6l-3.5,17.9h-3.2l-3.4-9.9h-0.1l-3.6,9.9h-3.2L45,305.1h2.7l2.9,14h0.2
			l3.5-10L56.8,309L56.8,309z"/>
		<path class="st2" d="M96.6,310.2l-7.6-12.4h3.6l5,8.5l0.9,1.7l0.9-1.7l5.4-8.5h3.3l-7.8,12.1l8.2,13h-3.5l-5.7-9l-0.9-1.8
			l-0.9,1.8l-5.8,9h-3.3L96.6,310.2z"/>
		<path class="st2" d="M118.2,313.8l-6.9-8.8h3.6l5.2,6.7l5.3-6.7h3.2l-6.9,8.6l7.4,9.4h-3.4l-5.7-7.4l-5.9,7.4h-3.3L118.2,313.8z"
			/>
		<path class="st2" d="M161.5,313.4l-9-15.5h3.5l7.2,12.4l0,0l7-12.4h3.2l-9,15.5v9.6h-3L161.5,313.4L161.5,313.4z"/>
		<path class="st2" d="M184.9,320.2h1.3l4.4-15.2h2.9l-5,16.2c-0.3,0.9-0.6,1.8-0.9,2.8c-0.3,1-0.7,2.1-1.1,3
			c-0.5,0.9-1.2,1.7-2.1,2.4c-0.9,0.7-2,0.9-3.4,0.9c-0.3,0-0.7,0-0.9-0.1c-0.4-0.1-0.7-0.2-1-0.3c-0.4-0.1-0.7-0.2-0.9-0.4
			c-0.3-0.2-0.5-0.3-0.7-0.5l1-2.6c0.2,0.1,0.4,0.3,0.6,0.4c0.2,0.1,0.6,0.2,0.9,0.3s0.6,0.2,0.9,0.2c0.3,0.1,0.6,0.1,0.8,0.1
			c1.8,0,3-1.5,3.7-4.5H183l-7.6-17.9h3.2L184.9,320.2z"/>
		<path class="st2" d="M218.8,320.3l14.2-19.7h-14.2v-2.6h17.6v2.6l-14.3,19.7h14.3v2.6h-17.6V320.3z"/>
		<path class="st2" d="M241.4,320.6l12.2-13.1h-12.2v-2.4h15.5v2.4l-12.3,13.1h12.3v2.4h-15.5V320.6z"/>
		<path class="st2" d="M288.5,295.5c0-0.9,0.3-1.6,0.9-2.2c0.6-0.6,1.5-0.9,2.8-0.9c1.2,0,2.2,0.3,2.8,0.8c0.7,0.5,1,1.2,1,2.3
			c0,0.8-0.3,1.4-0.8,1.9s-1.2,0.9-2.1,0.9l9.3,24.7h-3.1l-2.6-7h-9.4l-2.5,7h-3l9.2-24.7c-0.9-0.2-1.6-0.5-2.1-0.9
			C288.7,296.9,288.5,296.2,288.5,295.5z M288.5,313.5h7.4l-3.7-10.3l0,0L288.5,313.5z M290.6,295.5c0,0.4,0.1,0.8,0.4,1
			c0.3,0.3,0.7,0.4,1.2,0.4s0.9-0.1,1.2-0.4s0.4-0.6,0.4-1s-0.1-0.9-0.4-1.1c-0.3-0.3-0.7-0.4-1.2-0.4c-0.6,0-0.9,0.1-1.2,0.4
			C290.8,294.6,290.6,295,290.6,295.5z"/>
		<path class="st2" d="M306.9,306.4c1-0.6,2.2-1,3.5-1.3c1.3-0.3,2.6-0.4,3.8-0.4c1.2,0,2.2,0.2,3,0.6c0.8,0.4,1.4,0.9,1.8,1.5
			c0.5,0.6,0.8,1.3,0.9,2.1s0.2,1.6,0.2,2.4c0,0.9,0,1.9-0.1,2.9c-0.1,1-0.1,2.1-0.1,3.1c0,1.2,0.1,2.4,0.2,3.4h2.4v2.4h-4.7
			l-0.3-2.6h-0.2c-0.2,0.2-0.4,0.5-0.7,0.9c-0.3,0.4-0.7,0.7-1.1,0.9c-0.5,0.3-1,0.6-1.7,0.9c-0.7,0.3-1.4,0.4-2.4,0.4
			c-1.8,0-3.2-0.5-4.3-1.3c-1-0.9-1.5-2.2-1.5-3.8c0-1.2,0.3-2.3,0.9-3c0.6-0.9,1.3-1.4,2.4-1.9c1-0.5,2.3-0.7,3.7-0.8
			c1.4-0.1,3,0,4.8,0.3c0.1-1.1,0.1-2,0.1-2.7c-0.1-0.8-0.3-1.3-0.6-1.7c-0.3-0.5-0.8-0.8-1.2-0.9c-0.6-0.2-1.2-0.3-2-0.3
			c-1,0-2.1,0.2-3.1,0.5c-0.9,0.3-1.9,0.6-2.6,0.9L306.9,306.4z M312.2,321c0.7,0,1.3-0.1,1.9-0.3c0.6-0.2,1-0.5,1.5-0.9
			c0.5-0.4,0.8-0.7,1-1.1c0.3-0.4,0.5-0.8,0.7-1.1V315c-1.2-0.2-2.4-0.3-3.4-0.3c-1,0-2,0.1-2.7,0.4c-0.8,0.2-1.3,0.6-1.8,1
			s-0.7,1.1-0.7,1.9c0,0.8,0.3,1.5,0.9,2.1C310,320.7,310.9,321,312.2,321z M310.2,299.9c0-1,0.3-1.8,0.9-2.4
			c0.7-0.6,1.5-0.9,2.6-0.9c1,0,1.9,0.3,2.6,0.8c0.7,0.6,1,1.3,1,2.5c0,0.9-0.4,1.7-1,2.4c-0.7,0.6-1.5,0.9-2.6,0.9
			c-1,0-1.8-0.3-2.5-0.9C310.5,301.8,310.2,301,310.2,299.9z M312.1,299.9c0,0.5,0.2,0.9,0.5,1.1c0.3,0.3,0.7,0.4,1,0.4
			c0.5,0,0.9-0.1,1.1-0.4c0.3-0.3,0.5-0.7,0.5-1.1c0-0.6-0.2-0.9-0.5-1.1s-0.7-0.4-1.1-0.4s-0.8,0.1-1,0.4
			C312.3,299,312.1,299.4,312.1,299.9z"/>
		<path class="st2" d="M361.6,316.1h-9.6l-2.3,7h-3l8.4-25.1h3.5l8.5,25.1h-3.1L361.6,316.1z M350.6,294.3c0-0.6,0.2-1,0.7-1.3
			c0.4-0.4,0.9-0.6,1.6-0.6c0.7,0,1.1,0.2,1.6,0.6c0.4,0.4,0.7,0.8,0.7,1.3c0,0.6-0.2,1-0.7,1.3c-0.4,0.4-0.9,0.5-1.6,0.5
			c-0.7,0-1.2-0.2-1.6-0.5C350.8,295.3,350.6,294.8,350.6,294.3z M352.9,313.5h7.8l-3.7-11.8h-0.5L352.9,313.5z M358.6,294.3
			c0-0.6,0.2-1,0.6-1.3c0.4-0.4,0.9-0.6,1.5-0.6c0.7,0,1.2,0.2,1.6,0.6c0.4,0.4,0.6,0.8,0.6,1.3c0,0.6-0.2,1-0.6,1.3
			c-0.4,0.4-0.9,0.5-1.6,0.5s-1.1-0.2-1.5-0.5C358.8,295.3,358.6,294.8,358.6,294.3z"/>
		<path class="st2" d="M371.5,306.4c1-0.6,2.2-1,3.5-1.3c1.3-0.3,2.6-0.4,3.8-0.4s2.2,0.2,3,0.6c0.8,0.4,1.4,0.9,1.8,1.5
			c0.5,0.6,0.8,1.3,0.9,2.1s0.2,1.6,0.2,2.4c0,0.9,0,1.9-0.1,2.9c-0.1,1-0.1,2.1-0.1,3.1c0,1.2,0.1,2.4,0.2,3.4h2.4v2.4h-4.7
			l-0.3-2.6H382c-0.2,0.2-0.4,0.5-0.7,0.9c-0.3,0.4-0.7,0.7-1.1,0.9c-0.5,0.3-1,0.6-1.7,0.9c-0.7,0.3-1.4,0.4-2.4,0.4
			c-1.8,0-3.2-0.5-4.3-1.3c-1-0.9-1.5-2.2-1.5-3.8c0-1.2,0.3-2.3,0.9-3c0.6-0.9,1.3-1.4,2.4-1.9c1-0.5,2.3-0.7,3.7-0.8
			c1.4-0.1,3,0,4.8,0.3c0.1-1.1,0.1-2,0.1-2.7c-0.1-0.8-0.3-1.3-0.6-1.7c-0.3-0.5-0.8-0.8-1.2-0.9c-0.6-0.2-1.2-0.3-2-0.3
			c-1,0-2.1,0.2-3.1,0.5c-0.9,0.3-1.9,0.6-2.6,0.9L371.5,306.4z M372.2,299.9c0-0.7,0.2-1.1,0.6-1.5c0.4-0.4,0.9-0.6,1.5-0.6
			c0.6,0,1.1,0.2,1.5,0.6c0.4,0.4,0.6,0.9,0.6,1.5c0,0.6-0.2,1-0.6,1.4s-0.9,0.6-1.5,0.6c-0.7,0-1.1-0.2-1.5-0.6
			C372.4,301,372.2,300.5,372.2,299.9z M376.8,321c0.7,0,1.3-0.1,1.9-0.3c0.6-0.2,1-0.5,1.5-0.9c0.5-0.4,0.8-0.7,1-1.1
			c0.3-0.4,0.5-0.8,0.7-1.1V315c-1.2-0.2-2.4-0.3-3.4-0.3c-1,0-2,0.1-2.7,0.4c-0.8,0.2-1.3,0.6-1.8,1s-0.7,1.1-0.7,1.9
			c0,0.8,0.3,1.5,0.9,2.1C374.6,320.7,375.6,321,376.8,321z M380.2,299.9c0-0.7,0.2-1.1,0.6-1.5c0.4-0.4,0.9-0.6,1.4-0.6
			c0.7,0,1.1,0.2,1.5,0.6c0.4,0.4,0.6,0.9,0.6,1.5c0,0.6-0.2,1-0.6,1.4c-0.4,0.4-0.9,0.6-1.5,0.6c-0.6,0-1-0.2-1.4-0.6
			C380.4,301,380.2,300.5,380.2,299.9z"/>
		<path class="st2" d="M412.4,310.5c0-4.2,0.8-7.4,2.2-9.6c1.5-2.3,3.8-3.4,6.8-3.4c1.7,0,3.1,0.3,4.3,0.9s2.1,1.5,2.8,2.6
			c0.8,1.1,1.2,2.5,1.5,4.1c0.3,1.6,0.5,3.4,0.5,5.3c0,4.2-0.8,7.4-2.2,9.6c-1.5,2.3-3.8,3.4-6.9,3.4c-1.6,0-3-0.3-4.2-0.9
			s-2.1-1.5-2.8-2.6c-0.8-1.1-1.2-2.5-1.5-4.1S412.4,312.4,412.4,310.5z M415.1,294.3c0-0.6,0.2-1,0.7-1.3c0.4-0.4,0.9-0.6,1.6-0.6
			s1.1,0.2,1.6,0.6c0.4,0.4,0.7,0.8,0.7,1.3c0,0.6-0.2,1-0.7,1.3c-0.4,0.4-0.9,0.5-1.6,0.5s-1.2-0.2-1.6-0.5
			C415.4,295.3,415.1,294.8,415.1,294.3z M415.5,310.5c0,1.4,0.1,2.7,0.3,4c0.2,1.2,0.5,2.4,0.9,3.3c0.5,0.9,1,1.7,1.8,2.3
			c0.8,0.6,1.7,0.9,2.8,0.9c2.1,0,3.6-0.9,4.5-2.6s1.4-4.3,1.4-7.8c0-1.3-0.1-2.6-0.3-4s-0.5-2.4-0.9-3.3c-0.5-0.9-1-1.7-1.8-2.3
			c-0.8-0.6-1.7-0.9-2.8-0.9c-2.1,0-3.5,0.9-4.4,2.6C416,304.4,415.5,306.9,415.5,310.5z M423.3,294.3c0-0.6,0.2-1,0.6-1.3
			c0.4-0.4,0.9-0.6,1.5-0.6c0.7,0,1.2,0.2,1.6,0.6c0.4,0.4,0.6,0.8,0.6,1.3c0,0.6-0.2,1-0.6,1.3c-0.4,0.4-0.9,0.5-1.6,0.5
			s-1.1-0.2-1.5-0.5C423.4,295.3,423.3,294.8,423.3,294.3z"/>
		<path class="st2" d="M434.3,314.1c0-2.9,0.8-5.2,2.3-6.9c1.5-1.7,3.7-2.6,6.4-2.6c1.5,0,2.8,0.3,3.9,0.8c1.1,0.5,2,1.1,2.7,2
			c0.8,0.9,1.2,1.8,1.6,3c0.4,1.2,0.6,2.4,0.6,3.7c0,1.4-0.2,2.7-0.6,3.9c-0.4,1.1-0.9,2.2-1.7,2.9c-0.8,0.9-1.7,1.4-2.7,1.9
			c-1.1,0.5-2.4,0.7-3.7,0.7c-1.5,0-2.7-0.3-3.9-0.8s-2-1.1-2.7-2s-1.2-1.8-1.6-3C434.5,316.5,434.3,315.4,434.3,314.1z M437,299.9
			c0-0.7,0.2-1.1,0.6-1.5c0.4-0.4,0.9-0.6,1.5-0.6c0.6,0,1.1,0.2,1.5,0.6c0.4,0.4,0.6,0.9,0.6,1.5c0,0.6-0.2,1-0.6,1.4
			c-0.4,0.4-0.9,0.6-1.5,0.6s-1.1-0.2-1.5-0.6C437.1,301,437,300.5,437,299.9z M437.2,314.1c0,0.9,0.1,1.7,0.3,2.6
			c0.2,0.9,0.6,1.6,0.9,2.3c0.5,0.7,1,1.2,1.8,1.6c0.8,0.4,1.6,0.6,2.6,0.6c1.9,0,3.3-0.6,4.3-1.8c1-1.2,1.4-2.9,1.4-5.2
			c0-0.9-0.1-1.7-0.3-2.6c-0.2-0.9-0.6-1.6-1-2.3c-0.5-0.7-1-1.2-1.8-1.6c-0.8-0.4-1.6-0.6-2.6-0.6c-1.9,0-3.3,0.6-4.3,1.8
			C437.7,310.1,437.2,311.7,437.2,314.1z M444.9,299.9c0-0.7,0.2-1.1,0.6-1.5c0.4-0.4,0.9-0.6,1.4-0.6c0.7,0,1.1,0.2,1.5,0.6
			c0.4,0.4,0.6,0.9,0.6,1.5c0,0.6-0.2,1-0.6,1.4c-0.4,0.4-0.9,0.6-1.5,0.6c-0.6,0-1-0.2-1.4-0.6C445.1,301,444.9,300.5,444.9,299.9z
			"/>
	</g>
	<g class="st1">
		<path class="st2" d="M26.7,54.9c1.4-0.3,2.9-0.5,4.6-0.7c1.7-0.2,3.4-0.2,5-0.2c1.7,0,3.5,0.2,5.2,0.5c1.8,0.3,3.3,0.9,4.7,1.7
			c1.4,0.9,2.6,2.1,3.4,3.6c0.9,1.5,1.3,3.5,1.3,6c0,2.2-0.4,4-1.1,5.5c-0.8,1.5-1.8,2.7-3,3.8c-1.2,0.9-2.7,1.7-4.3,2.2
			c-1.6,0.5-3.3,0.7-5,0.7c-0.2,0-0.5,0-0.8,0c-0.4,0-0.8,0-1.1,0c-0.4,0-0.8,0-1.1-0.1c-0.4,0-0.7-0.1-0.9-0.1v11.9h-6.9V54.9z
			 M36.9,60c-0.7,0-1.3,0-1.9,0.1c-0.6,0.1-1,0.1-1.4,0.2v11.3c0.1,0,0.4,0.1,0.6,0.1c0.3,0,0.6,0.1,0.9,0.1s0.6,0,0.9,0
			s0.5,0,0.7,0c0.9,0,1.8-0.1,2.6-0.3c0.9-0.2,1.7-0.5,2.4-0.9c0.7-0.5,1.2-1,1.7-1.9c0.4-0.8,0.7-1.9,0.7-3.1c0-1.1-0.2-2-0.6-2.7
			c-0.4-0.8-0.9-1.3-1.6-1.7c-0.7-0.5-1.4-0.8-2.3-0.9C38.6,60,37.8,60,36.9,60z"/>
		<path class="st2" d="M59,84.1h5.7v-24h-4.8v6h-5.5V54.5h27.4V66h-5.5v-6h-4.7v24h5.7v5.6H59V84.1z"/>
		<path class="st2" d="M134.3,71l0.3-5.5h-0.3l-5.6,9.2h-1.2l-5.9-9.2h-0.3l0.3,4.9v19.2h-6.5v-35h7l6,9.7h0.2l6-9.7h6.9v35h-6.9V71
			z"/>
		<path class="st2" d="M145,77.1c0-2.1,0.3-4,0.9-5.6c0.7-1.6,1.5-3,2.7-4.2c1.1-1.1,2.6-2,4.2-2.6s3.4-0.9,5.5-0.9s4,0.3,5.7,0.9
			c1.6,0.7,3,1.5,4.2,2.6c1.1,1.1,2,2.6,2.6,4.2c0.6,1.6,0.9,3.4,0.9,5.4c0,2.1-0.3,4-0.9,5.6c-0.7,1.6-1.5,3-2.7,4.2
			c-1.1,1.1-2.6,2-4.2,2.6c-1.6,0.6-3.4,0.9-5.5,0.9s-4-0.3-5.7-0.9c-1.7-0.7-3-1.5-4.2-2.6c-1.1-1.1-2-2.6-2.6-4.2
			C145.3,80.9,145,79.1,145,77.1z M151.7,77.1c0,1.1,0.2,2.1,0.5,3c0.3,0.9,0.8,1.8,1.3,2.5c0.6,0.7,1.2,1.2,2.1,1.6
			c0.8,0.4,1.7,0.6,2.7,0.6c1.9,0,3.5-0.7,4.7-1.9c1.2-1.2,1.8-3.2,1.8-5.9c0-2.3-0.6-4.2-1.7-5.6s-2.7-2.2-4.8-2.2
			c-0.9,0-1.8,0.2-2.6,0.5c-0.8,0.3-1.5,0.8-2.1,1.4c-0.6,0.7-1,1.4-1.4,2.4C151.8,74.5,151.7,75.7,151.7,77.1z"/>
		<path class="st2" d="M173.8,64.5h8.8l0.8,3.3h0.2c0.8-1,1.9-2,3.3-2.8c1.4-0.8,3.1-1.2,5.2-1.2c1.2,0,2.4,0.2,3.5,0.5
			c1,0.4,2,0.9,2.7,1.6c0.8,0.8,1.4,1.8,1.8,3.1c0.5,1.3,0.7,2.9,0.7,4.9v15.7h-6.5V75.4c0-2.1-0.5-3.5-1.4-4.4
			c-0.9-0.9-2.1-1.3-3.5-1.3c-1.2,0-2.4,0.4-3.4,1c-1,0.8-1.7,1.6-2.1,2.6v16.2h-6.5V70.1h-3.6L173.8,64.5L173.8,64.5z"/>
		<path class="st2" d="M205.1,77.1c0-2.1,0.3-4,0.9-5.6s1.5-3,2.7-4.2c1.1-1.1,2.6-2,4.2-2.6s3.4-0.9,5.5-0.9s4,0.3,5.7,0.9
			c1.6,0.7,3,1.5,4.2,2.6c1.1,1.1,2,2.6,2.6,4.2c0.6,1.6,0.9,3.4,0.9,5.4c0,2.1-0.3,4-0.9,5.6c-0.7,1.6-1.5,3-2.7,4.2
			c-1.1,1.1-2.6,2-4.2,2.6c-1.6,0.6-3.4,0.9-5.5,0.9s-4-0.3-5.7-0.9c-1.7-0.7-3-1.5-4.2-2.6c-1.1-1.1-2-2.6-2.6-4.2
			C205.3,80.9,205.1,79.1,205.1,77.1z M211.8,77.1c0,1.1,0.2,2.1,0.5,3c0.3,0.9,0.8,1.8,1.3,2.5c0.6,0.7,1.2,1.2,2.1,1.6
			c0.8,0.4,1.7,0.6,2.7,0.6c1.9,0,3.5-0.7,4.7-1.9c1.2-1.2,1.8-3.2,1.8-5.9c0-2.3-0.6-4.2-1.7-5.6s-2.7-2.2-4.8-2.2
			c-0.9,0-1.8,0.2-2.6,0.5c-0.8,0.3-1.5,0.8-2.1,1.4c-0.6,0.7-1,1.4-1.4,2.4C211.9,74.5,211.8,75.7,211.8,77.1z"/>
	</g>
</g>
</svg>
