<?xml version="1.0" encoding="utf-8"?>
<!-- Generator: Adobe Illustrator 24.2.1, SVG Export Plug-In . SVG Version: 6.00 Build 0)  -->
<svg version="1.1" id="Layer_1" xmlns="http://www.w3.org/2000/svg" xmlns:xlink="http://www.w3.org/1999/xlink" x="0px" y="0px"
	 viewBox="0 0 800 390.3" style="enable-background:new 0 0 800 390.3;" xml:space="preserve">
<style type="text/css">
	.st0{fill:none;}
	.st1{enable-background:new    ;}
	.st2{fill:#FFFFFF;}
</style>
<rect id="Rectangle_146" x="-0.8" y="0" class="st0" width="800" height="390.3"/>
<g>
	<g class="st1">
		<path class="st2" d="M49.9,179.1H36l-2.4,6.1h-3.8l11-27.5H45l11.1,27.5h-3.8L49.9,179.1z M37,176h11.9l-5.9-15.3L37,176z"/>
		<path class="st2" d="M72,182.9c-1.6,1.8-3.9,2.8-6.6,2.8c-3.3,0-7-2.3-7-6.6c0-4.4,3.5-6.5,7-6.5c2.7,0,5,0.9,6.6,2.7v-3.5
			c0-2.7-2.1-4.2-5-4.2c-2.4,0-4.3,0.9-6.1,2.8l-1.4-2.1c2.1-2.2,4.7-3.3,7.9-3.3c4.2,0,7.7,1.9,7.7,6.7v13.7H72
			C72,185.3,72,182.9,72,182.9z M72,177.3c-1.1-1.6-3.3-2.5-5.5-2.5c-2.9,0-4.9,1.8-4.9,4.4c0,2.5,2,4.3,4.9,4.3
			c2.2,0,4.3-0.9,5.5-2.5V177.3z"/>
		<path class="st2" d="M102.6,157.7h12.2c4.8,0,7.7,2.9,7.7,7c0,3.4-2.3,5.7-4.8,6.3c3,0.5,5.4,3.4,5.4,6.8c0,4.4-3,7.4-7.9,7.4
			h-12.5V157.7z M114.3,169.6c3.1,0,4.7-1.9,4.7-4.4s-1.6-4.4-4.7-4.4h-8.2v8.8L114.3,169.6L114.3,169.6z M114.4,182.1
			c3.3,0,5.1-1.8,5.1-4.7c0-2.5-1.7-4.7-5.1-4.7H106v9.5L114.4,182.1L114.4,182.1z"/>
		<path class="st2" d="M128.4,157.7h3.1v10.6c1.6-2.2,4-3.5,6.7-3.5c5.2,0,8.8,4.1,8.8,10.4c0,6.5-3.6,10.4-8.8,10.4
			c-2.8,0-5.3-1.4-6.7-3.4v3h-3.1V157.7z M137.4,182.9c4,0,6.4-3.3,6.4-7.7s-2.4-7.7-6.4-7.7c-2.4,0-4.9,1.4-5.9,3.3v9
			C132.6,181.5,135,182.9,137.4,182.9z"/>
		<path class="st2" d="M172.3,171.4c0-8.4,6.2-14.2,14-14.2c5,0,8.3,2.4,10.5,5.5l-2.9,1.6c-1.5-2.3-4.4-4-7.7-4
			c-5.8,0-10.4,4.6-10.4,11.2c0,6.5,4.6,11.2,10.4,11.2c3.3,0,6.1-1.6,7.7-4l3,1.6c-2.3,3.2-5.5,5.5-10.6,5.5
			C178.5,185.7,172.3,179.9,172.3,171.4z"/>
		<path class="st2" d="M209.9,164.8c3.6,0,5.7,1.4,7.3,3.4l-2,1.9c-1.3-1.8-3-2.6-5.1-2.6c-4.2,0-6.9,3.3-6.9,7.7s2.7,7.7,6.9,7.7
			c2,0,3.7-0.9,5.1-2.6l2,1.9c-1.5,2-3.6,3.4-7.3,3.4c-5.9,0-10-4.5-10-10.4C199.9,169.3,204,164.8,209.9,164.8z"/>
		<path class="st2" d="M242.8,157.7h9.4c8.5,0,14.1,5.9,14.1,13.8c0,7.8-5.5,13.7-14.1,13.7h-9.4V157.7z M252.2,182.1
			c6.7,0,10.5-4.8,10.5-10.6c0-5.9-3.7-10.7-10.5-10.7h-5.9v21.3H252.2z"/>
		<path class="st2" d="M285.9,182.2c-1.4,2-3.9,3.4-6.7,3.4c-5.2,0-8.8-3.9-8.8-10.4c0-6.3,3.6-10.4,8.8-10.4c2.7,0,5.1,1.3,6.7,3.5
			v-10.6h3.1v27.5h-3.1V182.2z M285.9,170.7c-1.1-1.7-3.5-3.3-5.9-3.3c-4,0-6.4,3.3-6.4,7.7c0,4.4,2.4,7.7,6.4,7.7
			c2.5,0,4.9-1.4,5.9-3.2V170.7z"/>
		<path class="st2" d="M316.5,157.7h18v3.1h-14.5v8.8h14.3v3.1h-14.3v9.5h14.5v3.1h-18V157.7z"/>
		<path class="st2" d="M348.5,164.8c6,0,9.6,4.7,9.6,10.6v0.8h-16.1c0.3,3.7,2.9,6.9,7.2,6.9c2.3,0,4.6-0.9,6.1-2.5l1.4,2
			c-2,2-4.7,3.1-7.9,3.1c-5.8,0-10.1-4.2-10.1-10.4C338.6,169.4,342.7,164.8,348.5,164.8z M341.9,174h13c0-3-2-6.6-6.5-6.6
			C344.1,167.3,342,170.9,341.9,174z"/>
		<path class="st2" d="M384.3,157.7h18v3.1h-14.5v8.8H402v3.1h-14.3v12.5h-3.4L384.3,157.7L384.3,157.7z"/>
		<path class="st2" d="M407.7,168h-3.3v-2.7h3.3v-1.5c0-4.1,2.3-6.5,5.7-6.5c1.1,0,2.2,0.2,3,0.7l-0.8,2.3c-0.5-0.3-1.1-0.5-1.7-0.5
			c-2,0-3.2,1.4-3.2,3.9v1.5h4v2.7h-4V185h-3.1L407.7,168L407.7,168z"/>
		<path class="st2" d="M452.8,157.3c4.9,0,8.2,2.1,10.6,5.2l-2.7,1.7c-1.7-2.2-4.7-3.8-7.9-3.8c-6,0-10.6,4.6-10.6,11.2
			c0,6.5,4.6,11.2,10.6,11.2c3.3,0,6-1.6,7.4-3v-5.5h-9.4v-3.1h12.8v10c-2.6,2.9-6.3,4.7-10.8,4.7c-7.8,0-14.1-5.7-14.1-14.3
			C438.7,162.9,445,157.3,452.8,157.3z"/>
		<path class="st2" d="M470.5,188c1.6,2,3.6,2.7,6.5,2.7c3.3,0,6.4-1.6,6.4-5.9v-2.9c-1.4,2-3.8,3.5-6.7,3.5
			c-5.2,0-8.8-3.8-8.8-10.3c0-6.4,3.6-10.3,8.8-10.3c2.7,0,5.1,1.3,6.7,3.5v-3h3.1v19.3c0,6.6-4.6,8.6-9.5,8.6c-3.3,0-5.6-0.7-8-3
			L470.5,188z M483.4,170.7c-1.1-1.7-3.4-3.3-5.9-3.3c-4,0-6.4,3.2-6.4,7.6c0,4.4,2.4,7.6,6.4,7.6c2.5,0,4.9-1.5,5.9-3.3V170.7z"/>
		<path class="st2" d="M533.4,172.6h-16v12.6H514v-27.5h3.4v11.8h16.1v-11.8h3.4v27.5h-3.4L533.4,172.6L533.4,172.6z"/>
		<path class="st2" d="M556.7,172.1c0-3.5-1.8-4.5-4.5-4.5c-2.4,0-4.7,1.4-5.8,3.1v14.5h-3.1v-27.5h3.1v10.4
			c1.4-1.6,4.1-3.3,7.1-3.3c4.1,0,6.3,2,6.3,6.3v14.1h-3.1V172.1z"/>
		<path class="st2" d="M587.2,157.7h3.4v27.5h-3.4V157.7z"/>
		<path class="st2" d="M596.4,159.8c0-1.1,1-2.1,2.1-2.1s2.1,0.9,2.1,2.1c0,1.2-1,2.1-2.1,2.1S596.4,161,596.4,159.8z M597,165.3
			h3.1v19.9H597V165.3z"/>
		<path class="st2" d="M626.5,179.9c1.1,1.4,2.8,2.7,5.2,2.7c3.3,0,5.5-2.4,5.5-5.7v-19.1h3.4v19.1c0,5.9-3.8,8.8-8.7,8.8
			c-3,0-5.3-1-7.2-3.2L626.5,179.9z"/>
		<path class="st2" d="M650.1,187.1c0,3.9-2.1,6.1-5.8,6.1c-0.9,0-1.5-0.1-2.2-0.3l0.4-2.6c0.4,0.2,1,0.2,1.4,0.2
			c1.8,0,3.1-1,3.1-3.4v-21.8h3.1L650.1,187.1L650.1,187.1z M646.4,159.8c0-1.1,1-2.1,2.1-2.1c1.1,0,2.1,0.9,2.1,2.1
			c0,1.2-1,2.1-2.1,2.1C647.4,161.9,646.4,161,646.4,159.8z"/>
		<path class="st2" d="M683.7,172.9L681,176v9.2h-3.4v-27.5h3.4v14.2l12.2-14.2h4.3l-11.5,13l12.4,14.4h-4.2L683.7,172.9z"/>
		<path class="st2" d="M708.5,176.2l-3.3,3.3v5.6h-3.1v-27.5h3.1v18.2l10.4-10.6h3.9l-8.8,9l8.8,10.9h-3.9L708.5,176.2z"/>
		<path class="st2" d="M744.7,157.7h3.4v24.4h12.7v3.1h-16.2L744.7,157.7L744.7,157.7z"/>
		<path class="st2" d="M765.6,157.7h3.1v27.5h-3.1V157.7z"/>
	</g>
	<g class="st1">
		<path class="st2" d="M56.1,233.1L46.8,256h-1.4L36,233.1V256h-3.3v-27.5h4.9l8.5,20.9l8.5-20.9h4.9V256H56L56.1,233.1L56.1,233.1z
			"/>
		<path class="st2" d="M89.8,242.5c0-2.5-1.1-4.1-3.6-4.1c-2.1,0-4.2,1.4-5.3,3.1V256h-3.1v-13.5c0-2.5-1.1-4.1-3.6-4.1
			c-2,0-4.1,1.4-5.3,3.1V256h-3.2v-19.9h3.1v2.9c0.9-1.2,3.5-3.3,6.4-3.3c3.1,0,4.8,1.6,5.4,3.7c1.1-1.8,3.8-3.7,6.7-3.7
			c3.6,0,5.5,2,5.5,6V256h-3.1C89.8,256,89.8,242.5,89.8,242.5z"/>
		<path class="st2" d="M123.8,233.8v22.1h-3.4v-27.5h3.5l15.8,21.7v-21.7h3.4v27.5h-3.3L123.8,233.8z"/>
		<path class="st2" d="M162.8,243c0-3.5-1.7-4.6-4.4-4.6c-2.4,0-4.7,1.4-5.8,3.1V256h-3.1v-19.9h3.1v2.9c1.4-1.6,4.1-3.3,7.1-3.3
			c4.1,0,6.3,2.1,6.3,6.4v14h-3.1L162.8,243L162.8,243z"/>
		<path class="st2" d="M206,228.1c8.1,0,13.6,6.1,13.6,14.2c0,8.1-5.5,14.2-13.6,14.2c-8.1,0-13.6-6.1-13.6-14.2
			C192.3,234.2,197.8,228.1,206,228.1z M206,231.1c-6.2,0-10,4.7-10,11.2c0,6.4,3.9,11.2,10,11.2c6.1,0,10-4.8,10-11.2
			C216,235.8,212.1,231.1,206,231.1z"/>
		<path class="st2" d="M223.7,246.1c0-5.7,3.8-10.4,9.9-10.4s9.9,4.7,9.9,10.4s-3.8,10.4-9.9,10.4S223.7,251.8,223.7,246.1z
			 M240,246.1c0-4-2.4-7.7-6.6-7.7c-4.2,0-6.6,3.6-6.6,7.7c0,4.1,2.4,7.7,6.6,7.7C237.6,253.7,240,250.1,240,246.1z"/>
		<path class="st2" d="M269.7,228.5h11c5.5,0,8.6,3.8,8.6,8.2c0,4.5-3.2,8.2-8.6,8.2h-7.7v10.9h-3.4L269.7,228.5L269.7,228.5z
			 M280.3,231.6h-7.2V242h7.2c3.3,0,5.5-2.1,5.5-5.3C285.8,233.7,283.6,231.6,280.3,231.6z"/>
		<path class="st2" d="M293.7,263.6v-27.5h3.1v3c1.4-2,3.9-3.4,6.7-3.4c5.3,0,8.8,3.9,8.8,10.4c0,6.4-3.6,10.4-8.8,10.4
			c-2.7,0-5.1-1.2-6.7-3.5v10.6L293.7,263.6L293.7,263.6z M302.7,238.4c-2.4,0-4.9,1.4-5.9,3.2v9c1.1,1.7,3.5,3.3,5.9,3.3
			c4,0,6.4-3.3,6.4-7.7C309.1,241.7,306.7,238.4,302.7,238.4z"/>
		<path class="st2" d="M361.1,252.4l2.6,2.8l-2.4,2.1l-2.7-2.9c-2.1,1.3-4.6,2-7.5,2c-8.1,0-13.6-6.1-13.6-14.2
			c0-8.1,5.5-14.2,13.6-14.2c8.1,0,13.6,6.1,13.6,14.2C364.8,246.3,363.5,249.9,361.1,252.4z M356.4,252l-3.9-4.2l2.4-2l3.8,4.1
			c1.6-1.9,2.5-4.6,2.5-7.7c0-6.4-3.9-11.2-10-11.2c-6.2,0-10,4.7-10,11.2c0,6.4,3.9,11.2,10,11.2C353.2,253.4,355,252.9,356.4,252z
			"/>
		<path class="st2" d="M384.4,263.6v-10.6c-1.6,2.2-4,3.5-6.7,3.5c-5.3,0-8.8-4-8.8-10.4c0-6.5,3.6-10.4,8.8-10.4
			c2.8,0,5.3,1.4,6.7,3.4v-3h3.1v27.5L384.4,263.6L384.4,263.6z M384.4,241.6c-1.1-1.7-3.4-3.2-5.9-3.2c-4,0-6.4,3.3-6.4,7.7
			s2.4,7.7,6.4,7.7c2.5,0,4.9-1.4,5.9-3.3V241.6z"/>
		<path class="st2" d="M423.9,245.1h-5.5V256H415v-27.5h11c5,0,8.6,3.3,8.6,8.2c0,5-3.3,7.7-7.1,7.9l7.4,11.2h-4L423.9,245.1z
			 M425.6,231.6h-7.2v10.5h7.2c3.3,0,5.5-2.2,5.5-5.3C431.1,233.7,428.8,231.6,425.6,231.6z"/>
		<path class="st2" d="M439.9,236.1h3.1v3.3c1.6-2.1,3.9-3.6,6.6-3.6v3.2c-0.4-0.1-0.8-0.1-1.2-0.1c-1.9,0-4.5,1.5-5.4,3.2V256h-3.1
			V236.1z"/>
		<path class="st2" d="M475.2,249.5c1.8,2,4.8,3.9,8.6,3.9c4.9,0,6.5-2.7,6.5-4.7c0-3.3-3.3-4.2-7-5.2c-4.4-1.1-9.3-2.4-9.3-7.8
			c0-4.5,4-7.7,9.4-7.7c4.2,0,7.5,1.4,9.8,3.8l-2,2.5c-2.1-2.3-5-3.3-7.9-3.3c-3.3,0-5.6,1.7-5.6,4.4c0,2.8,3.2,3.5,6.7,4.5
			c4.5,1.1,9.6,2.6,9.6,8.3c0,4-2.7,8-10.1,8c-4.8,0-8.2-1.8-10.5-4.4L475.2,249.5z"/>
		<path class="st2" d="M498.7,251.1c1.3,1.5,3.8,2.9,6.5,2.9c3.1,0,4.7-1.3,4.7-3.3c0-2.2-2.4-2.9-5.1-3.5c-3.3-0.8-7.2-1.7-7.2-5.8
			c0-3.1,2.7-5.7,7.4-5.7c3.3,0,5.7,1.2,7.4,2.9l-1.4,2.1c-1.1-1.4-3.3-2.5-5.9-2.5c-2.7,0-4.4,1.2-4.4,3c0,1.9,2.3,2.6,4.9,3.2
			c3.4,0.8,7.5,1.7,7.5,6.2c0,3.3-2.7,6-7.8,6c-3.3,0-6-1-8-3.2L498.7,251.1z"/>
		<path class="st2" d="M546,231.6h-8.7v-3.1h20.9v3.1h-8.7V256H546L546,231.6L546,231.6z"/>
		<path class="st2" d="M563.3,251.8v-13H560v-2.7h3.3v-5.5h3.1v5.5h4v2.7h-4v12.3c0,1.4,0.7,2.6,2,2.6c0.9,0,1.7-0.4,2.1-0.9
			l0.9,2.3c-0.8,0.8-1.9,1.2-3.7,1.2C564.7,256.5,563.3,254.8,563.3,251.8z"/>
		<path class="st2" d="M596.1,228.5h3.4v16.6c0,5,2.7,8.2,7.8,8.2s7.8-3.2,7.8-8.2v-16.7h3.4v16.7c0,6.8-3.7,11.2-11.2,11.2
			c-7.5,0-11.2-4.4-11.2-11.2L596.1,228.5L596.1,228.5z"/>
		<path class="st2" d="M638.2,253.1c-1.5,1.7-4.1,3.3-7.1,3.3c-4.1,0-6.3-2-6.3-6.3V236h3.1v13.1c0,3.5,1.7,4.5,4.4,4.5
			c2.4,0,4.7-1.4,5.8-3V236h3.1v19.9h-3.1L638.2,253.1L638.2,253.1z"/>
		<path class="st2" d="M665.9,228.5h3.9l9.3,23.7l9.3-23.7h3.9L681.3,256H677L665.9,228.5z"/>
		<path class="st2" d="M692.3,236.1h3.3l6.6,16.3l6.6-16.3h3.3l-8.2,19.9h-3.3L692.3,236.1z"/>
	</g>
	<g class="st1">
		<path class="st2" d="M47.6,304.6l-6,22.1h-3.7L30,299.3h3.8l6.1,22.9l6.3-22.9h2.9l6.3,22.9l6-22.9h3.8l-7.8,27.5h-3.7L47.6,304.6
			z"/>
		<path class="st2" d="M80.8,310.8l-5.2,16h-3.1l-6.3-19.9h3.3l4.9,15.9l5.3-15.9h2.7l5.3,15.9l4.9-15.9h3l-6.3,19.9h-3.1
			L80.8,310.8z"/>
		<path class="st2" d="M130.6,315.1l-8.8,11.7h-4.1l10.7-14.1l-10-13.4h4.1l8.1,11l8.1-11h4.1l-10,13.3l10.6,14.1h-4.1L130.6,315.1z
			"/>
		<path class="st2" d="M154,318.7l-5.9,8.1h-3.5l7.7-10.2l-7.2-9.7h3.5l5.5,7.6l5.5-7.6h3.5l-7.2,9.7l7.7,10.2h-3.5L154,318.7z"/>
		<path class="st2" d="M196.4,315.1l-10.8-15.9h4l8.5,12.7l8.5-12.7h4l-10.8,15.9v11.6h-3.4L196.4,315.1L196.4,315.1z"/>
		<path class="st2" d="M212.7,332.1c1.3,0,2.3-0.5,3-2.1l1.3-3l-8.3-20.1h3.3l6.6,16.3l6.6-16.3h3.3l-10,23.9c-1.1,2.9-3.3,4-5.8,4
			c-0.7,0-1.7-0.1-2.3-0.3l0.5-2.8C211.4,332,212.2,332.1,212.7,332.1z"/>
		<path class="st2" d="M251.9,323.9l15.4-21.5h-15.4v-3.1h19.8v2.9l-15.4,21.5H272v3.1h-20.1L251.9,323.9L251.9,323.9z"/>
		<path class="st2" d="M276.1,324.4l10.9-14.7h-10.9V307h15v2.4l-11,14.7h11.2v2.7h-15.1L276.1,324.4L276.1,324.4z"/>
		<path class="st2" d="M335.2,320.7h-13.9l-2.4,6.1h-3.8l11-27.5h4.2l11.1,27.5h-3.8L335.2,320.7z M322.2,317.6h11.9l-5.9-15.3
			L322.2,317.6z M328.2,289.5c2.2,0,4,1.8,4,4.1c0,2.2-1.8,4-4,4s-4-1.8-4-4C324.1,291.3,326,289.5,328.2,289.5z M328.2,291.1
			c-1.3,0-2.4,1.1-2.4,2.4c0,1.3,1.1,2.4,2.4,2.4c1.3,0,2.4-1.1,2.4-2.4C330.6,292.2,329.5,291.1,328.2,291.1z"/>
		<path class="st2" d="M357.3,324.5c-1.6,1.8-3.9,2.8-6.6,2.8c-3.3,0-7-2.3-7-6.6c0-4.4,3.5-6.5,7-6.5c2.7,0,5,0.9,6.6,2.7v-3.5
			c0-2.7-2.1-4.2-5-4.2c-2.4,0-4.3,0.9-6.1,2.8l-1.4-2.1c2.1-2.2,4.7-3.3,7.9-3.3c4.2,0,7.7,1.9,7.7,6.7v13.7h-3.1L357.3,324.5
			L357.3,324.5z M357.3,318.9c-1.1-1.6-3.3-2.5-5.5-2.5c-2.9,0-4.9,1.8-4.9,4.4c0,2.5,2,4.3,4.9,4.3c2.2,0,4.3-0.9,5.5-2.5V318.9z
			 M352.7,296.3c2.2,0,4,1.8,4,4.1c0,2.3-1.8,4-4,4s-4-1.8-4-4C348.6,298.2,350.5,296.3,352.7,296.3z M352.7,298
			c-1.3,0-2.4,1.1-2.4,2.4c0,1.3,1.1,2.4,2.4,2.4c1.3,0,2.4-1.1,2.4-2.4C355.1,299.1,354,298,352.7,298z"/>
		<path class="st2" d="M405.1,320.7h-13.9l-2.4,6.1H385l11-27.5h4.2l11.1,27.5h-3.8L405.1,320.7z M392.1,294.7
			c0-1.1,0.9-1.9,1.9-1.9c1.1,0,1.9,0.9,1.9,1.9c0,1.1-0.9,1.9-1.9,1.9C392.9,296.6,392.1,295.7,392.1,294.7z M392.2,317.6H404
			l-5.9-15.3L392.2,317.6z M400.5,294.7c0-1.1,0.9-1.9,1.9-1.9c1.1,0,1.9,0.9,1.9,1.9c0,1.1-0.9,1.9-1.9,1.9
			C401.4,296.6,400.5,295.7,400.5,294.7z"/>
		<path class="st2" d="M427.2,324.5c-1.6,1.8-3.9,2.8-6.6,2.8c-3.3,0-7-2.3-7-6.6c0-4.4,3.5-6.5,7-6.5c2.7,0,5,0.9,6.6,2.7v-3.5
			c0-2.7-2.1-4.2-5-4.2c-2.4,0-4.3,0.9-6.1,2.8l-1.4-2.1c2.1-2.2,4.7-3.3,7.9-3.3c4.2,0,7.7,1.9,7.7,6.7v13.7h-3.1L427.2,324.5
			L427.2,324.5z M416.5,301.6c0-1.1,0.9-1.9,1.9-1.9c1.1,0,1.9,0.9,1.9,1.9c0,1.1-0.9,1.9-1.9,1.9
			C417.3,303.5,416.5,302.6,416.5,301.6z M427.2,318.9c-1.1-1.6-3.3-2.5-5.5-2.5c-2.9,0-4.9,1.8-4.9,4.4c0,2.5,2,4.3,4.9,4.3
			c2.2,0,4.3-0.9,5.5-2.5V318.9z M425,301.6c0-1.1,0.9-1.9,1.9-1.9s1.9,0.9,1.9,1.9c0,1.1-0.9,1.9-1.9,1.9S425,302.6,425,301.6z"/>
		<path class="st2" d="M470.4,298.9c8.1,0,13.6,6.1,13.6,14.2c0,8.1-5.5,14.2-13.6,14.2c-8.1,0-13.6-6.1-13.6-14.2
			C456.7,305,462.2,298.9,470.4,298.9z M470.4,301.9c-6.2,0-10,4.7-10,11.2c0,6.4,3.9,11.2,10,11.2s10-4.8,10-11.2
			C480.4,306.6,476.5,301.9,470.4,301.9z M464.1,294.7c0-1.1,0.9-1.9,1.9-1.9c1.1,0,1.9,0.9,1.9,1.9c0,1.1-0.9,1.9-1.9,1.9
			S464.1,295.7,464.1,294.7z M472.7,294.7c0-1.1,0.9-1.9,1.9-1.9c1.1,0,1.9,0.9,1.9,1.9c0,1.1-0.9,1.9-1.9,1.9
			C473.5,296.6,472.7,295.7,472.7,294.7z"/>
		<path class="st2" d="M488.1,316.9c0-5.7,3.8-10.4,9.9-10.4c6,0,9.9,4.7,9.9,10.4c0,5.7-3.8,10.4-9.9,10.4
			C491.9,327.3,488.1,322.6,488.1,316.9z M504.4,316.9c0-4-2.4-7.7-6.6-7.7c-4.2,0-6.6,3.6-6.6,7.7c0,4.1,2.4,7.7,6.6,7.7
			C502,324.5,504.4,320.9,504.4,316.9z M491.7,301.6c0-1.1,0.9-1.9,1.9-1.9s1.9,0.9,1.9,1.9c0,1.1-0.9,1.9-1.9,1.9
			S491.7,302.6,491.7,301.6z M500.2,301.6c0-1.1,0.9-1.9,1.9-1.9s1.9,0.9,1.9,1.9c0,1.1-0.9,1.9-1.9,1.9S500.2,302.6,500.2,301.6z"
			/>
	</g>
	<g class="st1">
		<path class="st2" d="M32.8,57.4h15.8c7.4,0,11.4,5,11.4,10.9c0,5.8-4,10.8-11.4,10.8H40v12.2h-7.2V57.4z M47.6,63.6H40V73h7.7
			c2.9,0,5-1.8,5-4.7C52.6,65.4,50.5,63.6,47.6,63.6z"/>
		<path class="st2" d="M64.3,66.7h6.4v3.3c1.7-2.2,4.8-3.9,7.8-3.9v6.3c-0.5-0.1-1.1-0.2-1.8-0.2c-2.1,0-5,1.2-6,2.8v16.2h-6.4V66.7
			z"/>
		<path class="st2" d="M80.9,78.9c0-7,4.9-12.8,12.9-12.8c8.1,0,13,5.8,13,12.8s-4.9,12.9-13,12.9C85.8,91.8,80.9,86,80.9,78.9z
			 M100.1,78.9c0-3.8-2.3-7.1-6.3-7.1c-4,0-6.2,3.3-6.2,7.1s2.2,7.2,6.2,7.2C97.8,86.1,100.1,82.8,100.1,78.9z"/>
		<path class="st2" d="M120,82.9l-5.6,8.2h-7.2l8.7-12.5l-8.1-12h7.2l5.1,7.6l5-7.6h7.2l-8.2,12l8.8,12.5h-7.2L120,82.9z"/>
		<path class="st2" d="M135.4,59.3c0-2.1,1.8-3.8,3.8-3.8c2.1,0,3.8,1.7,3.8,3.8s-1.7,3.8-3.8,3.8C137.1,63.1,135.4,61.4,135.4,59.3
			z M136,66.7h6.4v24.5H136V66.7z"/>
		<path class="st2" d="M179.2,75.7c0-2.3-1.1-3.9-3.6-3.9c-2.3,0-4.1,1.5-5.1,2.9v16.6H164V75.7c0-2.3-1.1-3.9-3.6-3.9
			c-2.2,0-4.1,1.5-5.1,2.9v16.5h-6.4V66.7h6.4v3.2c1.1-1.4,4.3-3.8,8-3.8c3.6,0,5.8,1.6,6.8,4.5c1.4-2.2,4.7-4.5,8.4-4.5
			c4.5,0,7.2,2.4,7.2,7.4v17.7h-6.5L179.2,75.7L179.2,75.7z"/>
		<path class="st2" d="M206.7,88.7c-1.6,2-4.6,3.2-7.8,3.2c-3.9,0-8.5-2.7-8.5-8.1c0-5.7,4.6-7.8,8.5-7.8c3.3,0,6.1,1.1,7.8,3v-3.3
			c0-2.5-2.1-4.1-5.4-4.1c-2.7,0-5.1,1-7.2,2.9l-2.4-4.3c3-2.7,6.9-3.8,10.7-3.8c5.5,0,10.7,2.2,10.7,9.3v15.8h-6.4L206.7,88.7
			L206.7,88.7z M206.7,82.2c-1.1-1.4-3.1-2.1-5.2-2.1c-2.5,0-4.6,1.3-4.6,3.7c0,2.3,2.1,3.6,4.6,3.6c2.1,0,4.1-0.7,5.2-2.1V82.2z"/>
		<path class="st2" d="M239.8,68.5v22.7h-7.2V57.4h7.4l15.7,21.9V57.4h7.2v33.8h-7L239.8,68.5z"/>
		<path class="st2" d="M268,78.9c0-7,4.9-12.8,12.9-12.8c8.1,0,13,5.8,13,12.8s-4.9,12.9-13,12.9S268,86,268,78.9z M287.1,78.9
			c0-3.8-2.3-7.1-6.3-7.1s-6.2,3.3-6.2,7.1s2.2,7.2,6.2,7.2S287.1,82.8,287.1,78.9z"/>
		<path class="st2" d="M295.2,66.7h6.9l6.4,17l6.4-17h7L312,91.2h-7L295.2,66.7z"/>
		<path class="st2" d="M339.4,88.7c-1.6,2-4.6,3.2-7.8,3.2c-3.9,0-8.5-2.7-8.5-8.1c0-5.7,4.6-7.8,8.5-7.8c3.3,0,6.1,1.1,7.8,3v-3.3
			c0-2.5-2.1-4.1-5.4-4.1c-2.7,0-5.1,1-7.2,2.9l-2.4-4.3c3-2.7,6.9-3.8,10.7-3.8c5.5,0,10.7,2.2,10.7,9.3v15.8h-6.4L339.4,88.7
			L339.4,88.7z M339.4,82.2c-1.1-1.4-3.1-2.1-5.2-2.1c-2.6,0-4.6,1.3-4.6,3.7c0,2.3,2.1,3.6,4.6,3.6c2.1,0,4.1-0.7,5.2-2.1V82.2z"/>
	</g>
</g>
</svg>
