<svg xmlns="http://www.w3.org/2000/svg" width="416" height="302" viewBox="0 0 416 302">
  <g id="Group_159" data-name="Group 159" transform="translate(-12228 636)">
    <rect id="Rectangle_44" data-name="Rectangle 44" width="416" height="302" transform="translate(12228 -636)" fill="none"/>
    <g id="Group_151" data-name="Group 151" transform="translate(12035.758 -766.643)">
      <g id="Group_80" data-name="Group 80" transform="translate(292.242 210.643)">
        <path id="Path_146" data-name="Path 146" d="M340.423,212.529v53.7H323.195V246.347H313.6v19.885H296.456v-53.7H313.6v18.277h9.59V212.529Z" transform="translate(-291.515 -211.241)" fill="#fd79a8"/>
        <path id="Path_147" data-name="Path 147" d="M366.008,252.152v14.08H333.8v-53.7H365.45v14.093H350.945v5.964H365.2v13.363H350.945v6.2Z" transform="translate(-279.256 -211.241)" fill="#fd79a8"/>
        <path id="Path_148" data-name="Path 148" d="M394.376,252.152v14.08h-32.69v-53.7h17.866v39.623Z" transform="translate(-270.1 -211.241)" fill="#fd79a8"/>
        <path id="Path_149" data-name="Path 149" d="M421.106,252.152v14.08H388.416v-53.7H406.3v39.623Z" transform="translate(-261.324 -211.241)" fill="#fd79a8"/>
        <path id="Path_150" data-name="Path 150" d="M466.571,228.8a28.221,28.221,0,0,0-15.023-15.023,28.112,28.112,0,0,0-21.89,0A28.22,28.22,0,0,0,414.634,228.8a28.112,28.112,0,0,0,0,21.89,28.22,28.22,0,0,0,15.023,15.023,28.112,28.112,0,0,0,21.89,0,28.22,28.22,0,0,0,15.023-15.023,28.268,28.268,0,0,0,0-21.89ZM440.6,251.023a11.05,11.05,0,0,1-4.383-.89,11.316,11.316,0,0,1-6-6,11.24,11.24,0,0,1,0-8.767,11.308,11.308,0,0,1,2.417-3.586,11.163,11.163,0,0,1,3.586-2.418,11.24,11.24,0,0,1,8.767,0,11.309,11.309,0,0,1,3.586,2.418,11.531,11.531,0,0,1,2.418,3.586,11.24,11.24,0,0,1,0,8.767,11.316,11.316,0,0,1-6,6A11.05,11.05,0,0,1,440.6,251.023Z" transform="translate(-253.445 -211.559)" fill="#fd79a8"/>
        <path id="Path_151" data-name="Path 151" d="M352.735,297.39v20.283a33.987,33.987,0,0,1-5.021,6.8,32.354,32.354,0,0,1-6.535,5.26,31.57,31.57,0,0,1-7.81,3.374,31.82,31.82,0,0,1-38.122-18.171,31.415,31.415,0,0,1-2.511-12.606,32.7,32.7,0,0,1,2.364-12.42,31.766,31.766,0,0,1,6.535-10.188,30.43,30.43,0,0,1,22.143-9.365,33.477,33.477,0,0,1,15.169,3.294,23,23,0,0,1,5.021,3.188l-11.051,15.714a11.239,11.239,0,0,0-4.118-2.232,15.991,15.991,0,0,0-4.835-.784,11.945,11.945,0,0,0-4.835.956,11.467,11.467,0,0,0-3.8,2.657,12.35,12.35,0,0,0-2.51,4.065,14.044,14.044,0,0,0-.917,5.114,13.106,13.106,0,0,0,1.01,5.114,12.248,12.248,0,0,0,2.736,4.065,12.57,12.57,0,0,0,4.065,2.643,13,13,0,0,0,4.981.956,12.163,12.163,0,0,0,5.659-1.315,13.38,13.38,0,0,0,4.383-3.613h-5.473V297.39Z" transform="translate(-292.736 -192.255)" fill="#fd79a8"/>
        <rect id="Rectangle_19" data-name="Rectangle 19" width="20.642" height="60.916" transform="translate(65.021 79.565)" fill="#fd79a8"/>
        <path id="Path_152" data-name="Path 152" d="M402.044,312.291a20.271,20.271,0,0,0,4.1-4.025,23.37,23.37,0,0,0,2.829-5.3,20.922,20.922,0,0,0,1.288-7.757,24.017,24.017,0,0,0-2.059-10.188,20.953,20.953,0,0,0-5.712-7.438,25.2,25.2,0,0,0-8.634-4.569,36.114,36.114,0,0,0-10.812-1.554H362.036v60.916H381.5V316.94l9.125,15.435h22.833Zm-11.237-17.627c0,2.431-.81,4.171-2.417,5.207a10.723,10.723,0,0,1-5.9,1.554h-1V287.9h1a10.723,10.723,0,0,1,5.9,1.554C390,290.493,390.807,292.22,390.807,294.664Z" transform="translate(-269.985 -191.894)" fill="#fd79a8"/>
        <path id="Path_153" data-name="Path 153" d="M439.2,316.395v15.979H402.126V271.459H422.4v44.936Z" transform="translate(-256.823 -191.894)" fill="#fd79a8"/>
        <rect id="Rectangle_20" data-name="Rectangle 20" width="19.539" height="15.249" transform="translate(187.583 125.232)" fill="#fd79a8"/>
        <path id="Path_154" data-name="Path 154" d="M454.3,271.459,451.2,314.389H436.584l-3.108-42.931Z" transform="translate(-246.531 -191.894)" fill="#fd79a8"/>
      </g>
      <g id="Group_81" data-name="Group 81" transform="translate(292.242 210.643)">
        <path id="Path_155" data-name="Path 155" d="M294.262,210.529h17.151v18.277h9.581V210.529h17.231v53.7H320.994V244.346h-9.581v19.887H294.262Zm10.146,47.264V237.422H328.08v20.371h2.093V216.97H328.08v18.519H304.408V216.97h-2.093v40.823Z" transform="translate(-289.31 -209.241)" fill="#7158e2"/>
        <path id="Path_156" data-name="Path 156" d="M331.6,210.529h31.643V224.62H348.753v5.959H363v13.365H348.753v6.2H363.81v14.089H331.6Zm26.249,47.264V255.86h-16.1V238.227h15.3v-1.933h-15.3V218.9h16.1V216.97h-18.2v40.823Z" transform="translate(-277.051 -209.241)" fill="#7158e2"/>
        <path id="Path_157" data-name="Path 157" d="M359.486,210.529h17.875v39.615h14.816v14.089H359.486Zm28.181,47.264V255.86H369.632V216.97h-2.093v40.823Z" transform="translate(-267.897 -209.241)" fill="#7158e2"/>
        <path id="Path_158" data-name="Path 158" d="M386.218,210.529h17.875v39.615h14.816v14.089H386.218ZM414.4,257.793V255.86H396.362V216.97H394.27v40.823Z" transform="translate(-259.121 -209.241)" fill="#7158e2"/>
        <path id="Path_159" data-name="Path 159" d="M410.222,237.74a27.429,27.429,0,0,1,2.214-10.951,28.173,28.173,0,0,1,15.016-15.016,28.188,28.188,0,0,1,21.9,0A28.164,28.164,0,0,1,464.37,226.79a28.185,28.185,0,0,1,0,21.9,28.164,28.164,0,0,1-15.015,15.016,28.188,28.188,0,0,1-21.9,0,28.173,28.173,0,0,1-15.016-15.016A27.424,27.424,0,0,1,410.222,237.74Zm7.569,0a20.06,20.06,0,0,0,1.61,8.011,20.766,20.766,0,0,0,10.992,10.992,20.74,20.74,0,0,0,16.023,0,20.769,20.769,0,0,0,10.99-10.992,20.737,20.737,0,0,0,0-16.022,20.769,20.769,0,0,0-10.99-10.992,20.74,20.74,0,0,0-16.023,0A20.766,20.766,0,0,0,419.4,229.729,20.06,20.06,0,0,0,417.791,237.74ZM438.4,256.259a17.914,17.914,0,0,1-7.206-1.449,18.855,18.855,0,0,1-9.864-9.864,18.64,18.64,0,0,1,0-14.412,18.843,18.843,0,0,1,9.864-9.864,18.641,18.641,0,0,1,14.412,0,18.843,18.843,0,0,1,9.864,9.864,18.641,18.641,0,0,1,0,14.412,18.855,18.855,0,0,1-9.864,9.864A17.914,17.914,0,0,1,438.4,256.259ZM427.131,237.74a10.975,10.975,0,0,0,.885,4.389,11.317,11.317,0,0,0,6,6,11.325,11.325,0,0,0,8.776,0,11.321,11.321,0,0,0,6-6,11.313,11.313,0,0,0,0-8.777,11.321,11.321,0,0,0-6-6,11.325,11.325,0,0,0-8.776,0,11.317,11.317,0,0,0-6,6A10.97,10.97,0,0,0,427.131,237.74Z" transform="translate(-251.24 -209.559)" fill="#7158e2"/>
        <path id="Path_160" data-name="Path 160" d="M330.719,290.551a11.125,11.125,0,0,0-4.108-2.238,16.139,16.139,0,0,0-4.842-.776,11.943,11.943,0,0,0-4.839.959,11.484,11.484,0,0,0-3.791,2.649,12.225,12.225,0,0,0-2.512,4.065,14.1,14.1,0,0,0-.914,5.114,12.966,12.966,0,0,0,1.006,5.114,12.234,12.234,0,0,0,2.739,4.065,12.678,12.678,0,0,0,4.065,2.649,12.922,12.922,0,0,0,4.977.959,12.126,12.126,0,0,0,5.663-1.324,13.512,13.512,0,0,0,4.385-3.608h-5.479V295.392h23.471v20.275a33.6,33.6,0,0,1-5.022,6.8,31.948,31.948,0,0,1-6.53,5.253,31.416,31.416,0,0,1-7.81,3.378,31.815,31.815,0,0,1-40.642-30.778,32.677,32.677,0,0,1,2.375-12.421,31.942,31.942,0,0,1,6.53-10.184,30.556,30.556,0,0,1,9.864-6.849,30.17,30.17,0,0,1,12.284-2.512,34.473,34.473,0,0,1,8.858,1,33.87,33.87,0,0,1,6.3,2.283,23.046,23.046,0,0,1,5.022,3.2Zm.914-11.782a15.082,15.082,0,0,0-2.649-.914,26.267,26.267,0,0,0-3.014-.639,24.772,24.772,0,0,0-3.835-.274,23.432,23.432,0,0,0-9.042,1.736,22.563,22.563,0,0,0-7.307,4.794,22.047,22.047,0,0,0-4.887,7.352,24.554,24.554,0,0,0-1.781,9.5,23.976,23.976,0,0,0,1.828,9.5,21.888,21.888,0,0,0,5.022,7.353,23.509,23.509,0,0,0,7.444,4.8A23.79,23.79,0,0,0,322.5,323.7a22.334,22.334,0,0,0,11.418-2.969,24.292,24.292,0,0,0,8.31-7.9V300.871h-9.681v2.193h7.307V312.2a20.653,20.653,0,0,1-17.354,9.135,21.894,21.894,0,0,1-8.173-1.509,19.962,19.962,0,0,1-11.188-10.958,21.682,21.682,0,0,1-1.644-8.54,22.207,22.207,0,0,1,1.6-8.54,20.131,20.131,0,0,1,4.383-6.667,19.332,19.332,0,0,1,6.53-4.293,21.577,21.577,0,0,1,8.129-1.506,16.885,16.885,0,0,1,3.1.274q1.46.273,2.558.549,1.277.365,2.374.731Z" transform="translate(-290.534 -190.255)" fill="#7158e2"/>
        <path id="Path_161" data-name="Path 161" d="M339.489,269.458h20.642v60.917H339.489ZM351,323.068v-46.3h-2.375v46.3Z" transform="translate(-274.462 -189.894)" fill="#7158e2"/>
        <path id="Path_162" data-name="Path 162" d="M359.841,269.458h21.006a36.2,36.2,0,0,1,10.823,1.553,25.185,25.185,0,0,1,8.63,4.567,20.944,20.944,0,0,1,5.709,7.442,23.96,23.96,0,0,1,2.055,10.183,20.954,20.954,0,0,1-1.279,7.765,23.812,23.812,0,0,1-2.831,5.3,19.8,19.8,0,0,1-4.111,4.019l11.417,20.092H388.427l-9.133-15.433v15.433H359.841Zm19,39.728a32.738,32.738,0,0,0,6.942-.729l8.676,14.611h2.831l-9.132-15.343a17.16,17.16,0,0,0,7.854-5.342,14.409,14.409,0,0,0,2.922-9.362,15.161,15.161,0,0,0-1.553-7.032,14.883,14.883,0,0,0-4.247-5.069,19.046,19.046,0,0,0-6.348-3.106,28.719,28.719,0,0,0-7.946-1.051h-9.863v46.3h2.374V309.186ZM371.348,307V278.957h7.489q8.31,0,13.015,3.653t4.7,10.411q0,6.76-4.7,10.367T378.837,307Zm7.946-7.581h1a10.678,10.678,0,0,0,5.891-1.554q2.419-1.55,2.422-5.206t-2.422-5.206A10.688,10.688,0,0,0,380.3,285.9h-1Z" transform="translate(-267.78 -189.894)" fill="#7158e2"/>
        <path id="Path_163" data-name="Path 163" d="M399.926,269.458H420.2v44.934h16.806v15.983H399.926Zm31.966,53.61v-2.192H411.433V276.764h-2.374v46.3Z" transform="translate(-254.621 -189.894)" fill="#7158e2"/>
        <path id="Path_164" data-name="Path 164" d="M431.278,269.458H452.1L449,312.383H434.384Zm.639,45.666h19.545v15.251H431.917Zm14.065,8.676v-2.1H437.4v2.1Zm-3.2-17.171V276.216h-2.192v30.413Z" transform="translate(-244.328 -189.894)" fill="#7158e2"/>
      </g>
    </g>
  </g>
</svg>
