<svg xmlns="http://www.w3.org/2000/svg" width="2400" height="1600" viewBox="0 0 2400 1600">
  <g id="Group_116" data-name="Group 116" transform="translate(11167 -2376)">
    <rect id="Rectangle_149" data-name="Rectangle 149" width="2400" height="1600" transform="translate(-11167 2376)" fill="none"/>
    <g id="Group_115" data-name="Group 115" transform="translate(-10721.353 2394.387)">
      <g id="Group_64" data-name="Group 64" transform="translate(75.353 592.613)">
        <path id="Path_53" data-name="Path 53" d="M75.353,592.613V970.542H453.282V592.613Zm370.4,370.441H82.84V600.1H445.755Z" transform="translate(-75.353 -592.613)" fill="#fff"/>
        <path id="Path_54" data-name="Path 54" d="M276.078,676.161V753.7H249.853v-9.056q-15.641,11.584-40.337,11.6a81.719,81.719,0,0,1-38.181-9.016,68.433,68.433,0,0,1-27.715-26.264,72.366,72.366,0,0,1-8.742-23.637l14.151-14.151a116.393,116.393,0,0,1-15.719-2.626q-2.881-.646-5.762-1.529c-11.054-3.175-19.992-7.409-26.7-12.544l11.8-26.186a79.124,79.124,0,0,0,22.971,11.368,14.447,14.447,0,0,0,2.117.627,84.047,84.047,0,0,0,24.5,3.685,70.458,70.458,0,0,0,11.878-.9,44.669,44.669,0,0,0-2.43,5.41,56.435,56.435,0,0,0-3.136,19.13c0,1.411,0,2.744.118,4.038q.647,12.7,5.958,21.913a40.713,40.713,0,0,0,16.464,16.229,47.035,47.035,0,0,0,22.5,5.449q18.228,0,30.694-10.271V676.161Z" transform="translate(-0.893 -453.387)" fill="#fff"/>
        <path id="Path_55" data-name="Path 55" d="M276.642,710.155,254.3,730.7c-8.859-9.291-19.247-14.817-31.164-16.425a54.6,54.6,0,0,0-7.683-.509,55.588,55.588,0,0,0-19.091,3.214h-.078a42.285,42.285,0,0,0-7.526,3.8c0-.079-.039-.079-.039-.156a11.14,11.14,0,0,0-3.881-6.351,31.171,31.171,0,0,0-10.78-5.684c-4.194-1.411-9.918-2.9-17.091-4.587-.2-.039-.392-.118-.627-.157a235.7,235.7,0,0,1-28.067-8.153A45.654,45.654,0,0,1,109.453,682.6c-5.214-6-7.84-14.034-7.84-24.03a42.052,42.052,0,0,1,7.1-23.716c4.743-7.095,11.838-12.7,21.364-16.856s21.129-6.233,34.849-6.233a114.38,114.38,0,0,1,28.146,3.449,82.846,82.846,0,0,1,24.03,9.879l-10.7,26.382q-20.815-11.759-41.67-11.8c-9.722,0-16.935,1.568-21.56,4.743-4.665,3.136-6.978,7.252-6.978,12.427,0,5.135,2.7,8.977,8.036,11.485,5.37,2.509,13.563,5.018,24.579,7.409a251.009,251.009,0,0,1,28.146,8.153c.98.392,1.921.784,2.862,1.216a46.282,46.282,0,0,1,15.876,11.642,2.274,2.274,0,0,1,.392.47l12.113-12.112a87.707,87.707,0,0,1,21.4,5.684A71.422,71.422,0,0,1,276.642,710.155Z" transform="translate(1.327 -536.695)" fill="#fff"/>
      </g>
      <g id="Group_65" data-name="Group 65" transform="translate(531.937 665.509)">
        <path id="Path_56" data-name="Path 56" d="M209.509,708.716q-10.772-3.135-17.307-8.135l7.648-16.954A51.918,51.918,0,0,0,214.719,691a56.083,56.083,0,0,0,17.24,2.775q9.584,0,14.179-2.849t4.587-7.574a7.233,7.233,0,0,0-2.717-5.77,20.647,20.647,0,0,0-6.946-3.681q-4.239-1.393-11.466-3.058a157.489,157.489,0,0,1-18.208-5.284,29.572,29.572,0,0,1-12.164-8.479q-5.074-5.832-5.072-15.57a27.1,27.1,0,0,1,4.586-15.354q4.587-6.88,13.834-10.91t22.583-4.033a74.82,74.82,0,0,1,18.208,2.223,53.776,53.776,0,0,1,15.566,6.4l-6.95,17.091q-13.483-7.632-26.962-7.64-9.461,0-13.971,3.054a9.343,9.343,0,0,0-4.516,8.067q0,5,5.214,7.436t15.908,4.795a159.374,159.374,0,0,1,18.212,5.276,30.225,30.225,0,0,1,12.16,8.341q5.074,5.7,5.072,15.429a26.56,26.56,0,0,1-4.653,15.222q-4.657,6.879-13.971,10.909t-22.654,4.034A79.558,79.558,0,0,1,209.509,708.716Z" transform="translate(-190.736 -611.209)" fill="#fff"/>
        <path id="Path_57" data-name="Path 57" d="M216.773,611.648h22.5v97.244h-22.5Z" transform="translate(-118.988 -609.927)" fill="#fff"/>
        <path id="Path_58" data-name="Path 58" d="M316.89,708.892l-.141-58.346L288.136,698.61H278L249.516,651.8v57.1H228.4V611.648h18.612l36.393,60.431,35.845-60.431h18.471L338,708.892Z" transform="translate(-85.029 -609.927)" fill="#fff"/>
        <path id="Path_59" data-name="Path 59" d="M286.632,705.309a48.448,48.448,0,0,1-19.043-18,51.724,51.724,0,0,1,0-51.564,48.476,48.476,0,0,1,19.043-18,60.194,60.194,0,0,1,54.551,0,49.623,49.623,0,0,1,0,87.565,60.188,60.188,0,0,1-54.551,0ZM329.513,688.7a28.449,28.449,0,0,0,10.909-11.051,34.808,34.808,0,0,0,0-32.246,28.457,28.457,0,0,0-10.909-11.051,32.562,32.562,0,0,0-31.137,0A28.389,28.389,0,0,0,287.463,645.4a34.807,34.807,0,0,0,0,32.246A28.381,28.381,0,0,0,298.376,688.7a32.588,32.588,0,0,0,31.137,0Z" transform="translate(9.294 -611.209)" fill="#fff"/>
        <path id="Path_60" data-name="Path 60" d="M381.374,611.648v97.244H362.9l-48.487-59.04v59.04H292.19V611.648H310.8l48.345,59.04v-59.04Z" transform="translate(101.231 -609.927)" fill="#fff"/>
        <path id="Path_61" data-name="Path 61" d="M336.2,708.716q-10.778-3.135-17.307-8.135l7.644-16.954A52.068,52.068,0,0,0,341.41,691a56,56,0,0,0,17.224,2.775c6.405,0,11.121-.948,14.186-2.849s4.583-4.422,4.583-7.574a7.258,7.258,0,0,0-2.705-5.77,20.708,20.708,0,0,0-6.958-3.681q-4.24-1.393-11.458-3.058a157.487,157.487,0,0,1-18.208-5.284,29.507,29.507,0,0,1-12.16-8.479q-5.092-5.832-5.08-15.57a27.019,27.019,0,0,1,4.594-15.354q4.58-6.88,13.822-10.91t22.587-4.033a74.9,74.9,0,0,1,18.213,2.223,53.752,53.752,0,0,1,15.563,6.4l-6.942,17.091q-13.489-7.632-26.97-7.64-9.449,0-13.967,3.054a9.351,9.351,0,0,0-4.524,8.067q0,5,5.214,7.436t15.915,4.795a159.04,159.04,0,0,1,18.208,5.276,30.17,30.17,0,0,1,12.16,8.341q5.074,5.7,5.08,15.429a26.6,26.6,0,0,1-4.661,15.222q-4.663,6.879-13.967,10.909-9.32,4.028-22.658,4.034A79.57,79.57,0,0,1,336.2,708.716Z" transform="translate(179.192 -611.209)" fill="#fff"/>
        <path id="Path_62" data-name="Path 62" d="M360.22,708.716q-10.772-3.135-17.307-8.135l7.648-16.954A52.063,52.063,0,0,0,365.438,691a55.965,55.965,0,0,0,17.224,2.775q9.6,0,14.187-2.849t4.578-7.574a7.265,7.265,0,0,0-2.7-5.77,20.751,20.751,0,0,0-6.958-3.681q-4.24-1.393-11.458-3.058a157.584,157.584,0,0,1-18.213-5.284,29.558,29.558,0,0,1-12.16-8.479q-5.086-5.832-5.076-15.57a27.019,27.019,0,0,1,4.59-15.354q4.58-6.88,13.822-10.91t22.591-4.033a74.9,74.9,0,0,1,18.213,2.223,53.751,53.751,0,0,1,15.563,6.4l-6.946,17.091q-13.488-7.632-26.966-7.64-9.449,0-13.967,3.054a9.355,9.355,0,0,0-4.527,8.067q0,5,5.217,7.436t15.915,4.795a159.3,159.3,0,0,1,18.208,5.276,30.228,30.228,0,0,1,12.16,8.341q5.074,5.7,5.08,15.429a26.6,26.6,0,0,1-4.661,15.222q-4.669,6.879-13.971,10.909t-22.653,4.034A79.6,79.6,0,0,1,360.22,708.716Z" transform="translate(249.342 -611.209)" fill="#fff"/>
        <path id="Path_63" data-name="Path 63" d="M393.251,705.309a48.511,48.511,0,0,1-19.047-18,51.775,51.775,0,0,1,0-51.564,48.539,48.539,0,0,1,19.047-18,60.2,60.2,0,0,1,54.555,0,49.627,49.627,0,0,1,0,87.565,60.2,60.2,0,0,1-54.555,0ZM436.132,688.7a28.387,28.387,0,0,0,10.905-11.051,34.717,34.717,0,0,0,0-32.246,28.4,28.4,0,0,0-10.905-11.051,32.562,32.562,0,0,0-31.137,0A28.4,28.4,0,0,0,394.09,645.4a34.717,34.717,0,0,0,0,32.246A28.388,28.388,0,0,0,405,688.7a32.589,32.589,0,0,0,31.137,0Z" transform="translate(320.635 -611.209)" fill="#fff"/>
        <path id="Path_64" data-name="Path 64" d="M488,611.648v97.244H469.517l-48.479-59.04v59.04H398.812V611.648h18.616l48.345,59.04v-59.04Z" transform="translate(412.568 -609.927)" fill="#fff"/>
        <path id="Path_65" data-name="Path 65" d="M267.163,694.242H280.5v49.2H268.268v-6.531q-10.7,7.644-27.1,7.648a52.733,52.733,0,0,1-24.535-5.844,44.59,44.59,0,0,1-18.063-17.025q-6.745-11.19-6.743-26.479a49.787,49.787,0,0,1,6.743-25.848A47.64,47.64,0,0,1,217.195,651.5a55.072,55.072,0,0,1,26.758-6.464,56.5,56.5,0,0,1,21.192,3.822,43.382,43.382,0,0,1,16.2,11.188l-8.62,8.62a39.179,39.179,0,0,0-28.216-11.259,40.614,40.614,0,0,0-19.949,4.869,35.481,35.481,0,0,0-13.826,13.477,38.058,38.058,0,0,0-5.006,19.459q0,11.543,5.073,20.016a33.709,33.709,0,0,0,13.414,12.857,38.318,38.318,0,0,0,18.071,4.375,39.408,39.408,0,0,0,13.273-2.29,35.78,35.78,0,0,0,11.607-6.742Z" transform="translate(-191.828 -512.428)" fill="#fff"/>
        <path id="Path_66" data-name="Path 66" d="M286.273,742.617l-20.988-29.883c-2.6.185-4.634.274-6.115.274H235.12v29.608h-13.9V645.322h37.95q18.9,0,29.745,9.032t10.839,24.881q0,11.26-5.558,19.184a31.369,31.369,0,0,1-15.849,11.536l23.077,32.662ZM278.907,695.5q6.95-5.7,6.946-16.268t-6.946-16.19q-6.956-5.628-20.157-5.629H235.12v43.779h23.63Q271.951,701.194,278.907,695.5Z" transform="translate(-106.003 -511.598)" fill="#fff"/>
        <path id="Path_67" data-name="Path 67" d="M246.784,700.627V645.335h13.892v54.735c0,21.532,9.863,31.254,27.366,31.254s27.507-9.722,27.507-31.254V645.335h13.477v55.292c0,28.2-15.425,43.061-41.125,43.061C262.343,743.688,246.784,728.824,246.784,700.627Z" transform="translate(-31.356 -511.56)" fill="#fff"/>
        <path id="Path_68" data-name="Path 68" d="M342.735,654.354q10.843,9.038,10.843,24.881t-10.843,24.88q-10.843,9.044-29.741,9.036H288.945v29.467h-13.9V645.322h37.95Q331.892,645.322,342.735,654.354Zm-10,41.073q6.95-5.626,6.946-16.193t-6.946-16.19q-6.956-5.628-20.157-5.629h-23.63v43.646h23.63Q325.775,701.061,332.731,695.427Z" transform="translate(51.164 -511.598)" fill="#fff"/>
        <path id="Path_69" data-name="Path 69" d="M367.976,654.354q10.842,9.038,10.851,24.881t-10.851,24.88q-10.825,9.044-29.737,9.036H314.193v29.467h-13.9V645.322h37.95Q357.143,645.322,367.976,654.354Zm-10,41.073q6.938-5.626,6.942-16.193t-6.942-16.19q-6.962-5.628-20.157-5.629h-23.63v43.646h23.63Q351.018,701.061,357.98,695.427Z" transform="translate(124.88 -511.598)" fill="#fff"/>
        <path id="Path_70" data-name="Path 70" d="M396.45,730.494v12.086H325.89V645.335H394.5v12.089H339.779v29.867h48.753V699.1H339.779v31.4Z" transform="translate(199.635 -511.56)" fill="#fff"/>
        <path id="Path_71" data-name="Path 71" d="M433.272,645.335v97.244H421.88l-58.341-72.516v72.516H349.646V645.335h11.392l58.346,72.521V645.335Z" transform="translate(269.003 -511.56)" fill="#fff"/>
      </g>
    </g>
  </g>
</svg>
