<svg xmlns="http://www.w3.org/2000/svg" width="243" height="91" viewBox="0 0 243 91">
  <g id="Group_110" data-name="Group 110" transform="translate(10309 -1574)">
    <rect id="Rectangle_145" data-name="Rectangle 145" width="243" height="91" transform="translate(-10309 1574)" fill="none"/>
    <g id="Group_105" data-name="Group 105" transform="translate(-10293 1590)">
      <g id="Group_64" data-name="Group 64" transform="translate(0 0)">
        <path id="Path_53" data-name="Path 53" d="M75.353,592.613V651.3h58.691V592.613Zm57.522,57.528H76.516V593.776h56.36Z" transform="translate(-75.353 -592.613)" fill="#fff"/>
        <path id="Path_54" data-name="Path 54" d="M128.065,645.863V657.9h-4.073V656.5a10.256,10.256,0,0,1-6.264,1.8,12.692,12.692,0,0,1-5.929-1.4,10.627,10.627,0,0,1-4.3-4.079,11.239,11.239,0,0,1-1.358-3.671l2.2-2.2a18.087,18.087,0,0,1-2.441-.408q-.447-.1-.895-.237a12.454,12.454,0,0,1-4.146-1.948l1.832-4.067a12.283,12.283,0,0,0,3.567,1.765,2.236,2.236,0,0,0,.329.1,13.05,13.05,0,0,0,3.8.572,10.932,10.932,0,0,0,1.845-.14,6.931,6.931,0,0,0-.377.84,8.764,8.764,0,0,0-.487,2.971c0,.219,0,.426.018.627a7.514,7.514,0,0,0,.925,3.4,6.323,6.323,0,0,0,2.557,2.52,7.8,7.8,0,0,0,8.261-.749v-6.337Z" transform="translate(-85.329 -611.267)" fill="#fff"/>
        <path id="Path_55" data-name="Path 55" d="M128.794,627.043l-3.47,3.19a8.049,8.049,0,0,0-4.84-2.551,8.475,8.475,0,0,0-1.193-.079,8.633,8.633,0,0,0-2.965.5h-.012a6.561,6.561,0,0,0-1.169.591c0-.012-.006-.012-.006-.024a1.729,1.729,0,0,0-.6-.986,4.839,4.839,0,0,0-1.674-.883c-.651-.219-1.54-.45-2.654-.712-.03-.006-.061-.018-.1-.024a36.611,36.611,0,0,1-4.359-1.266,7.09,7.09,0,0,1-2.922-2.033,5.5,5.5,0,0,1-1.218-3.732,6.53,6.53,0,0,1,1.1-3.683,7.407,7.407,0,0,1,3.318-2.618,13.508,13.508,0,0,1,5.412-.968,17.761,17.761,0,0,1,4.371.536,12.869,12.869,0,0,1,3.732,1.534l-1.662,4.1a13.074,13.074,0,0,0-6.471-1.832,6.013,6.013,0,0,0-3.348.737,2.222,2.222,0,0,0-1.084,1.93,1.9,1.9,0,0,0,1.248,1.784,19.149,19.149,0,0,0,3.817,1.151,38.982,38.982,0,0,1,4.371,1.266c.152.061.3.122.444.189a7.188,7.188,0,0,1,2.465,1.808.354.354,0,0,1,.061.073l1.881-1.881a13.625,13.625,0,0,1,3.324.883A11.091,11.091,0,0,1,128.794,627.043Z" transform="translate(-85.627 -600.105)" fill="#fff"/>
      </g>
      <g id="Group_65" data-name="Group 65" transform="translate(70.906 11.321)">
        <path id="Path_56" data-name="Path 56" d="M194.89,626.352a8.139,8.139,0,0,1-2.688-1.263l1.188-2.633A8.064,8.064,0,0,0,195.7,623.6a8.713,8.713,0,0,0,2.677.431,4.277,4.277,0,0,0,2.2-.443,1.337,1.337,0,0,0,.712-1.176,1.123,1.123,0,0,0-.422-.9,3.206,3.206,0,0,0-1.079-.572q-.658-.216-1.781-.475a24.466,24.466,0,0,1-2.828-.821,4.594,4.594,0,0,1-1.889-1.317,3.555,3.555,0,0,1-.788-2.418,4.21,4.21,0,0,1,.712-2.385,4.788,4.788,0,0,1,2.148-1.694,8.763,8.763,0,0,1,3.507-.626,11.624,11.624,0,0,1,2.828.345,8.354,8.354,0,0,1,2.417.994l-1.079,2.654a8.436,8.436,0,0,0-4.187-1.187,3.931,3.931,0,0,0-2.17.474,1.451,1.451,0,0,0-.7,1.253,1.224,1.224,0,0,0,.81,1.155,12.687,12.687,0,0,0,2.47.745,24.726,24.726,0,0,1,2.828.82,4.693,4.693,0,0,1,1.888,1.3,3.472,3.472,0,0,1,.788,2.4,4.124,4.124,0,0,1-.723,2.364,4.855,4.855,0,0,1-2.17,1.694,8.848,8.848,0,0,1-3.518.626A12.354,12.354,0,0,1,194.89,626.352Z" transform="translate(-191.974 -611.209)" fill="#fff"/>
        <path id="Path_57" data-name="Path 57" d="M216.773,611.648h3.494v15.1h-3.494Z" transform="translate(-201.587 -611.381)" fill="#fff"/>
        <path id="Path_58" data-name="Path 58" d="M242.145,626.75l-.022-9.061-4.443,7.464H236.1l-4.423-7.27v8.867H228.4v-15.1h2.89l5.652,9.385,5.567-9.385h2.869l.043,15.1Z" transform="translate(-206.137 -611.381)" fill="#fff"/>
        <path id="Path_59" data-name="Path 59" d="M264.731,625.823a7.524,7.524,0,0,1-2.957-2.8,8.033,8.033,0,0,1,0-8.008,7.53,7.53,0,0,1,2.957-2.8,9.348,9.348,0,0,1,8.472,0,7.706,7.706,0,0,1,0,13.6,9.348,9.348,0,0,1-8.472,0Zm6.659-2.579a4.418,4.418,0,0,0,1.694-1.716,5.406,5.406,0,0,0,0-5.008,4.419,4.419,0,0,0-1.694-1.716,5.056,5.056,0,0,0-4.835,0,4.408,4.408,0,0,0-1.695,1.716,5.405,5.405,0,0,0,0,5.008,4.407,4.407,0,0,0,1.695,1.716,5.061,5.061,0,0,0,4.835,0Z" transform="translate(-218.775 -611.209)" fill="#fff"/>
        <path id="Path_60" data-name="Path 60" d="M306.04,611.648v15.1h-2.869l-7.53-9.169v9.169H292.19v-15.1h2.89l7.508,9.169v-9.169Z" transform="translate(-231.093 -611.381)" fill="#fff"/>
        <path id="Path_61" data-name="Path 61" d="M321.577,626.352a8.134,8.134,0,0,1-2.688-1.263l1.187-2.633a8.088,8.088,0,0,0,2.31,1.145,8.7,8.7,0,0,0,2.675.431,4.277,4.277,0,0,0,2.2-.443,1.336,1.336,0,0,0,.712-1.176,1.127,1.127,0,0,0-.42-.9,3.215,3.215,0,0,0-1.081-.572q-.658-.216-1.779-.475a24.461,24.461,0,0,1-2.828-.821,4.583,4.583,0,0,1-1.888-1.317,3.546,3.546,0,0,1-.789-2.418,4.2,4.2,0,0,1,.713-2.385,4.779,4.779,0,0,1,2.147-1.694,8.773,8.773,0,0,1,3.508-.626,11.636,11.636,0,0,1,2.828.345,8.352,8.352,0,0,1,2.417.994l-1.078,2.654a8.444,8.444,0,0,0-4.188-1.187,3.93,3.93,0,0,0-2.169.474,1.452,1.452,0,0,0-.7,1.253,1.225,1.225,0,0,0,.81,1.155,12.679,12.679,0,0,0,2.472.745,24.667,24.667,0,0,1,2.828.82,4.684,4.684,0,0,1,1.888,1.3,3.473,3.473,0,0,1,.789,2.4,4.13,4.13,0,0,1-.724,2.364,4.857,4.857,0,0,1-2.169,1.694,8.849,8.849,0,0,1-3.519.626A12.356,12.356,0,0,1,321.577,626.352Z" transform="translate(-241.539 -611.209)" fill="#fff"/>
        <path id="Path_62" data-name="Path 62" d="M345.6,626.352a8.14,8.14,0,0,1-2.688-1.263l1.188-2.633a8.086,8.086,0,0,0,2.31,1.145,8.7,8.7,0,0,0,2.675.431,4.279,4.279,0,0,0,2.2-.443,1.336,1.336,0,0,0,.711-1.176,1.128,1.128,0,0,0-.419-.9,3.222,3.222,0,0,0-1.081-.572q-.658-.216-1.779-.475a24.488,24.488,0,0,1-2.828-.821A4.592,4.592,0,0,1,344,618.332a3.549,3.549,0,0,1-.788-2.418,4.2,4.2,0,0,1,.713-2.385,4.782,4.782,0,0,1,2.146-1.694,8.778,8.778,0,0,1,3.508-.626,11.636,11.636,0,0,1,2.828.345,8.35,8.35,0,0,1,2.417.994L353.75,615.2a8.443,8.443,0,0,0-4.188-1.187,3.931,3.931,0,0,0-2.169.474,1.453,1.453,0,0,0-.7,1.253,1.225,1.225,0,0,0,.81,1.155,12.665,12.665,0,0,0,2.472.745,24.71,24.71,0,0,1,2.828.82,4.693,4.693,0,0,1,1.888,1.3,3.473,3.473,0,0,1,.789,2.4,4.13,4.13,0,0,1-.724,2.364,4.862,4.862,0,0,1-2.17,1.694,8.846,8.846,0,0,1-3.518.626A12.361,12.361,0,0,1,345.6,626.352Z" transform="translate(-250.938 -611.209)" fill="#fff"/>
        <path id="Path_63" data-name="Path 63" d="M371.354,625.823a7.533,7.533,0,0,1-2.958-2.8,8.04,8.04,0,0,1,0-8.008,7.539,7.539,0,0,1,2.958-2.8,9.349,9.349,0,0,1,8.472,0,7.707,7.707,0,0,1,0,13.6,9.349,9.349,0,0,1-8.472,0Zm6.659-2.579a4.408,4.408,0,0,0,1.694-1.716,5.392,5.392,0,0,0,0-5.008,4.41,4.41,0,0,0-1.694-1.716,5.056,5.056,0,0,0-4.835,0,4.409,4.409,0,0,0-1.694,1.716,5.391,5.391,0,0,0,0,5.008,4.408,4.408,0,0,0,1.694,1.716,5.061,5.061,0,0,0,4.835,0Z" transform="translate(-260.49 -611.209)" fill="#fff"/>
        <path id="Path_64" data-name="Path 64" d="M412.663,611.648v15.1h-2.87l-7.529-9.169v9.169h-3.452v-15.1H401.7l7.508,9.169v-9.169Z" transform="translate(-272.807 -611.381)" fill="#fff"/>
        <path id="Path_65" data-name="Path 65" d="M203.527,652.679H205.6v7.641h-1.9v-1.014a7.062,7.062,0,0,1-4.208,1.188,8.19,8.19,0,0,1-3.81-.908,6.924,6.924,0,0,1-2.805-2.644,7.811,7.811,0,0,1-1.047-4.112,7.732,7.732,0,0,1,1.047-4.014,7.4,7.4,0,0,1,2.892-2.774,8.553,8.553,0,0,1,4.155-1,8.772,8.772,0,0,1,3.291.594,6.738,6.738,0,0,1,2.515,1.737l-1.339,1.339a6.085,6.085,0,0,0-4.382-1.748,6.308,6.308,0,0,0-3.1.756,5.511,5.511,0,0,0-2.147,2.093,6.393,6.393,0,0,0,.01,6.13,5.235,5.235,0,0,0,2.083,2,5.952,5.952,0,0,0,2.806.679,6.124,6.124,0,0,0,2.061-.355,5.558,5.558,0,0,0,1.8-1.047Z" transform="translate(-191.828 -624.444)" fill="#fff"/>
        <path id="Path_66" data-name="Path 66" d="M231.322,660.432l-3.259-4.641c-.4.029-.72.043-.95.043h-3.735v4.6H221.22v-15.11h5.893a7,7,0,0,1,4.619,1.4,4.762,4.762,0,0,1,1.683,3.864,5.057,5.057,0,0,1-.863,2.979,4.871,4.871,0,0,1-2.461,1.792l3.584,5.072Zm-1.144-7.317a3.081,3.081,0,0,0,1.079-2.526,3.048,3.048,0,0,0-1.079-2.514,4.875,4.875,0,0,0-3.13-.874h-3.67V654h3.67A4.833,4.833,0,0,0,230.179,653.115Z" transform="translate(-203.327 -624.555)" fill="#fff"/>
        <path id="Path_67" data-name="Path 67" d="M246.784,653.922v-8.587h2.158v8.5c0,3.344,1.532,4.854,4.25,4.854s4.272-1.51,4.272-4.854v-8.5h2.093v8.587c0,4.379-2.4,6.687-6.387,6.687C249.2,660.609,246.784,658.3,246.784,653.922Z" transform="translate(-213.329 -624.56)" fill="#fff"/>
        <path id="Path_68" data-name="Path 68" d="M285.556,646.725a5.275,5.275,0,0,1,0,7.728,6.994,6.994,0,0,1-4.619,1.4H277.2v4.576h-2.159v-15.11h5.893A7,7,0,0,1,285.556,646.725ZM284,653.1a3.47,3.47,0,0,0,0-5.029,4.875,4.875,0,0,0-3.13-.874H277.2v6.778h3.67A4.872,4.872,0,0,0,284,653.1Z" transform="translate(-224.385 -624.555)" fill="#fff"/>
        <path id="Path_69" data-name="Path 69" d="M310.8,646.725a5.272,5.272,0,0,1,0,7.728,6.988,6.988,0,0,1-4.618,1.4h-3.734v4.576h-2.159v-15.11h5.893A7,7,0,0,1,310.8,646.725Zm-1.552,6.379a3.471,3.471,0,0,0,0-5.029,4.877,4.877,0,0,0-3.13-.874h-3.67v6.778h3.67A4.875,4.875,0,0,0,309.248,653.1Z" transform="translate(-234.262 -624.555)" fill="#fff"/>
        <path id="Path_70" data-name="Path 70" d="M336.848,658.56v1.877H325.89v-15.1h10.655v1.877h-8.5v4.638h7.571v1.833h-7.571v4.876Z" transform="translate(-244.278 -624.56)" fill="#fff"/>
        <path id="Path_71" data-name="Path 71" d="M362.633,645.335v15.1h-1.769l-9.06-11.261v11.261h-2.158v-15.1h1.769l9.061,11.262V645.335Z" transform="translate(-253.572 -624.56)" fill="#fff"/>
      </g>
    </g>
  </g>
</svg>
