<svg xmlns="http://www.w3.org/2000/svg" width="1200" height="750" viewBox="0 0 1200 750">
  <g id="Group_116" data-name="Group 116" transform="translate(8983 -3700)">
    <rect id="reflection-of-trees-on-body-of-water-2176729" width="1200" height="750" rx="2" transform="translate(-8983 3700)" fill="none"/>
    <g id="Group_111" data-name="Group 111" transform="translate(-8812 3956)">
      <g id="Group_64" data-name="Group 64" transform="translate(0)">
        <path id="Path_53" data-name="Path 53" d="M75.353,592.613V831.446H314.186V592.613Zm234.077,234.1H80.085V597.345H309.43Z" transform="translate(-75.353 -592.613)" fill="#c68305"/>
        <path id="Path_54" data-name="Path 54" d="M211.587,662.96v49H195.014v-5.723q-9.884,7.321-25.491,7.333a51.643,51.643,0,0,1-24.129-5.7,43.246,43.246,0,0,1-17.514-16.6,45.727,45.727,0,0,1-5.524-14.938l8.943-8.943a73.53,73.53,0,0,1-9.934-1.66q-1.821-.408-3.642-.966c-6.986-2.007-12.634-4.682-16.87-7.927l7.457-16.548a50,50,0,0,0,14.517,7.184,9.115,9.115,0,0,0,1.338.4,53.11,53.11,0,0,0,15.483,2.329,44.524,44.524,0,0,0,7.506-.57,28.241,28.241,0,0,0-1.536,3.419,35.663,35.663,0,0,0-1.982,12.089c0,.892,0,1.734.074,2.552a30.576,30.576,0,0,0,3.765,13.848,25.728,25.728,0,0,0,10.4,10.256,29.723,29.723,0,0,0,14.22,3.444q11.519,0,19.4-6.491V662.96Z" transform="translate(-37.683 -522.177)" fill="#c68305"/>
        <path id="Path_55" data-name="Path 55" d="M212.223,673.942,198.1,686.923a32.756,32.756,0,0,0-19.694-10.38,34.473,34.473,0,0,0-4.855-.322,35.126,35.126,0,0,0-12.064,2.031h-.05a26.714,26.714,0,0,0-4.756,2.4c0-.05-.025-.05-.025-.1a7.039,7.039,0,0,0-2.453-4.013,19.7,19.7,0,0,0-6.812-3.592c-2.651-.892-6.267-1.833-10.8-2.9-.124-.025-.248-.074-.4-.1a148.934,148.934,0,0,1-17.737-5.152,28.847,28.847,0,0,1-11.891-8.274c-3.295-3.791-4.955-8.869-4.955-15.186a26.575,26.575,0,0,1,4.484-14.988c3-4.484,7.481-8.026,13.5-10.652s13.352-3.939,22.023-3.939a72.285,72.285,0,0,1,17.787,2.18,52.359,52.359,0,0,1,15.186,6.243l-6.763,16.672q-13.154-7.431-26.333-7.456c-6.144,0-10.7.991-13.625,3a9.042,9.042,0,0,0-4.41,7.853c0,3.245,1.709,5.673,5.078,7.258,3.394,1.585,8.571,3.171,15.532,4.682a158.528,158.528,0,0,1,17.787,5.152c.619.248,1.214.5,1.808.768A29.248,29.248,0,0,1,173.7,665.47a1.439,1.439,0,0,1,.248.3l7.655-7.655A55.429,55.429,0,0,1,195.13,661.7,45.137,45.137,0,0,1,212.223,673.942Z" transform="translate(-36.56 -564.324)" fill="#c68305"/>
      </g>
      <g id="Group_65" data-name="Group 65" transform="translate(288.539 46.067)">
        <path id="Path_56" data-name="Path 56" d="M203.139,672.829a33.13,33.13,0,0,1-10.937-5.141l4.833-10.714a32.817,32.817,0,0,0,9.4,4.657,35.443,35.443,0,0,0,10.9,1.754q6.057,0,8.96-1.8a5.442,5.442,0,0,0,2.9-4.786,4.571,4.571,0,0,0-1.717-3.647,13.047,13.047,0,0,0-4.39-2.326q-2.679-.88-7.246-1.932a99.487,99.487,0,0,1-11.507-3.339,18.687,18.687,0,0,1-7.687-5.359q-3.207-3.686-3.206-9.84a17.129,17.129,0,0,1,2.9-9.7,19.482,19.482,0,0,1,8.742-6.894,35.658,35.658,0,0,1,14.271-2.549,47.281,47.281,0,0,1,11.507,1.4,33.98,33.98,0,0,1,9.837,4.043l-4.392,10.8a34.328,34.328,0,0,0-17.039-4.828q-5.979,0-8.829,1.93a5.9,5.9,0,0,0-2.854,5.1q0,3.162,3.295,4.7a51.66,51.66,0,0,0,10.053,3.03,100.691,100.691,0,0,1,11.509,3.335,19.1,19.1,0,0,1,7.685,5.271q3.207,3.6,3.206,9.751a16.784,16.784,0,0,1-2.94,9.619,19.766,19.766,0,0,1-8.829,6.894,36,36,0,0,1-14.316,2.549A50.277,50.277,0,0,1,203.139,672.829Z" transform="translate(-191.276 -611.209)" fill="#c68305"/>
        <path id="Path_57" data-name="Path 57" d="M216.773,611.648h14.22V673.1h-14.22Z" transform="translate(-154.978 -610.56)" fill="#c68305"/>
        <path id="Path_58" data-name="Path 58" d="M284.322,673.1l-.089-36.872L266.152,666.6h-6.409l-18-29.583V673.1H228.4V611.648h11.762l23,38.189,22.652-38.189h11.673l.176,61.454Z" transform="translate(-137.797 -610.56)" fill="#c68305"/>
        <path id="Path_59" data-name="Path 59" d="M277.09,670.675A30.616,30.616,0,0,1,265.055,659.3a32.687,32.687,0,0,1,0-32.586,30.633,30.633,0,0,1,12.035-11.376,38.039,38.039,0,0,1,34.473,0,31.359,31.359,0,0,1,0,55.337,38.036,38.036,0,0,1-34.473,0Zm27.1-10.5a17.979,17.979,0,0,0,6.894-6.984,22,22,0,0,0,0-20.378,17.983,17.983,0,0,0-6.894-6.983,20.577,20.577,0,0,0-19.677,0,17.941,17.941,0,0,0-6.9,6.983,22,22,0,0,0,0,20.378,17.937,17.937,0,0,0,6.9,6.984,20.6,20.6,0,0,0,19.677,0Z" transform="translate(-90.079 -611.209)" fill="#c68305"/>
        <path id="Path_60" data-name="Path 60" d="M348.55,611.648V673.1H336.877l-30.641-37.31V673.1H292.19V611.648h11.762l30.552,37.31v-37.31Z" transform="translate(-43.567 -610.56)" fill="#c68305"/>
        <path id="Path_61" data-name="Path 61" d="M329.826,672.829a33.106,33.106,0,0,1-10.937-5.141l4.831-10.714a32.91,32.91,0,0,0,9.4,4.657,35.391,35.391,0,0,0,10.885,1.754c4.048,0,7.028-.6,8.965-1.8a5.439,5.439,0,0,0,2.9-4.786,4.586,4.586,0,0,0-1.709-3.647,13.085,13.085,0,0,0-4.4-2.326q-2.679-.88-7.241-1.932a99.493,99.493,0,0,1-11.507-3.339,18.645,18.645,0,0,1-7.684-5.359q-3.218-3.686-3.211-9.84a17.075,17.075,0,0,1,2.9-9.7,19.444,19.444,0,0,1,8.735-6.894,35.7,35.7,0,0,1,14.274-2.549,47.332,47.332,0,0,1,11.509,1.4,33.966,33.966,0,0,1,9.835,4.043l-4.387,10.8a34.361,34.361,0,0,0-17.044-4.828q-5.971,0-8.826,1.93a5.909,5.909,0,0,0-2.859,5.1q0,3.162,3.295,4.7a51.618,51.618,0,0,0,10.057,3.03,100.468,100.468,0,0,1,11.507,3.335,19.066,19.066,0,0,1,7.685,5.271q3.207,3.6,3.21,9.751a16.808,16.808,0,0,1-2.945,9.619,19.773,19.773,0,0,1-8.827,6.894,36.009,36.009,0,0,1-14.319,2.549A50.284,50.284,0,0,1,329.826,672.829Z" transform="translate(-4.125 -611.209)" fill="#c68305"/>
        <path id="Path_62" data-name="Path 62" d="M353.85,672.829a33.13,33.13,0,0,1-10.937-5.141l4.833-10.714a32.909,32.909,0,0,0,9.4,4.657,35.368,35.368,0,0,0,10.885,1.754q6.068,0,8.965-1.8a5.436,5.436,0,0,0,2.893-4.786,4.591,4.591,0,0,0-1.707-3.647,13.113,13.113,0,0,0-4.4-2.326q-2.68-.88-7.241-1.932a99.547,99.547,0,0,1-11.509-3.339,18.678,18.678,0,0,1-7.684-5.359q-3.214-3.686-3.208-9.84a17.074,17.074,0,0,1,2.9-9.7,19.458,19.458,0,0,1,8.735-6.894,35.715,35.715,0,0,1,14.276-2.549,47.331,47.331,0,0,1,11.51,1.4,33.964,33.964,0,0,1,9.835,4.043l-4.39,10.8a34.359,34.359,0,0,0-17.041-4.828q-5.971,0-8.826,1.93a5.912,5.912,0,0,0-2.861,5.1q0,3.162,3.3,4.7a51.563,51.563,0,0,0,10.058,3.03,100.64,100.64,0,0,1,11.507,3.335,19.1,19.1,0,0,1,7.685,5.271q3.207,3.6,3.21,9.751a16.807,16.807,0,0,1-2.945,9.619,19.794,19.794,0,0,1-8.829,6.894,35.994,35.994,0,0,1-14.316,2.549A50.3,50.3,0,0,1,353.85,672.829Z" transform="translate(31.364 -611.209)" fill="#c68305"/>
        <path id="Path_63" data-name="Path 63" d="M383.71,670.675A30.656,30.656,0,0,1,371.673,659.3a32.719,32.719,0,0,1,0-32.586,30.673,30.673,0,0,1,12.037-11.376,38.044,38.044,0,0,1,34.476,0,31.362,31.362,0,0,1,0,55.337,38.041,38.041,0,0,1-34.476,0Zm27.1-10.5A17.939,17.939,0,0,0,417.7,653.2a21.939,21.939,0,0,0,0-20.378,17.944,17.944,0,0,0-6.892-6.983,20.577,20.577,0,0,0-19.677,0,17.944,17.944,0,0,0-6.892,6.983,21.939,21.939,0,0,0,0,20.378,17.939,17.939,0,0,0,6.892,6.984,20.6,20.6,0,0,0,19.677,0Z" transform="translate(67.432 -611.209)" fill="#c68305"/>
        <path id="Path_64" data-name="Path 64" d="M455.174,611.648V673.1h-11.68l-30.636-37.31V673.1H398.812V611.648h11.765l30.552,37.31v-37.31Z" transform="translate(113.942 -610.56)" fill="#c68305"/>
        <path id="Path_65" data-name="Path 65" d="M239.436,676.133h8.43v31.095h-7.732V703.1q-6.759,4.831-17.125,4.833A33.325,33.325,0,0,1,207.5,704.24a28.179,28.179,0,0,1-11.415-10.759,31.789,31.789,0,0,1-4.261-16.734,31.463,31.463,0,0,1,4.261-16.335,30.106,30.106,0,0,1,11.769-11.289,34.8,34.8,0,0,1,16.91-4.085,35.7,35.7,0,0,1,13.392,2.415,27.414,27.414,0,0,1,10.236,7.07l-5.447,5.447a24.76,24.76,0,0,0-17.831-7.115,25.668,25.668,0,0,0-12.607,3.077,22.422,22.422,0,0,0-8.737,8.517,26.016,26.016,0,0,0,.042,24.946,21.3,21.3,0,0,0,8.477,8.125,24.216,24.216,0,0,0,11.42,2.765,24.908,24.908,0,0,0,8.388-1.447,22.617,22.617,0,0,0,7.335-4.26Z" transform="translate(-191.828 -561.235)" fill="#c68305"/>
        <path id="Path_66" data-name="Path 66" d="M262.33,706.808l-13.263-18.884c-1.643.117-2.928.174-3.865.174H230v18.711H221.22V645.322H245.2q11.943,0,18.8,5.708t6.85,15.723a20.579,20.579,0,0,1-3.513,12.124,19.823,19.823,0,0,1-10.016,7.29L271.9,706.808Zm-4.655-29.774q4.392-3.6,4.39-10.281t-4.39-10.231q-4.4-3.556-12.738-3.558H230V680.63h14.933Q253.28,680.63,257.675,677.033Z" transform="translate(-148.408 -560.815)" fill="#c68305"/>
        <path id="Path_67" data-name="Path 67" d="M246.784,680.277V645.335h8.779v34.59c0,13.608,6.233,19.751,17.294,19.751s17.383-6.144,17.383-19.751v-34.59h8.517v34.942c0,17.819-9.748,27.213-25.989,27.213C256.616,707.489,246.784,698.1,246.784,680.277Z" transform="translate(-110.644 -560.796)" fill="#c68305"/>
        <path id="Path_68" data-name="Path 68" d="M317.821,651.03q6.852,5.712,6.852,15.723t-6.852,15.723q-6.852,5.715-18.795,5.71h-15.2v18.622h-8.784V645.322h23.982Q310.969,645.322,317.821,651.03ZM311.5,676.986q4.392-3.556,4.39-10.233t-4.39-10.231q-4.4-3.556-12.738-3.558H283.828v27.582h14.933Q307.1,680.546,311.5,676.986Z" transform="translate(-68.896 -560.815)" fill="#c68305"/>
        <path id="Path_69" data-name="Path 69" d="M343.064,651.03q6.852,5.712,6.857,15.723t-6.857,15.723q-6.841,5.715-18.793,5.71h-15.2v18.622h-8.787V645.322h23.982Q336.218,645.322,343.064,651.03Zm-6.317,25.957q4.385-3.556,4.387-10.233t-4.387-10.231q-4.4-3.556-12.738-3.558H309.076v27.582h14.933Q332.347,680.546,336.747,676.986Z" transform="translate(-31.603 -560.815)" fill="#c68305"/>
        <path id="Path_70" data-name="Path 70" d="M370.481,699.151v7.637H325.89V645.335H369.25v7.64H334.667v18.874h30.81v7.461h-30.81v19.84Z" transform="translate(6.217 -560.796)" fill="#c68305"/>
        <path id="Path_71" data-name="Path 71" d="M402.493,645.335v61.454h-7.2l-36.869-45.827v45.827h-8.78V645.335h7.2l36.872,45.829V645.335Z" transform="translate(41.311 -560.796)" fill="#c68305"/>
      </g>
    </g>
  </g>
</svg>
