<?xml version="1.0" encoding="utf-8"?>
<!-- Generator: Adobe Illustrator 24.2.1, SVG Export Plug-In . SVG Version: 6.00 Build 0)  -->
<svg version="1.1" id="Layer_1" xmlns="http://www.w3.org/2000/svg" xmlns:xlink="http://www.w3.org/1999/xlink" x="0px" y="0px"
	 viewBox="0 0 243 91" style="enable-background:new 0 0 243 91;" xml:space="preserve">
<style type="text/css">
	.st0{fill:none;}
	.st1{fill:#2D3436;}
</style>
<g>
	<rect id="Rectangle_145" y="0" class="st0" width="243" height="91"/>
	<path id="Path_56" class="st1" d="M89.8,42.5c-1-0.3-1.9-0.7-2.7-1.3l1.2-2.6c0.7,0.5,1.5,0.9,2.3,1.1c0.9,0.3,1.8,0.4,2.7,0.4
		c0.8,0.1,1.5-0.1,2.2-0.4c0.4-0.2,0.7-0.7,0.7-1.2c0-0.3-0.1-0.7-0.4-0.9c-0.3-0.3-0.7-0.5-1.1-0.6c-0.4-0.1-1-0.3-1.8-0.5
		c-1-0.2-1.9-0.5-2.8-0.8c-0.7-0.3-1.4-0.7-1.9-1.3c-0.6-0.7-0.8-1.5-0.8-2.4c0-0.8,0.2-1.7,0.7-2.4c0.5-0.8,1.3-1.4,2.1-1.7
		c1.1-0.4,2.3-0.7,3.5-0.6c1,0,1.9,0.1,2.8,0.3c0.9,0.2,1.7,0.5,2.4,1L98,31.3c-1.3-0.8-2.7-1.2-4.2-1.2c-0.8-0.1-1.5,0.1-2.2,0.5
		c-0.4,0.3-0.7,0.7-0.7,1.3c0,0.5,0.3,1,0.8,1.2c0.8,0.3,1.6,0.6,2.5,0.7c1,0.2,1.9,0.5,2.8,0.8c0.7,0.3,1.4,0.7,1.9,1.3
		c0.6,0.7,0.8,1.5,0.8,2.4c0,0.8-0.2,1.7-0.7,2.4c-0.5,0.8-1.3,1.4-2.2,1.7c-1.1,0.4-2.3,0.7-3.5,0.6C92.1,43,90.9,42.8,89.8,42.5z"
		/>
	<path id="Path_57" class="st1" d="M102.1,27.6h3.5v15.1h-3.5V27.6z"/>
	<path id="Path_58" class="st1" d="M122.9,42.7l0-9.1l-4.4,7.5h-1.6l-4.4-7.3v8.9h-3.3V27.6h2.9l5.7,9.4l5.6-9.4h2.9l0,15.1H122.9z"
		/>
	<path id="Path_59" class="st1" d="M132.9,41.9c-1.2-0.6-2.2-1.6-3-2.8c-1.4-2.5-1.4-5.5,0-8c0.7-1.2,1.7-2.2,3-2.8
		c2.7-1.4,5.8-1.4,8.5,0c3.8,2,5.2,6.7,3.2,10.4c-0.7,1.3-1.8,2.5-3.2,3.2C138.7,43.3,135.5,43.3,132.9,41.9L132.9,41.9z
		 M139.5,39.4c0.7-0.4,1.3-1,1.7-1.7c0.8-1.6,0.8-3.4,0-5c-0.4-0.7-1-1.3-1.7-1.7c-1.5-0.8-3.3-0.8-4.8,0c-0.7,0.4-1.3,1-1.7,1.7
		c-0.8,1.6-0.8,3.4,0,5c0.4,0.7,1,1.3,1.7,1.7C136.2,40.2,138,40.2,139.5,39.4z"/>
	<path id="Path_60" class="st1" d="M161.9,27.6v15.1H159l-7.5-9.2v9.2H148V27.6h2.9l7.5,9.2v-9.2H161.9z"/>
	<path id="Path_61" class="st1" d="M166.9,42.5c-1-0.3-1.9-0.7-2.7-1.3l1.2-2.6c0.7,0.5,1.5,0.9,2.3,1.1c0.9,0.3,1.8,0.4,2.7,0.4
		c0.8,0.1,1.5-0.1,2.2-0.4c0.4-0.2,0.7-0.7,0.7-1.2c0-0.3-0.1-0.7-0.4-0.9c-0.3-0.3-0.7-0.5-1.1-0.6c-0.4-0.1-1-0.3-1.8-0.5
		c-1-0.2-1.9-0.5-2.8-0.8c-0.7-0.3-1.4-0.7-1.9-1.3c-0.6-0.7-0.8-1.5-0.8-2.4c0-0.8,0.2-1.7,0.7-2.4c0.5-0.8,1.3-1.4,2.1-1.7
		c1.1-0.4,2.3-0.7,3.5-0.6c1,0,1.9,0.1,2.8,0.3c0.9,0.2,1.7,0.5,2.4,1l-1.1,2.7c-1.3-0.8-2.7-1.2-4.2-1.2c-0.8-0.1-1.5,0.1-2.2,0.5
		c-0.4,0.3-0.7,0.7-0.7,1.3c0,0.5,0.3,1,0.8,1.2c0.8,0.3,1.6,0.6,2.5,0.7c1,0.2,1.9,0.5,2.8,0.8c0.7,0.3,1.4,0.7,1.9,1.3
		c0.6,0.7,0.8,1.5,0.8,2.4c0,0.8-0.2,1.7-0.7,2.4c-0.5,0.8-1.3,1.4-2.2,1.7c-1.1,0.4-2.3,0.7-3.5,0.6
		C169.2,43,168.1,42.8,166.9,42.5z"/>
	<path id="Path_62" class="st1" d="M181.6,42.5c-1-0.3-1.9-0.7-2.7-1.3l1.2-2.6c0.7,0.5,1.5,0.9,2.3,1.1c0.9,0.3,1.8,0.4,2.7,0.4
		c0.8,0.1,1.5-0.1,2.2-0.4c0.4-0.2,0.7-0.7,0.7-1.2c0-0.3-0.1-0.7-0.4-0.9c-0.3-0.3-0.7-0.5-1.1-0.6c-0.4-0.1-1-0.3-1.8-0.5
		c-1-0.2-1.9-0.5-2.8-0.8c-0.7-0.3-1.4-0.7-1.9-1.3c-0.6-0.7-0.8-1.5-0.8-2.4c0-0.8,0.2-1.7,0.7-2.4c0.5-0.8,1.3-1.4,2.1-1.7
		c1.1-0.4,2.3-0.7,3.5-0.6c1,0,1.9,0.1,2.8,0.3c0.9,0.2,1.7,0.5,2.4,1l-1.1,2.7c-1.3-0.8-2.7-1.2-4.2-1.2c-0.8-0.1-1.5,0.1-2.2,0.5
		c-0.4,0.3-0.7,0.7-0.7,1.3c0,0.5,0.3,1,0.8,1.2c0.8,0.3,1.6,0.6,2.5,0.7c1,0.2,1.9,0.5,2.8,0.8c0.7,0.3,1.4,0.7,1.9,1.3
		c0.6,0.7,0.8,1.5,0.8,2.4c0,0.8-0.2,1.7-0.7,2.4c-0.5,0.8-1.3,1.4-2.2,1.7c-1.1,0.4-2.3,0.7-3.5,0.6
		C183.9,43,182.7,42.8,181.6,42.5z"/>
	<path id="Path_63" class="st1" d="M197.8,41.9c-1.2-0.6-2.2-1.6-3-2.8c-1.4-2.5-1.4-5.5,0-8c0.7-1.2,1.7-2.2,3-2.8
		c2.7-1.4,5.8-1.4,8.5,0c3.8,2,5.2,6.7,3.2,10.4c-0.7,1.3-1.8,2.5-3.2,3.2C203.6,43.3,200.4,43.3,197.8,41.9L197.8,41.9z
		 M204.4,39.4c0.7-0.4,1.3-1,1.7-1.7c0.8-1.6,0.8-3.4,0-5c-0.4-0.7-1-1.3-1.7-1.7c-1.5-0.8-3.3-0.8-4.8,0c-0.7,0.4-1.3,1-1.7,1.7
		c-0.8,1.6-0.8,3.4,0,5c0.4,0.7,1,1.3,1.7,1.7C201.1,40.2,202.9,40.2,204.4,39.4z"/>
	<path id="Path_64" class="st1" d="M226.8,27.6v15.1h-2.9l-7.5-9.2v9.2h-3.5V27.6h2.9l7.5,9.2v-9.2H226.8z"/>
	<path id="Path_65" class="st1" d="M98.6,55.6h2.1v7.6h-1.9v-1c-1.2,0.8-2.7,1.2-4.2,1.2c-1.3,0-2.6-0.3-3.8-0.9
		c-1.2-0.6-2.1-1.5-2.8-2.6c-0.7-1.2-1.1-2.7-1-4.1c0-1.4,0.3-2.8,1-4c0.7-1.2,1.7-2.1,2.9-2.8c1.3-0.7,2.7-1,4.2-1
		c1.1,0,2.2,0.2,3.3,0.6c1,0.4,1.8,1,2.5,1.7l-1.3,1.3c-1.2-1.1-2.7-1.8-4.4-1.7c-1.1,0-2.1,0.2-3.1,0.8c-0.9,0.5-1.6,1.2-2.1,2.1
		c-1,1.9-1,4.2,0,6.1c0.5,0.8,1.2,1.5,2.1,2c0.9,0.5,1.8,0.7,2.8,0.7c0.7,0,1.4-0.1,2.1-0.4c0.7-0.2,1.3-0.6,1.8-1L98.6,55.6z"/>
	<path id="Path_66" class="st1" d="M114.9,63.2l-3.3-4.6c-0.4,0-0.7,0-0.9,0H107v4.6h-2.2V48.1h5.9c1.7-0.1,3.3,0.4,4.6,1.4
		c1.1,1,1.8,2.4,1.7,3.9c0,1.1-0.3,2.1-0.9,3c-0.6,0.8-1.5,1.5-2.5,1.8l3.6,5.1L114.9,63.2z M113.8,55.9c0.7-0.6,1.1-1.6,1.1-2.5
		c0.1-1-0.3-1.9-1.1-2.5c-0.9-0.6-2-0.9-3.1-0.9H107v6.8h3.7C111.7,56.8,112.8,56.5,113.8,55.9L113.8,55.9z"/>
	<path id="Path_67" class="st1" d="M120.4,56.7v-8.6h2.2v8.5c0,3.3,1.5,4.9,4.2,4.9c2.7,0,4.3-1.5,4.3-4.9v-8.5h2.1v8.6
		c0,4.4-2.4,6.7-6.4,6.7C122.8,63.4,120.4,61.1,120.4,56.7z"/>
	<path id="Path_68" class="st1" d="M148.1,49.5c2.1,2,2.3,5.3,0.3,7.5c-0.1,0.1-0.2,0.2-0.3,0.3c-1.3,1-3,1.5-4.6,1.4h-3.7v4.6h-2.2
		V48.1h5.9C145.1,48,146.8,48.5,148.1,49.5z M146.5,55.9c1.4-1.3,1.4-3.5,0.1-4.9c0,0-0.1-0.1-0.1-0.1c-0.9-0.6-2-0.9-3.1-0.9h-3.7
		v6.8h3.7C144.5,56.8,145.6,56.5,146.5,55.9z"/>
	<path id="Path_69" class="st1" d="M163.4,49.5c2.1,2,2.3,5.3,0.3,7.5c-0.1,0.1-0.2,0.2-0.3,0.3c-1.3,1-3,1.5-4.6,1.4h-3.7v4.6h-2.2
		V48.1h5.9C160.5,48,162.1,48.5,163.4,49.5z M161.9,55.9c1.4-1.3,1.4-3.5,0.1-4.9c0,0-0.1-0.1-0.1-0.1c-0.9-0.6-2-0.9-3.1-0.9h-3.7
		v6.8h3.7C159.9,56.8,161,56.5,161.9,55.9L161.9,55.9z"/>
	<path id="Path_70" class="st1" d="M179.5,61.3v1.9h-11V48.1h10.7V50h-8.5v4.6h7.6v1.8h-7.6v4.9L179.5,61.3z"/>
	<path id="Path_71" class="st1" d="M196,48.1v15.1h-1.8l-9.1-11.3v11.3H183V48.1h1.8l9.1,11.3V48.1H196z"/>
	<path id="Path_53" class="st1" d="M16,16v58.7h58.7V16H16z M73.5,73.5H17.2V17.2h56.4L73.5,73.5z"/>
	<path id="Path_54" class="st1" d="M58.7,50.6v12h-4.1v-1.4c-1.8,1.3-4,1.9-6.3,1.8c-2.1,0-4.1-0.5-5.9-1.4
		c-1.8-0.9-3.3-2.3-4.3-4.1c-0.7-1.1-1.1-2.4-1.4-3.7l2.2-2.2c-0.8-0.1-1.6-0.2-2.4-0.4c-0.3-0.1-0.6-0.1-0.9-0.2
		c-1.5-0.4-2.9-1-4.1-1.9l1.8-4.1c1.1,0.8,2.3,1.4,3.6,1.8c0.1,0,0.2,0.1,0.3,0.1c1.2,0.4,2.5,0.6,3.8,0.6c0.6,0,1.2,0,1.8-0.1
		c-0.1,0.3-0.3,0.6-0.4,0.8c-0.3,1-0.5,2-0.5,3c0,0.2,0,0.4,0,0.6c0,1.2,0.4,2.4,0.9,3.4c0.6,1.1,1.5,1.9,2.6,2.5
		c2.7,1.4,5.9,1.1,8.3-0.7v-6.3L58.7,50.6z"/>
	<path id="Path_55" class="st1" d="M59.2,42.9l-3.5,3.2c-1.3-1.4-3-2.3-4.8-2.6c-0.4-0.1-0.8-0.1-1.2-0.1c-1,0-2,0.2-3,0.5h0
		c-0.4,0.2-0.8,0.4-1.2,0.6c0,0,0,0,0,0c-0.1-0.4-0.3-0.7-0.6-1c-0.5-0.4-1.1-0.7-1.7-0.9c-0.7-0.2-1.5-0.5-2.7-0.7c0,0-0.1,0-0.1,0
		c-1.5-0.3-2.9-0.8-4.4-1.3c-1.1-0.4-2.1-1.1-2.9-2c-0.9-1.1-1.3-2.4-1.2-3.7c0-1.3,0.4-2.6,1.1-3.7c0.8-1.2,2-2.1,3.3-2.6
		c1.7-0.7,3.6-1,5.4-1c1.5,0,2.9,0.2,4.4,0.5c1.3,0.3,2.6,0.8,3.7,1.5l-1.7,4.1c-2-1.2-4.2-1.8-6.5-1.8c-1.2-0.1-2.3,0.2-3.3,0.7
		c-0.7,0.4-1.1,1.1-1.1,1.9c0,0.8,0.5,1.5,1.2,1.8c1.2,0.5,2.5,0.9,3.8,1.2c1.5,0.3,2.9,0.8,4.4,1.3c0.2,0.1,0.3,0.1,0.4,0.2
		c0.9,0.4,1.8,1,2.5,1.8c0,0,0,0,0.1,0.1l1.9-1.9c1.1,0.2,2.3,0.4,3.3,0.9C56.6,40.6,58,41.6,59.2,42.9z"/>
</g>
</svg>
