<svg xmlns="http://www.w3.org/2000/svg" width="800" height="140.361" viewBox="0 0 800 140.361">
  <g id="Group_104" data-name="Group 104" transform="translate(14970.999 -1580)">
    <path id="Path_53" data-name="Path 53" d="M75.353,592.613V732.974H215.714V592.613ZM212.919,730.194H78.134v-134.8H212.919Z" transform="translate(-15046.352 987.387)" fill="#fff"/>
    <g id="Group_102" data-name="Group 102" transform="translate(-14701.972 1608.072)">
      <path id="Path_54" data-name="Path 54" d="M165.931,653.614v28.8h-9.74v-3.363q-5.809,4.3-14.981,4.309a30.353,30.353,0,0,1-14.18-3.349,25.417,25.417,0,0,1-10.293-9.754,26.876,26.876,0,0,1-3.247-8.779l5.256-5.256a43.222,43.222,0,0,1-5.838-.975q-1.07-.24-2.14-.568a29.792,29.792,0,0,1-9.915-4.659l4.382-9.725a29.374,29.374,0,0,0,8.531,4.222,5.351,5.351,0,0,0,.786.233,31.2,31.2,0,0,0,9.1,1.369,26.154,26.154,0,0,0,4.411-.335,16.581,16.581,0,0,0-.9,2.009A20.959,20.959,0,0,0,126,654.9c0,.524,0,1.019.044,1.5a17.97,17.97,0,0,0,2.213,8.138,15.124,15.124,0,0,0,6.115,6.028,18.658,18.658,0,0,0,19.756-1.791V653.614Z" transform="translate(-100.853 -598.757)" fill="#fff"/>
      <path id="Path_55" data-name="Path 55" d="M166.618,648.306l-8.3,7.629a19.25,19.25,0,0,0-11.574-6.1,20.284,20.284,0,0,0-2.854-.189,20.642,20.642,0,0,0-7.09,1.194h-.029a15.688,15.688,0,0,0-2.8,1.412c0-.029-.015-.029-.015-.058a4.135,4.135,0,0,0-1.441-2.358,11.573,11.573,0,0,0-4-2.111c-1.558-.524-3.683-1.077-6.348-1.7-.073-.015-.146-.044-.233-.058a87.519,87.519,0,0,1-10.424-3.028,16.954,16.954,0,0,1-6.988-4.863,13.146,13.146,0,0,1-2.912-8.925,15.617,15.617,0,0,1,2.635-8.808,17.714,17.714,0,0,1,7.935-6.26,32.3,32.3,0,0,1,12.943-2.315,42.481,42.481,0,0,1,10.453,1.281,30.777,30.777,0,0,1,8.925,3.669l-3.975,9.8a31.269,31.269,0,0,0-15.476-4.382c-3.611,0-6.289.583-8.007,1.762a5.314,5.314,0,0,0-2.591,4.615,4.542,4.542,0,0,0,2.985,4.265,45.814,45.814,0,0,0,9.128,2.752,93.235,93.235,0,0,1,10.453,3.028c.364.146.713.291,1.063.451a17.194,17.194,0,0,1,5.9,4.324.852.852,0,0,1,.146.175l4.5-4.5a32.6,32.6,0,0,1,7.949,2.111A26.527,26.527,0,0,1,166.618,648.306Z" transform="translate(-100.507 -611.763)" fill="#fff"/>
    </g>
    <g id="Group_103" data-name="Group 103" transform="translate(-14505.468 1608.073)">
      <path id="Path_56" data-name="Path 56" d="M198.63,647.423A19.47,19.47,0,0,1,192.2,644.4l2.841-6.3a19.284,19.284,0,0,0,5.522,2.737,20.831,20.831,0,0,0,6.4,1.031,10.229,10.229,0,0,0,5.266-1.058,3.2,3.2,0,0,0,1.7-2.813,2.686,2.686,0,0,0-1.009-2.143,7.668,7.668,0,0,0-2.58-1.367q-1.575-.517-4.258-1.135a58.453,58.453,0,0,1-6.763-1.963,10.984,10.984,0,0,1-4.518-3.149,8.5,8.5,0,0,1-1.884-5.783,10.067,10.067,0,0,1,1.7-5.7,11.452,11.452,0,0,1,5.138-4.052,20.958,20.958,0,0,1,8.387-1.5,27.792,27.792,0,0,1,6.763.825,19.981,19.981,0,0,1,5.781,2.376l-2.581,6.347a20.173,20.173,0,0,0-10.014-2.838,9.4,9.4,0,0,0-5.189,1.134,3.47,3.47,0,0,0-1.677,3,2.927,2.927,0,0,0,1.936,2.762,30.356,30.356,0,0,0,5.908,1.78,59.2,59.2,0,0,1,6.764,1.96,11.226,11.226,0,0,1,4.516,3.1,8.3,8.3,0,0,1,1.884,5.73,9.864,9.864,0,0,1-1.728,5.653,11.614,11.614,0,0,1-5.189,4.052,21.16,21.16,0,0,1-8.414,1.5A29.549,29.549,0,0,1,198.63,647.423Z" transform="translate(-191.656 -611.209)" fill="#fff"/>
      <path id="Path_57" data-name="Path 57" d="M216.773,611.648h8.357v36.116h-8.357Z" transform="translate(-180.457 -611.009)" fill="#fff"/>
      <path id="Path_58" data-name="Path 58" d="M261.267,647.764l-.052-21.669-10.626,17.851h-3.766l-10.577-17.386v21.2H228.4V611.648h6.913l13.516,22.444,13.313-22.444H269l.1,36.116Z" transform="translate(-175.153 -611.009)" fill="#fff"/>
      <path id="Path_59" data-name="Path 59" d="M270.334,646.157a18,18,0,0,1-7.073-6.685,19.211,19.211,0,0,1,0-19.151,18.005,18.005,0,0,1,7.073-6.685,22.356,22.356,0,0,1,20.26,0,18.43,18.43,0,0,1,0,32.521,22.353,22.353,0,0,1-20.26,0Zm15.926-6.168a10.566,10.566,0,0,0,4.052-4.1,12.927,12.927,0,0,0,0-11.976,10.569,10.569,0,0,0-4.052-4.1,12.093,12.093,0,0,0-11.564,0,10.543,10.543,0,0,0-4.053,4.1,12.927,12.927,0,0,0,0,11.976,10.54,10.54,0,0,0,4.053,4.1,12.1,12.1,0,0,0,11.564,0Z" transform="translate(-160.428 -611.209)" fill="#fff"/>
      <path id="Path_60" data-name="Path 60" d="M325.313,611.648v36.116h-6.86l-18.008-21.927v21.927H292.19V611.648H299.1l17.955,21.927V611.648Z" transform="translate(-146.075 -611.009)" fill="#fff"/>
      <path id="Path_61" data-name="Path 61" d="M325.317,647.423a19.456,19.456,0,0,1-6.428-3.021l2.839-6.3a19.341,19.341,0,0,0,5.525,2.737,20.8,20.8,0,0,0,6.4,1.031,10.229,10.229,0,0,0,5.269-1.058,3.2,3.2,0,0,0,1.7-2.813,2.7,2.7,0,0,0-1-2.143,7.69,7.69,0,0,0-2.584-1.367q-1.575-.517-4.256-1.135a58.445,58.445,0,0,1-6.762-1.963,10.96,10.96,0,0,1-4.516-3.149,8.481,8.481,0,0,1-1.887-5.783,10.036,10.036,0,0,1,1.706-5.7,11.43,11.43,0,0,1,5.134-4.052,20.979,20.979,0,0,1,8.389-1.5,27.821,27.821,0,0,1,6.764.825,19.975,19.975,0,0,1,5.78,2.376l-2.578,6.347a20.191,20.191,0,0,0-10.016-2.838,9.4,9.4,0,0,0-5.187,1.134,3.473,3.473,0,0,0-1.68,3,2.929,2.929,0,0,0,1.936,2.762,30.336,30.336,0,0,0,5.911,1.78,59.071,59.071,0,0,1,6.762,1.96,11.206,11.206,0,0,1,4.516,3.1,8.306,8.306,0,0,1,1.887,5.73,9.877,9.877,0,0,1-1.731,5.653,11.617,11.617,0,0,1-5.187,4.052,21.161,21.161,0,0,1-8.415,1.5A29.554,29.554,0,0,1,325.317,647.423Z" transform="translate(-133.903 -611.209)" fill="#fff"/>
      <path id="Path_62" data-name="Path 62" d="M349.341,647.423a19.468,19.468,0,0,1-6.428-3.021l2.841-6.3a19.338,19.338,0,0,0,5.525,2.737,20.788,20.788,0,0,0,6.4,1.031,10.233,10.233,0,0,0,5.269-1.058,3.2,3.2,0,0,0,1.7-2.813,2.7,2.7,0,0,0-1-2.143,7.705,7.705,0,0,0-2.584-1.367q-1.575-.517-4.255-1.135a58.487,58.487,0,0,1-6.764-1.963,10.979,10.979,0,0,1-4.516-3.149,8.488,8.488,0,0,1-1.885-5.783,10.034,10.034,0,0,1,1.7-5.7,11.437,11.437,0,0,1,5.133-4.052,20.992,20.992,0,0,1,8.39-1.5,27.823,27.823,0,0,1,6.764.825,19.973,19.973,0,0,1,5.78,2.376l-2.58,6.347a20.19,20.19,0,0,0-10.015-2.838,9.4,9.4,0,0,0-5.187,1.134,3.474,3.474,0,0,0-1.682,3,2.93,2.93,0,0,0,1.938,2.762,30.3,30.3,0,0,0,5.911,1.78,59.176,59.176,0,0,1,6.762,1.96,11.226,11.226,0,0,1,4.516,3.1,8.306,8.306,0,0,1,1.887,5.73,9.877,9.877,0,0,1-1.731,5.653,11.629,11.629,0,0,1-5.189,4.052,21.154,21.154,0,0,1-8.413,1.5A29.563,29.563,0,0,1,349.341,647.423Z" transform="translate(-122.952 -611.209)" fill="#fff"/>
      <path id="Path_63" data-name="Path 63" d="M376.956,646.157a18.017,18.017,0,0,1-7.074-6.685,19.229,19.229,0,0,1,0-19.151,18.028,18.028,0,0,1,7.074-6.685,22.359,22.359,0,0,1,20.262,0,18.431,18.431,0,0,1,0,32.521,22.356,22.356,0,0,1-20.262,0Zm15.926-6.168a10.544,10.544,0,0,0,4.05-4.1,12.895,12.895,0,0,0,0-11.976,10.546,10.546,0,0,0-4.05-4.1,12.093,12.093,0,0,0-11.564,0,10.547,10.547,0,0,0-4.05,4.1,12.894,12.894,0,0,0,0,11.976,10.544,10.544,0,0,0,4.05,4.1,12.1,12.1,0,0,0,11.564,0Z" transform="translate(-111.822 -611.209)" fill="#fff"/>
      <path id="Path_64" data-name="Path 64" d="M431.936,611.648v36.116h-6.864l-18.005-21.927v21.927h-8.255V611.648h6.914l17.955,21.927V611.648Z" transform="translate(-97.468 -611.009)" fill="#fff"/>
      <path id="Path_65" data-name="Path 65" d="M219.807,663.312h4.954v18.274h-4.544v-2.425A16.889,16.889,0,0,1,210.153,682a19.586,19.586,0,0,1-9.112-2.171,16.562,16.562,0,0,1-6.709-6.323,18.682,18.682,0,0,1-2.5-9.834,18.491,18.491,0,0,1,2.5-9.6,17.692,17.692,0,0,1,6.917-6.634,20.454,20.454,0,0,1,9.938-2.4,20.982,20.982,0,0,1,7.871,1.419,16.116,16.116,0,0,1,6.016,4.155l-3.2,3.2a14.552,14.552,0,0,0-10.48-4.181,15.084,15.084,0,0,0-7.409,1.808,13.178,13.178,0,0,0-5.135,5.005,15.29,15.29,0,0,0,.025,14.661,12.52,12.52,0,0,0,4.982,4.775,14.234,14.234,0,0,0,6.712,1.625,14.645,14.645,0,0,0,4.93-.85,13.287,13.287,0,0,0,4.311-2.5Z" transform="translate(-191.828 -595.787)" fill="#fff"/>
      <path id="Path_66" data-name="Path 66" d="M245.38,681.457l-7.795-11.1c-.965.069-1.721.1-2.271.1h-8.932v11H221.22V645.322h14.094q7.019,0,11.047,3.354a11.388,11.388,0,0,1,4.026,9.24,12.094,12.094,0,0,1-2.064,7.125,11.651,11.651,0,0,1-5.886,4.285l8.571,12.13Zm-2.736-17.5a7.368,7.368,0,0,0,2.58-6.042,7.289,7.289,0,0,0-2.58-6.013q-2.583-2.09-7.486-2.091h-8.776v16.259h8.776Q240.061,666.073,242.645,663.959Z" transform="translate(-178.428 -595.658)" fill="#fff"/>
      <path id="Path_67" data-name="Path 67" d="M246.784,665.87V645.335h5.16v20.329c0,8,3.663,11.607,10.163,11.607s10.216-3.61,10.216-11.607V645.335h5.005V665.87c0,10.472-5.729,15.993-15.274,15.993C252.562,681.863,246.784,676.342,246.784,665.87Z" transform="translate(-166.775 -595.651)" fill="#fff"/>
      <path id="Path_68" data-name="Path 68" d="M300.184,648.677a12.615,12.615,0,0,1,0,18.481q-4.027,3.359-11.046,3.356h-8.932v10.944h-5.163V645.322h14.094Q296.157,645.322,300.184,648.677Zm-3.716,15.255a8.3,8.3,0,0,0,0-12.027q-2.584-2.09-7.486-2.091h-8.776v16.21h8.776Q293.885,666.023,296.469,663.931Z" transform="translate(-153.89 -595.658)" fill="#fff"/>
      <path id="Path_69" data-name="Path 69" d="M325.428,648.677a12.609,12.609,0,0,1,0,18.481q-4.02,3.359-11.044,3.356h-8.93v10.944h-5.164V645.322h14.094Q321.4,645.322,325.428,648.677Zm-3.712,15.255a8.3,8.3,0,0,0,0-12.027q-2.586-2.09-7.486-2.091h-8.776v16.21h8.776Q319.13,666.023,321.715,663.931Z" transform="translate(-142.382 -595.658)" fill="#fff"/>
      <path id="Path_70" data-name="Path 70" d="M352.1,676.963v4.488H325.89V645.335h25.482v4.49H331.048v11.092h18.107V665.3H331.048v11.66Z" transform="translate(-130.712 -595.651)" fill="#fff"/>
      <path id="Path_71" data-name="Path 71" d="M380.7,645.335v36.116h-4.231l-21.668-26.932v26.932h-5.16V645.335h4.231l21.669,26.934V645.335Z" transform="translate(-119.883 -595.651)" fill="#fff"/>
    </g>
    <path id="_001-plus" data-name="001-plus" d="M35.558,16.843H20.586V1.871a1.872,1.872,0,0,0-3.743,0V16.843H1.871a1.872,1.872,0,0,0,0,3.743H16.843V35.558a1.872,1.872,0,1,0,3.743,0V20.586H35.558a1.872,1.872,0,1,0,0-3.743Zm0,0" transform="translate(-14783.852 1631.466)" fill="#fff"/>
    <path id="_001-plus-2" data-name="001-plus" d="M35.558,16.843H20.586V1.871a1.872,1.872,0,0,0-3.743,0V16.843H1.871a1.872,1.872,0,0,0,0,3.743H16.843V35.558a1.872,1.872,0,1,0,3.743,0V20.586H35.558a1.872,1.872,0,1,0,0-3.743Zm0,0" transform="translate(-14589.685 1631.466)" fill="#fff"/>
  </g>
</svg>
