<?xml version="1.0" encoding="utf-8"?>
<!-- Generator: Adobe Illustrator 24.2.1, SVG Export Plug-In . SVG Version: 6.00 Build 0)  -->
<svg version="1.1" id="Layer_1" xmlns="http://www.w3.org/2000/svg" xmlns:xlink="http://www.w3.org/1999/xlink" x="0px" y="0px"
	 viewBox="0 0 947 467" style="enable-background:new 0 0 947 467;" xml:space="preserve">
<style type="text/css">
	.st0{enable-background:new    ;}
	.st1{fill:#2D3436;}
	.st2{fill:none;}
</style>
<g id="Group_107" transform="translate(2 784.215)">
	<g class="st0">
		<path class="st1" d="M89.8-563.8h2.8l9.4-25.6h3.1l9.4,25.6h2.8v2.3h-8.9v-2.3h3.2L109-571H98.1l-2.6,7.2h3.2v2.3h-8.9L89.8-563.8
			L89.8-563.8z M108.3-573.3l-4.1-11.4c-0.3-0.9-0.4-1.8-0.4-1.8h-0.1c0,0-0.1,0.9-0.4,1.8L99-573.3H108.3z"/>
		<path class="st1" d="M131.3-573.7h1.3v-0.8c0-3.7-2-5-4.8-5c-3.4,0-5.8,1.9-5.8,1.9l-1.3-2c0,0,2.7-2.3,7.2-2.3
			c4.9,0,7.4,2.6,7.4,7.5v9.9c0,0.6,0.3,0.9,0.9,0.9h2.2v2.2h-3.2c-1.7,0-2.4-0.7-2.4-2.2v-0.3c0-1,0.1-1.5,0.1-1.5h-0.1
			c0,0-1.7,4.5-6.8,4.5c-3.2,0-6.7-1.9-6.7-5.9C119.2-573.5,127.9-573.7,131.3-573.7z M126.3-563.2c4,0,6.2-4,6.2-7.5v-1h-1.1
			c-1.6,0-9.4-0.2-9.4,4.5C122-565.2,123.5-563.2,126.3-563.2z"/>
		<path class="st1" d="M161.4-563.8h3.7v-23.4h-3.7v-2.3H174c1.9,0,3.5,0.2,4.8,1c1.9,1,3.4,3.2,3.4,6.1s-1.5,4.9-3.6,6v0.1
			c2.8,0.8,4.7,3.6,4.7,6.9c0,3.5-2,6.2-4.7,7.3c-1.3,0.5-2.7,0.6-4.1,0.6h-13.1L161.4-563.8L161.4-563.8z M174.7-577.3
			c2.8,0,4.7-1.9,4.7-4.9c0-1.9-0.7-3.3-2-4.1c-0.9-0.5-2-0.7-3.3-0.7h-6.2v9.7H174.7z M174.6-563.9c0.9,0,2-0.1,2.9-0.4
			c1.9-0.8,3.1-2.7,3.1-5.1c0-3.4-2.3-5.5-5.5-5.5h-7.1v11L174.6-563.9L174.6-563.9z"/>
		<path class="st1" d="M189.5-587.2h-3.6v-2.2h6.2v9.9c0,1-0.1,1.7-0.1,1.7h0.1c0,0,1.8-4.1,6.8-4.1c5.4,0,8.7,4.3,8.7,10.5
			c0,6.3-3.8,10.5-9,10.5c-4.8,0-6.6-4.1-6.6-4.1H192c0,0,0.1,0.7,0.1,1.7v1.9h-2.6L189.5-587.2L189.5-587.2z M198.5-563.4
			c3.6,0,6.5-2.9,6.5-8c0-4.9-2.6-8-6.3-8c-3.3,0-6.5,2.4-6.5,8C192.2-567.4,194.3-563.4,198.5-563.4z"/>
		<path class="st1" d="M245.8-589.9c3.4,0,10.4,1.3,10.4,5.6v3h-2.7v-2.2c0-2.8-4.8-3.8-7.6-3.8c-6.5,0-11.4,4.9-11.4,11.7
			c0,7,4.9,12.2,11.5,12.2c2.3,0,8-0.9,8-3.8v-2.2h2.7v3c0,4.1-6.8,5.5-10.6,5.5c-8.4,0-14.4-6.5-14.4-14.6
			C231.7-583.8,237.9-589.9,245.8-589.9z"/>
		<path class="st1" d="M271.3-581.9c2.5,0,7.4,1.1,7.4,4.3v2.2h-2.5v-1.5c0-1.8-3-2.6-4.9-2.6c-4.4,0-7.7,3.2-7.7,8
			c0,4.9,3.6,8,7.9,8c3.9,0,6.2-2.4,6.6-2.8l1.1,2c-0.4,0.4-3.2,3.1-7.8,3.1c-5.8,0-10.5-4.1-10.5-10.4
			C260.8-577.7,265.5-581.9,271.3-581.9z"/>
		<path class="st1" d="M302.9-563.8h3.7v-23.4h-3.7v-2.3h11.8c2.4,0,4.1,0.2,5.9,0.7c5.3,1.7,8.6,6.5,8.6,13.3
			c0,6.9-3.4,11.6-9,13.3c-1.8,0.6-3.6,0.6-5.6,0.6h-11.8L302.9-563.8L302.9-563.8z M314.5-563.9c1.9,0,3.4-0.2,4.9-0.6
			c4.2-1.4,7-5.3,7-10.9s-2.6-9.5-6.7-11c-1.6-0.6-3.2-0.6-5.2-0.6h-5.1v23.2L314.5-563.9L314.5-563.9z"/>
		<path class="st1" d="M342.5-581.9c4.8,0,6.5,3.9,6.5,3.9h0.1c0,0-0.1-0.6-0.1-1.5v-7.6h-3.6v-2.2h6.2v24.8c0,0.6,0.3,0.9,0.9,0.9
			h2.2v2.2h-3.3c-1.7,0-2.4-0.7-2.4-2.2v-0.3c0-0.8,0.2-1.2,0.2-1.2h-0.1c0,0-1.7,4.2-7.1,4.2c-5.4,0-8.7-4.3-8.7-10.5
			C333.5-577.8,337.3-581.9,342.5-581.9z M342.6-563.4c3.3,0,6.5-2.4,6.5-8c0-4.1-2-8-6.3-8c-3.6,0-6.5,2.9-6.5,8
			C336.3-566.6,338.9-563.4,342.6-563.4z"/>
		<path class="st1" d="M378.2-563.8h3.7v-23.4h-3.7v-2.3H398v5.8h-2.5v-3.4h-10.8v10.3h10.5v2.4h-10.5v10.5h11.5v-3.7h2.5v6h-20.4
			L378.2-563.8L378.2-563.8L378.2-563.8z"/>
		<path class="st1" d="M412.5-581.9c5.5,0,8.4,4.2,8.4,9.2c0,0.5-0.1,1.3-0.1,1.3h-15.3c0.1,5.1,3.7,8,7.8,8c3.7,0,6.1-2.4,6.1-2.4
			l1.2,2c0,0-2.8,2.8-7.4,2.8c-5.9,0-10.5-4.3-10.5-10.5C402.7-578,407.1-581.9,412.5-581.9z M418.1-573.5c-0.2-4.2-2.7-6.2-5.7-6.2
			c-3.3,0-6.2,2.2-6.9,6.2H418.1z"/>
		<path class="st1" d="M444.8-563.8h3.7v-23.4h-3.7v-2.3h18.8v5.9h-2.5v-3.5h-9.9v10.5h10.2v2.4h-10.2v10.2h3.9v2.3h-10.3V-563.8z"
			/>
		<path class="st1" d="M466.2-563.7h3.4v-15.6H466v-2.2h3.6v-1.1c0-6.3,4.5-7.1,6.5-7.1c1,0,1.6,0.1,1.6,0.1v2.4
			c0,0-0.5-0.1-1.4-0.1c-1.4,0-4.1,0.5-4.1,4.7v1.1h5.1v2.2h-5.1v15.6h4v2.2h-10.1V-563.7z"/>
		<path class="st1" d="M515-589.9c4.8,0,10.5,2,10.5,5.5v3.1h-2.7v-2.1c0-2.6-4.3-4-7.9-4c-7.1,0-11.7,5-11.7,11.8
			c0,6.9,4.6,12,11.6,12c2.8,0,8.5-0.9,8.5-4.1v-4.4h-5.8v-2.3h8.4v7.3c0,4.3-7,5.9-11.2,5.9c-8.6,0-14.4-6.2-14.4-14.4
			C500.6-583.7,506.3-589.9,515-589.9z"/>
		<path class="st1" d="M539-555.5c3.9,0,7-1.9,7-6.3v-1.9c0-0.7,0.1-1.5,0.1-1.5H546c-1.2,2.2-3.2,3.7-6.3,3.7
			c-5.4,0-8.9-4.2-8.9-10.2s3.3-10.1,8.7-10.1c2.8,0,5.7,1.1,6.7,3.6h0.1c0,0-0.1-0.2-0.1-0.9c0-1.5,0.6-2.2,2.3-2.2h3.6v2.2h-2.4
			c-0.6,0-0.9,0.2-0.9,0.8v16.5c0,6.3-4.7,8.8-9.7,8.8c-2.3,0-4.5-0.6-6.5-1.6l1.1-2.2C533.6-556.9,536.1-555.5,539-555.5z
			 M546.1-571.8c0-5.8-2.8-7.7-6.3-7.7c-3.9,0-6.2,2.8-6.2,7.6s2.6,7.9,6.5,7.9C543.3-564.1,546.1-566,546.1-571.8z"/>
		<path class="st1" d="M575.2-563.8h3.7v-23.4h-3.7v-2.3h10.1v2.3h-3.7v10.5h16.1v-10.5h-3.7v-2.3h10.1v2.3h-3.7v23.4h3.7v2.3h-10.1
			v-2.3h3.7v-10.5h-16.1v10.5h3.7v2.3h-10.1V-563.8z"/>
		<path class="st1" d="M607.6-563.7h3.4v-23.5h-3.6v-2.2h6.2v11c0,0.9-0.2,1.6-0.2,1.6h0.1c0.8-1.9,3.5-5.1,8-5.1
			c4.9,0,6.7,2.8,6.7,7.8v10.5h3.4v2.2h-6.1v-11.9c0-3.2-0.5-5.9-4.3-5.9c-4.3,0-7.6,3.6-7.6,8.4v7.4h3.4v2.2h-9.5V-563.7z"/>
		<path class="st1" d="M654.6-563.8h3.7v-23.4h-3.7v-2.3h10.1v2.3H661v23.4h3.7v2.3h-10.1V-563.8z"/>
		<path class="st1" d="M668.7-563.7h3.4v-15.6h-3.6v-2.2h6.2v17.8h3.4v2.2h-9.5V-563.7z M671.9-589.4h3.1v3.4h-3.1V-589.4z"/>
		<path class="st1" d="M700.3-570.4h2.8v1c0,3.2,1.6,5.9,5,5.9c2.5,0,5-1.5,5-5.9v-17.7h-4.2v-2.3h10.3v2.3H716v17.9
			c0,5.9-4,8.2-7.9,8.2c-3.8,0-7.8-2.2-7.8-8.1L700.3-570.4L700.3-570.4z"/>
		<path class="st1" d="M720.6-555.6c1.5,0,4.5-0.6,4.5-5.2v-18.4h-3.6v-2.2h6.2v20.7c0,6.7-4.7,7.5-7,7.5c-0.6,0-1.1-0.1-1.1-0.1
			v-2.3C719.7-555.7,720.1-555.6,720.6-555.6z M725-589.4h3.1v3.4H725V-589.4z"/>
		<path class="st1" d="M753.5-563.8h3.7v-23.4h-3.7v-2.3h9.9v2.3h-3.5v9.9h4.1l6.8-9.9H768v-2.3h8.7v2.3h-2.8l-7.7,10.9v0.1
			c0,0,0.6,0.3,1.4,1.6l5.8,9.7c0.5,0.8,1.1,1.1,2,1.1h1.4v2.3h-2.1c-2.4,0-2.9-0.5-3.9-2.1l-5.8-10.1c-0.5-0.8-1.1-1.2-2.2-1.2
			h-2.8v11.1h3.7v2.3h-10.1L753.5-563.8L753.5-563.8z"/>
		<path class="st1" d="M779.1-563.7h3.4v-23.5H779v-2.2h6.2v15.7h3.2l4.7-5.6h-2.8v-2.2h8.6v2.2h-2.8l-5.5,6.3v0.1
			c0,0,0.6,0.2,1.4,1.6l4,6.7c0.4,0.6,0.7,0.8,1.9,0.8h1.4v2.2H797c-2,0-2.5-0.3-3.5-2l-4.2-7.2c-0.5-0.7-1-0.8-1.9-0.8h-2v7.8h3.2
			v2.2h-9.2L779.1-563.7L779.1-563.7z"/>
		<path class="st1" d="M822.2-563.8h3.7v-23.3h-3.7v-2.4h10.1v2.4h-3.7v23.2h11.2v-4.6h2.5v7.1h-20.1V-563.8z"/>
		<path class="st1" d="M847.1-587.2h-3.6v-2.2h6.2v22.7c0,1.6,0.4,3,2.3,3c0.7,0,1.1-0.1,1.1-0.1v2.3c0,0-0.7,0.1-1.5,0.1
			c-2.6,0-4.5-1.3-4.5-5.1V-587.2z"/>
	</g>
	<g class="st0">
		<path class="st1" d="M90.8-490.8h3.7l1.9-23.4h-3.7v-2.3h6.7l8.1,18.3c0.3,0.9,0.6,1.6,0.6,1.6h0.1c0,0,0.2-0.7,0.6-1.6l8.1-18.3
			h6.7v2.3h-3.7l1.9,23.4h3.7v2.3h-10v-2.3h3.6l-1.5-19.3c0-0.7,0.1-2,0.1-2h-0.1c0,0-0.3,1.2-0.6,1.9l-7.5,16.4h-2.6l-7.5-16.4
			c-0.2-0.6-0.6-1.9-0.6-1.9h-0.1c0,0,0.1,1.3,0.1,2l-1.5,19.3h3.6v2.3h-10L90.8-490.8L90.8-490.8z"/>
		<path class="st1" d="M128.7-490.7h3.4v-14.6c0-0.6-0.3-0.9-0.9-0.9h-2.7v-2.2h3.8c1.7,0,2.4,0.7,2.4,2.2v1.1
			c0,0.8-0.2,1.5-0.2,1.5h0.1c1.1-2.7,4.2-5.3,7.5-5.3c3.7,0,5.5,1.7,6.1,5.1h0.1c1.1-2.7,4-5.1,7.4-5.1c4.8,0,6.6,2.8,6.6,7.8v10.5
			h3.4v2.2h-6.1v-12c0-3.2-0.6-5.9-4.3-5.9c-4.1,0-6.7,4.3-6.7,8.4v7.4h3.4v2.2h-6.1v-12c0-3-0.4-5.9-4.2-5.9
			c-4.1,0-6.8,4.3-6.8,8.5v7.3h3.4v2.2h-9.5L128.7-490.7L128.7-490.7z"/>
		<path class="st1" d="M188.5-490.8h3.7v-23.4h-3.7v-2.3h6.3l15.7,22.1c0.4,0.6,0.8,1.7,0.8,1.7h0.1c0,0-0.2-1.2-0.1-1.9v-19.6h-3.7
			v-2.3h10.1v2.3H214v25.6h-2.7l-15.7-22.1c-0.4-0.6-0.8-1.7-0.8-1.7h-0.1c0,0,0.2,1.2,0.1,1.9v19.6h3.7v2.3h-10.1V-490.8z"/>
		<path class="st1" d="M220.4-490.7h3.4v-14.6c0-0.6-0.3-0.9-0.9-0.9h-2.7v-2.2h3.8c1.7,0,2.4,0.7,2.4,2.2v1.1
			c0,0.8-0.2,1.5-0.2,1.5h0.1c0.6-1.5,3.2-5.3,8.1-5.3s6.7,2.8,6.7,7.8v10.5h3.4v2.2h-6.1v-12c0-3.2-0.5-5.9-4.4-5.9
			c-4.4,0-7.6,3.9-7.6,8.3v7.4h3.4v2.2h-9.5V-490.7z"/>
		<path class="st1" d="M281.7-516.8c8,0,14.3,6.2,14.3,14.3c0,8.2-6.3,14.6-14.3,14.6s-14.2-6.4-14.2-14.6
			C267.4-510.7,273.7-516.8,281.7-516.8z M281.7-490.5c6.2,0,11.4-5.3,11.4-12.1c0-6.7-5.1-11.8-11.4-11.8c-6.2,0-11.4,5-11.4,11.8
			C270.3-495.7,275.4-490.5,281.7-490.5z"/>
		<path class="st1" d="M310.4-508.9c5.8,0,10.5,4.5,10.5,10.4c0,6-4.7,10.5-10.5,10.5s-10.5-4.5-10.5-10.5
			C299.9-504.5,304.6-508.9,310.4-508.9z M310.4-490.4c4.3,0,7.8-3.5,7.8-8.1c0-4.5-3.5-8-7.8-8c-4.2,0-7.8,3.4-7.8,8
			C302.6-493.9,306.1-490.4,310.4-490.4z"/>
		<path class="st1" d="M344.8-490.8h3.7v-23.4h-3.7v-2.3h12.7c1.7,0,3.5,0.2,4.8,0.8c2.8,1.2,4.5,4,4.5,7.6c0,3.9-1.9,6.8-5.1,8
			c-1.3,0.4-2.6,0.6-4.1,0.6h-6.3v8.8h3.7v2.3h-10.1L344.8-490.8L344.8-490.8z M357.3-501.9c1.3,0,2.4-0.2,3.4-0.6
			c2-0.8,3.3-2.8,3.3-5.6c0-2.5-1.1-4.4-2.9-5.4c-1-0.4-2.3-0.6-3.8-0.6h-6v12.1L357.3-501.9L357.3-501.9z"/>
		<path class="st1" d="M372.8-482.8v-22.6c0-0.6-0.3-0.9-0.9-0.9h-2.7v-2.2h3.8c1.7,0,2.4,0.7,2.4,2.1v0.2c0,0.8-0.1,1.4-0.1,1.4
			h0.1c0,0,1.6-4.1,7-4.1c5.4,0,8.7,4.3,8.7,10.5c0,6.3-3.8,10.5-9,10.5c-4.8,0-6.6-4-6.6-4h-0.1c0,0,0.1,0.7,0.1,1.8v7.5h3.4v2.2
			h-9.5v-2.2L372.8-482.8L372.8-482.8z M381.7-490.4c3.6,0,6.5-2.9,6.5-8c0-4.9-2.6-8-6.3-8c-3.3,0-6.4,2.4-6.4,8
			C375.5-494.4,377.7-490.4,381.7-490.4z"/>
		<path class="st1" d="M429.2-516.8c8,0,14.3,6.1,14.3,14.2c0,3.7-1.3,7.1-3.5,9.7l3.5,3.5l-1.7,1.7l-3.4-3.5
			c-2.4,2.1-5.7,3.3-9.2,3.3c-8,0-14.2-6.5-14.2-14.6C415-510.7,421.2-516.8,429.2-516.8z M429.2-490.5c2.5,0,5.4-0.9,7.3-2.6
			l-4.2-4.3l1.6-1.7l4.2,4.3c1.6-2,2.6-4.8,2.6-7.8c0-6.7-5-11.8-11.5-11.8c-6.3,0-11.3,5-11.3,11.8S422.8-490.5,429.2-490.5z"/>
		<path class="st1" d="M456.5-508.9c4.5,0,6.4,3.7,6.7,4h0.1c0,0-0.1-0.6-0.1-1.5v-1.9h2.6v25.7h3.4v2.2h-9.5v-2.2h3.4v-7.5
			c0-1.1,0.2-1.8,0.2-1.8h-0.1c0,0-1.8,4.1-6.9,4.1c-5.4,0-8.7-4.3-8.7-10.5C447.5-504.8,451.3-508.9,456.5-508.9z M456.6-490.4
			c3.3,0,6.5-2.4,6.5-8c0-4.1-2-8-6.3-8c-3.6,0-6.4,3-6.4,8C450.3-493.5,452.9-490.4,456.6-490.4z"/>
		<path class="st1" d="M491.3-490.8h3.7v-23.4h-3.7v-2.3h11.9c1.9,0,3.4,0.1,4.9,0.6c2.8,1,4.5,3.3,4.5,7c0,4.1-2.4,7.2-6.2,8v0.1
			c0,0,0.5,0.3,1,1.1l4.6,8c0.4,0.8,1,0.9,1.9,0.9h0.8v2.3h-1.5c-2.4,0-2.8-0.3-3.9-2.1l-4.7-8c-0.7-1.4-1.3-1.7-3.2-1.7h-4v9.6h3.7
			v2.3h-10.1L491.3-490.8L491.3-490.8L491.3-490.8z M504.3-502.7c3.4,0,5.7-2.3,5.7-5.9c0-2.5-1.1-4.1-3.1-4.9
			c-1-0.3-2.3-0.5-3.7-0.5h-5.4v11.4L504.3-502.7L504.3-502.7z"/>
		<path class="st1" d="M518.3-490.7h3.1v-14.6c0-0.6-0.3-0.9-0.9-0.9h-2.7v-2.2h3.8c1.7,0,2.4,0.6,2.4,2.3v1.4
			c0,0.8-0.1,1.5-0.1,1.5h0.1c1-3,3.2-5.4,6.3-5.4c0.6,0,1.1,0.1,1.1,0.1v2.7c0,0-0.5-0.1-1.1-0.1c-4.5,0-6.3,5-6.3,9v6.2h3.1v2.2
			h-8.9L518.3-490.7L518.3-490.7z"/>
		<path class="st1" d="M557-496.2v2c0,2.4,2.9,3.7,6.1,3.7c3.7,0,6.2-1.8,6.2-5c0-3.7-3.4-4.9-7-6.2c-3.7-1.4-7.5-2.8-7.5-7.8
			c0-4.9,4-7.3,8.5-7.3c4,0,8,1.5,8,4.4v3h-2.7v-2c0-1.8-2.9-2.8-5.4-2.8c-3.2,0-5.7,1.5-5.7,4.5c0,3.4,3,4.5,6.4,5.8
			c4.1,1.5,8,3.1,8,8.2c0,4.9-4,7.9-9.1,7.9c-4,0-8.8-1.8-8.8-5.6v-2.7L557-496.2L557-496.2L557-496.2z"/>
		<path class="st1" d="M576.3-494.7h2.4v1.5c0,2,2.9,2.9,5.2,2.9c2.5,0,4.7-1.1,4.7-3.2c0-2.3-2.5-3.1-5.4-4.1
			c-3-1.1-6.2-2.4-6.2-5.9c0-3.7,3.6-5.4,6.9-5.4c2.7,0,6.7,1.1,6.7,3.9v2.3h-2.4v-1.5c0-1.5-2-2.4-4.1-2.4c-2.2,0-4.2,1-4.2,2.9
			c0,2.2,2.4,3.1,5,4.1c3.1,1.1,6.5,2.4,6.5,6c0,3.5-3.1,5.7-7.5,5.7c-3.7,0-7.5-1.7-7.5-4.7L576.3-494.7L576.3-494.7z"/>
		<path class="st1" d="M621-490.8h3.7v-23.3h-7.9v4.5h-2.5v-6.9h23.4v6.9h-2.5v-4.5h-7.8v23.3h3.7v2.3H621L621-490.8L621-490.8z"/>
		<path class="st1" d="M643.4-506.2h-3.6v-2.2h3.7v-5.5h2.7v5.5h5v2.2h-5v10.2c0,4.7,3,5.4,4.5,5.4c0.6,0,0.9-0.1,0.9-0.1v2.4
			c0,0-0.5,0.1-1.1,0.1c-2.3,0-7-0.7-7-7.5L643.4-506.2L643.4-506.2z"/>
		<path class="st1" d="M677.4-514.1h-3.7v-2.3h10.1v2.3h-3.7v15.3c0,2,0.4,3.8,1.2,5.1c1.3,2,3.7,3.2,6.7,3.2c3,0,5.5-1.1,6.7-3.2
			c0.8-1.4,1.2-3.1,1.2-5.1v-15.3h-3.7v-2.3h10.1v2.3h-3.7v15.3c0,2.6-0.6,4.9-1.8,6.6c-1.9,2.7-5.1,4.1-8.9,4.1
			c-3.9,0-7.2-1.5-9-4.2c-1.2-1.8-1.7-4-1.7-6.6L677.4-514.1L677.4-514.1z"/>
		<path class="st1" d="M707.8-506.2h-3.6v-2.2h6.2v12c0,3.2,0.5,5.9,4.4,5.9c4.5,0,7.4-4.1,7.4-8.4v-7.3h-3.6v-2.2h6.2v17
			c0,0.6,0.3,0.9,0.9,0.9h2.3v2.2h-3.4c-1.7,0-2.4-0.7-2.4-2.2v-1c0-0.8,0-1.5,0-1.5h-0.1c-0.5,1.5-3,5.1-8,5.1
			c-4.6,0-6.6-2.5-6.6-7.8L707.8-506.2L707.8-506.2L707.8-506.2z"/>
		<path class="st1" d="M752.7-514.1h-2.8v-2.3h9v2.3h-3.2l7.2,20.7c0.2,0.9,0.4,1.9,0.4,1.9h0.1c0,0,0.2-1,0.4-1.9l7.2-20.7h-3.2
			v-2.3h9v2.3h-2.9l-9.2,25.6h-3.1L752.7-514.1z"/>
		<path class="st1" d="M777.3-508.5h8.3v2.2h-2.8l5,13.4c0.2,0.7,0.4,1.5,0.4,1.5h0.1c0,0,0.1-0.8,0.4-1.5l5-13.4h-2.8v-2.2h8.3v2.2
			h-2.6l-6.8,17.8h-2.9l-6.8-17.8h-2.6L777.3-508.5L777.3-508.5z"/>
	</g>
	<g class="st0">
		<path class="st1" d="M90-443.4h9v2.3h-3.3l5,20.5c0.2,0.9,0.2,1.9,0.2,1.9h0.2c0,0,0.1-1,0.3-1.9l6.4-22.9h2.6l6.4,22.9
			c0.2,0.9,0.3,1.9,0.3,1.9h0.2c0,0,0.1-1,0.2-1.9l5-20.5h-3.3v-2.3h9v2.3h-2.8l-6.5,25.6h-3.3l-6.2-22c-0.2-0.8-0.3-1.9-0.3-1.9
			H109c0,0-0.1,1-0.3,1.9l-6.2,22h-3.2l-6.5-25.6H90L90-443.4L90-443.4z"/>
		<path class="st1" d="M129.1-435.4h8.3v2.2h-3l4.1,13.5c0.2,0.7,0.3,1.5,0.3,1.5h0.1c0,0,0.1-0.8,0.3-1.5l5-15.6h2.7l5,15.6
			c0.2,0.7,0.3,1.5,0.3,1.5h0.1c0,0,0.1-0.8,0.2-1.5l4.2-13.5h-3v-2.2h8.3v2.2h-2.6l-5.7,17.8H151l-4.9-15c-0.2-0.7-0.3-1.6-0.3-1.6
			h-0.1c0,0-0.1,0.9-0.3,1.6l-4.9,15h-2.9l-5.7-17.8h-2.5L129.1-435.4L129.1-435.4z"/>
		<path class="st1" d="M183.6-417.8h2.8l7.3-11.8l-7.2-11.5h-2.7v-2.3h8.9v2.3h-3.2l5.4,8.8c0.4,0.6,0.6,1.1,0.6,1.1h0.1
			c0,0,0.2-0.5,0.6-1.1l5.2-8.8h-3.1v-2.3h8.7v2.3h-2.8l-7.4,11.8l7.3,11.5h2.8v2.3h-8.8v-2.3h3.1l-5.4-8.7
			c-0.4-0.6-0.6-1.1-0.6-1.1h-0.1c0,0-0.2,0.5-0.6,1.1l-5.2,8.7h3.1v2.3h-8.8L183.6-417.8L183.6-417.8z"/>
		<path class="st1" d="M209.3-417.7h3.2l5.1-8.1l-4.7-7.4h-3.4v-2.2h5l4,6.6c0.3,0.5,0.6,1.1,0.6,1.1h0.1c0,0,0.2-0.6,0.6-1.2
			l4.1-6.6h4.9v2.2h-3.3l-4.7,7.4l5.2,8.1h3v2.2h-4.7l-4.5-7.4c-0.3-0.5-0.6-1.1-0.6-1.1H219c0,0-0.2,0.6-0.6,1.2l-4.5,7.3h-4.7
			L209.3-417.7L209.3-417.7z"/>
		<path class="st1" d="M257.7-417.8h3.7v-9.7l-8.2-13.6h-2.8v-2.3h8.8v2.3h-3.1l6,10.1c0.2,0.5,0.6,1.1,0.6,1.1h0.1
			c0,0,0.2-0.6,0.6-1.1l6.1-10.1h-3.1v-2.3h8.8v2.3h-2.8l-8.2,13.6v9.7h3.7v2.3h-10.1L257.7-417.8L257.7-417.8z"/>
		<path class="st1" d="M280.2-409.5c1.8,0,3.1-1.5,3.8-3.2l1.1-2.7l-7.1-17.9h-2.6v-2.2h8.4v2.2h-2.9l5.3,13.6
			c0.2,0.7,0.3,1.5,0.3,1.5h0.1c0,0,0.1-0.6,0.4-1.5l5.3-13.6h-2.9v-2.2h8.3v2.2H295l-8.5,21.5c-1.1,2.8-3.3,4.6-6.1,4.6
			c-2.3,0-3.8-1.2-3.8-1.2l1.1-2.1C277.5-410.4,278.7-409.5,280.2-409.5z"/>
		<path class="st1" d="M320-417.4l15.3-22.3c0.6-0.8,1.1-1.3,1.1-1.3v-0.1c0,0-0.7,0.1-1.5,0.1h-12.2v4.5h-2.5v-6.9h19.6v1.9
			l-15.3,22.3c-0.6,0.8-1.1,1.3-1.1,1.3v0.1c0,0,0.7-0.1,1.5-0.1h12.7v-4.6h2.5v7.1H320V-417.4z"/>
		<path class="st1" d="M356.2-432c0.6-0.7,1.1-1.1,1.1-1.1v-0.1c0,0-0.7,0-1.5,0H347v3.6h-2.4v-5.8h16.1v1.9l-11.8,14.7
			c-0.6,0.7-1.1,1.1-1.1,1.1v0.1c0,0,0.7,0,1.5,0h9v-3.6h2.4v5.8h-16.5v-1.9L356.2-432z"/>
		<path class="st1" d="M383.1-417.8h2.8l9.4-25.6h3.1l9.4,25.6h2.8v2.3h-8.9v-2.3h3.2l-2.7-7.2h-10.9l-2.6,7.2h3.2v2.3h-8.9
			L383.1-417.8L383.1-417.8z M401.6-427.3l-4.1-11.4c-0.3-0.9-0.4-1.8-0.4-1.8H397c0,0-0.1,0.9-0.4,1.8l-4.2,11.4H401.6z
			 M393.6-447.7c0-1.9,1.5-3.2,3.2-3.2c1.9,0,3.4,1.2,3.4,3.2c0,1.8-1.5,3-3.4,3C395.2-444.7,393.6-445.9,393.6-447.7z M398.4-447.7
			c0-1-0.6-1.5-1.5-1.5c-0.8,0-1.4,0.6-1.4,1.5c0,0.8,0.6,1.5,1.4,1.5C397.8-446.2,398.4-446.9,398.4-447.7z"/>
		<path class="st1" d="M424.6-427.7h1.3v-0.8c0-3.7-2-5-4.8-5c-3.4,0-5.8,1.9-5.8,1.9l-1.3-2c0,0,2.7-2.3,7.2-2.3
			c4.9,0,7.4,2.6,7.4,7.5v9.9c0,0.6,0.3,0.9,0.9,0.9h2.2v2.2h-3.2c-1.7,0-2.4-0.7-2.4-2.2v-0.3c0-1,0.1-1.5,0.1-1.5H426
			c0,0-1.7,4.5-6.8,4.5c-3.2,0-6.7-1.9-6.7-5.9C412.6-427.4,421.2-427.7,424.6-427.7z M419.6-417.2c4,0,6.2-4,6.2-7.5v-1h-1.1
			c-1.6,0-9.4-0.2-9.4,4.5C415.3-419.1,416.9-417.2,419.6-417.2z M418-441c0-1.9,1.5-3.2,3.2-3.2c1.9,0,3.4,1.2,3.4,3.2
			c0,1.8-1.5,3-3.4,3C419.5-438,418-439.3,418-441z M422.8-441c0-1-0.6-1.5-1.5-1.5c-0.8,0-1.4,0.6-1.4,1.5c0,0.8,0.6,1.5,1.4,1.5
			C422.2-439.6,422.8-440.2,422.8-441z"/>
		<path class="st1" d="M453-417.8h2.8l9.4-25.6h3.1l9.4,25.6h2.8v2.3h-8.9v-2.3h3.2l-2.7-7.2h-10.9l-2.6,7.2h3.2v2.3h-8.9L453-417.8
			L453-417.8z M461.9-450.1h2.8v3.4h-2.8V-450.1z M471.5-427.3l-4.1-11.4c-0.3-0.9-0.4-1.8-0.4-1.8h-0.1c0,0-0.1,0.9-0.4,1.8
			l-4.2,11.4H471.5z M469.1-450.1h2.8v3.4h-2.8V-450.1z"/>
		<path class="st1" d="M494.5-427.7h1.3v-0.8c0-3.7-2-5-4.8-5c-3.4,0-5.8,1.9-5.8,1.9l-1.3-2c0,0,2.7-2.3,7.2-2.3
			c4.9,0,7.4,2.6,7.4,7.5v9.9c0,0.6,0.3,0.9,0.9,0.9h2.2v2.2h-3.2c-1.7,0-2.4-0.7-2.4-2.2v-0.3c0-1,0.1-1.5,0.1-1.5H496
			c0,0-1.7,4.5-6.8,4.5c-3.2,0-6.7-1.9-6.7-5.9C482.5-427.4,491.1-427.7,494.5-427.7z M489.6-417.2c4,0,6.2-4,6.2-7.5v-1h-1.1
			c-1.6,0-9.4-0.2-9.4,4.5C485.3-419.1,486.8-417.2,489.6-417.2z M486.2-443.4h2.8v3.4h-2.8V-443.4z M493.4-443.4h2.8v3.4h-2.8
			V-443.4z"/>
		<path class="st1" d="M538.9-443.8c8,0,14.3,6.2,14.3,14.3c0,8.2-6.3,14.6-14.3,14.6c-8,0-14.2-6.4-14.2-14.6
			C524.7-437.6,531-443.8,538.9-443.8z M538.9-417.5c6.2,0,11.4-5.3,11.4-12.1c0-6.7-5.1-11.8-11.4-11.8c-6.2,0-11.4,5-11.4,11.8
			C527.6-422.7,532.6-417.5,538.9-417.5z M533.9-450.1h2.8v3.4h-2.8V-450.1z M541.2-450.1h2.8v3.4h-2.8V-450.1z"/>
		<path class="st1" d="M567.7-435.9c5.8,0,10.5,4.5,10.5,10.4c0,6-4.7,10.5-10.5,10.5s-10.5-4.5-10.5-10.5
			C557.1-431.5,561.8-435.9,567.7-435.9z M567.7-417.4c4.3,0,7.8-3.5,7.8-8.1c0-4.5-3.5-8-7.8-8c-4.2,0-7.8,3.4-7.8,8
			C559.9-420.8,563.4-417.4,567.7-417.4z M562.7-443.4h2.8v3.4h-2.8V-443.4z M570-443.4h2.8v3.4H570V-443.4z"/>
	</g>
	<g class="st0">
		<path class="st1" d="M91.3-661.3h4.5l2.4-28.6h-4.7v-4h10.4l9.4,22.3c0.6,1.5,0.8,2.7,0.8,2.7h0.1c0,0,0.2-1.1,0.8-2.7l9.4-22.3
			h10.4v4h-4.7l2.4,28.6h4.5v4.1h-14.1v-4.1h4.4l-1.6-21.9c-0.1-1.1,0.2-3,0.2-3h-0.2c0,0-0.4,1.8-0.8,2.8l-8.4,19.2h-4.5l-8.4-19.2
			c-0.4-1.1-0.8-2.8-0.8-2.8h-0.2c0,0,0.2,1.9,0.2,3l-1.6,21.9h4.4v4.1H91.3L91.3-661.3L91.3-661.3z"/>
		<path class="st1" d="M143.7-679.6h-4.4v-3.9h9.4v15.8c0,3.7,0.7,6.6,4.9,6.6c5.3,0,8.5-5,8.5-10.2v-8.2h-4.4v-3.9h9.4v21.3
			c0,0.7,0.4,1.1,1.1,1.1h2.8v3.8h-5.4c-2.3,0-3.3-1.1-3.3-2.9v-1.1c0-0.9,0.1-1.5,0.1-1.5h-0.1c-0.5,1.4-3.5,6.2-10.1,6.2
			c-5.7,0-8.6-3.1-8.6-10.1L143.7-679.6L143.7-679.6z"/>
		<path class="st1" d="M174.8-665.6h4.4v1.7c0,2.3,3.1,3.2,6,3.2c2.9,0,5.3-1.2,5.3-3.4c0-2.7-2.9-3.5-6.6-4.8
			c-3.9-1.5-8.2-3.2-8.2-8c0-5.2,5.1-7.3,9.7-7.3c3.7,0,9.1,1.5,9.1,5.3v3.2h-4.4v-1.7c0-1.6-2.1-2.7-4.6-2.7
			c-2.5,0-4.7,1.1-4.7,3.2c0,2.5,2.9,3.6,6.1,4.6c4.1,1.4,8.7,3.1,8.7,8c0,4.9-4.5,7.7-10.5,7.7c-4.8,0-10.3-2.1-10.3-6.2
			L174.8-665.6L174.8-665.6z"/>
		<path class="st1" d="M213-684.1c7.5,0,11.4,5.5,11.4,12.3c0,0.6-0.2,1.9-0.2,1.9h-19.2c0.3,5.8,4.4,8.9,9.1,8.9
			c4.5,0,7.9-2.9,7.9-2.9l2.1,3.7c0,0-4,3.7-10.2,3.7c-8.3,0-14-6-14-13.8C199.8-678.7,205.5-684.1,213-684.1z M219.1-673.1
			c-0.2-4.6-2.9-7-6.2-7c-3.8,0-7,2.6-7.7,7H219.1z"/>
		<path class="st1" d="M242.8-684.1c7.9,0,14.2,5.8,14.2,13.7c0,8-6.3,13.8-14.2,13.8c-7.9,0-14.2-5.8-14.2-13.8
			C228.6-678.4,234.9-684.1,242.8-684.1z M242.8-660.9c4.9,0,9-4,9-9.4c0-5.4-4.1-9.3-9-9.3c-4.9,0-9,3.9-9,9.3
			C233.7-664.9,237.8-660.9,242.8-660.9z"/>
		<path class="st1" d="M279.6-668.2v2.7c0,2.7,3.5,4.3,7.3,4.3c4.2,0,7.3-1.9,7.3-5.6c0-4.2-4.3-5.7-8.8-7.5
			c-4.9-1.8-9.7-3.9-9.7-10.4c0-6.9,5.5-9.9,11.8-9.9c5.5,0,11.1,2.1,11.1,6.1v4.3h-4.9v-2.5c0-2.1-3.2-3.2-6.2-3.2
			c-3.6,0-6.4,1.6-6.4,5c0,3.9,3.7,5.2,7.8,6.7c5.4,2,10.7,4.1,10.7,10.9c0,7-5.7,10.6-12.5,10.6c-5.7,0-12.1-2.5-12.1-7.8v-3.8
			L279.6-668.2L279.6-668.2z"/>
		<path class="st1" d="M306.4-690H302v-3.9h9.4v28.9c0,2.3,0.5,3.7,2.8,3.7c0.8,0,1.4-0.1,1.4-0.1l-0.1,4.1c0,0-1.1,0.1-2.3,0.1
			c-3.7,0-7-1.5-7-7.6L306.4-690L306.4-690z"/>
		<path class="st1" d="M334.3-673.3h1.6v-1c0-4.1-2.4-5.6-5.6-5.6c-4.1,0-7.5,2.5-7.5,2.5l-2-3.6c0,0,3.8-3.1,10-3.1
			c6.7,0,10.2,3.5,10.2,10.1v11.8c0,0.8,0.4,1.1,1.1,1.1h2.7v3.9h-5.3c-2.4,0-3.2-1.1-3.2-2.8v-0.3c0-1.1,0.2-1.7,0.2-1.7h-0.1
			c0,0-2.3,5.5-8.7,5.5c-4.4,0-8.8-2.5-8.8-8C318.9-672.8,329.9-673.3,334.3-673.3z M328.7-660.4c4.5,0,7.2-4.5,7.2-8.5v-1.1h-1.3
			c-2.4,0-10.6,0.1-10.6,5.1C324-662.6,325.7-660.4,328.7-660.4z"/>
		<path class="st1" d="M350.5-690h-4.4v-3.9h9.4v12.2c0,1.2-0.2,2.2-0.2,2.2h0.1c0,0,2.4-4.5,8.4-4.5c7.1,0,11.6,5.6,11.6,13.8
			c0,8.4-5,13.8-12,13.8c-6.1,0-8.3-4.8-8.3-4.8h-0.1c0,0,0.2,1,0.2,2.1v2.1h-4.8L350.5-690L350.5-690z M362.8-660.9
			c4.1,0,7.5-3.4,7.5-9.3c0-5.7-3.1-9.4-7.5-9.4c-3.9,0-7.5,2.8-7.5,9.4C355.4-665.6,357.8-660.9,362.8-660.9z"/>
	</g>
</g>
<rect id="Rectangle_147" y="-0.1" class="st2" width="947" height="467"/>
</svg>
