<?xml version="1.0" encoding="utf-8"?>
<!-- Generator: Adobe Illustrator 24.2.1, SVG Export Plug-In . SVG Version: 6.00 Build 0)  -->
<svg version="1.1" id="Layer_1" xmlns="http://www.w3.org/2000/svg" xmlns:xlink="http://www.w3.org/1999/xlink" x="0px" y="0px"
	 viewBox="0 0 947 467" style="enable-background:new 0 0 947 467;" xml:space="preserve">
<style type="text/css">
	.st0{enable-background:new    ;}
	.st1{fill:#2D3436;}
	.st2{fill:none;}
</style>
<g id="Group_106" transform="translate(0 786)">
	<g class="st0">
		<path class="st1" d="M112.3-585.8c2,2,3,4.9,3,8.6v14.6h-3.7v-7.2h-15v7.2h-3.6v-14.6c0-3.8,1-6.6,3-8.6c2-2,4.7-3,8.2-3
			C107.6-588.9,110.3-587.8,112.3-585.8z M111.6-572.9v-4.5c0-2.7-0.6-4.7-2-6.1c-1.3-1.4-3.2-2-5.5-2c-2.3,0-4.2,0.6-5.5,2
			c-1.3,1.4-2,3.4-2,6.1v4.5H111.6z"/>
		<path class="st1" d="M141-582.2v19.7h-3.4v-3.2c-0.8,1.1-1.8,1.9-3,2.5s-2.6,0.9-4,0.9c-1.9,0-3.6-0.4-5.1-1.3
			c-1.5-0.8-2.7-2-3.6-3.6c-0.9-1.5-1.3-3.3-1.3-5.3c0-2,0.4-3.7,1.3-5.3c0.9-1.5,2-2.7,3.6-3.6c1.5-0.8,3.2-1.3,5.1-1.3
			c1.4,0,2.7,0.2,3.9,0.8c1.2,0.6,2.2,1.3,3,2.3v-3L141-582.2L141-582.2z M134.2-566.3c1-0.6,1.8-1.4,2.3-2.4
			c0.6-1.1,0.9-2.3,0.9-3.6s-0.3-2.6-0.9-3.6s-1.4-1.9-2.3-2.4c-1-0.6-2.2-0.9-3.4-0.9c-1.3,0-2.4,0.3-3.4,0.9
			c-1,0.6-1.8,1.4-2.3,2.4s-0.9,2.3-0.9,3.6s0.3,2.6,0.9,3.6c0.6,1.1,1.4,1.9,2.3,2.4c1,0.6,2.1,0.9,3.4,0.9
			C132.1-565.4,133.3-565.7,134.2-566.3z"/>
		<path class="st1" d="M189.3-573.7c0.9,1.1,1.3,2.5,1.3,4.2c0,2.3-0.9,4-2.6,5.2c-1.7,1.2-4.2,1.9-7.4,1.9h-12.4v-26h11.6
			c3,0,5.3,0.6,6.9,1.8c1.6,1.2,2.4,2.8,2.4,4.9c0,1.4-0.3,2.5-1,3.6c-0.6,1-1.5,1.8-2.6,2.3C187.3-575.6,188.5-574.8,189.3-573.7z
			 M171.9-585.5v8.3h7.6c1.9,0,3.4-0.3,4.4-1.1c1-0.7,1.5-1.8,1.5-3.1c0-1.4-0.5-2.4-1.5-3.1c-1-0.7-2.5-1.1-4.4-1.1L171.9-585.5
			L171.9-585.5z M185.3-566.6c1-0.7,1.6-1.8,1.6-3.2c0-2.9-2.1-4.4-6.4-4.4h-8.6v8.6h8.6C182.6-565.5,184.2-565.9,185.3-566.6z"/>
		<path class="st1" d="M211.4-581.1c1.5,0.8,2.7,2,3.6,3.6c0.9,1.5,1.3,3.2,1.3,5.3c0,2-0.4,3.7-1.3,5.3c-0.9,1.5-2,2.7-3.6,3.6
			c-1.5,0.8-3.2,1.3-5.1,1.3c-1.5,0-2.8-0.3-4-0.9s-2.2-1.4-3-2.5v3.2h-3.4V-590h3.6v10.8c0.8-1.1,1.8-1.9,3-2.3
			c1.2-0.6,2.5-0.8,3.9-0.8C208.2-582.4,209.9-582,211.4-581.1z M209.4-566.3c1-0.6,1.8-1.4,2.3-2.4c0.6-1.1,0.9-2.3,0.9-3.6
			s-0.3-2.6-0.9-3.6c-0.6-1.1-1.4-1.9-2.3-2.4c-1-0.6-2.1-0.9-3.4-0.9c-1.2,0-2.3,0.3-3.4,0.9c-1,0.6-1.8,1.4-2.3,2.4
			c-0.6,1.1-0.9,2.3-0.9,3.6s0.3,2.6,0.9,3.6c0.6,1.1,1.4,1.9,2.3,2.4c1,0.6,2.2,0.9,3.4,0.9S208.5-565.7,209.4-566.3z"/>
		<path class="st1" d="M246.3-564c-2.1-1.1-3.7-2.7-4.9-4.8c-1.2-2-1.8-4.3-1.8-6.8s0.6-4.8,1.8-6.8c1.2-2,2.8-3.6,4.9-4.8
			c2.1-1.1,4.4-1.7,7-1.7c2,0,3.9,0.3,5.6,1.1c1.7,0.7,3.2,1.7,4.3,3l-2.4,2.3c-1.9-2-4.4-3.1-7.4-3.1c-1.9,0-3.7,0.4-5.3,1.3
			s-2.7,2.1-3.6,3.6c-0.9,1.5-1.3,3.2-1.3,5.1s0.4,3.6,1.3,5.1c0.9,1.5,2.1,2.7,3.6,3.6c1.5,0.9,3.3,1.3,5.3,1.3
			c2.9,0,5.3-1.1,7.4-3.2l2.4,2.3c-1.2,1.4-2.7,2.3-4.4,3.1c-1.7,0.7-3.6,1.1-5.6,1.1C250.8-562.2,248.4-562.8,246.3-564z"/>
		<path class="st1" d="M270.5-563.6c-1.5-0.9-2.8-2.1-3.7-3.6c-0.9-1.5-1.4-3.2-1.4-5.2c0-1.9,0.5-3.6,1.4-5.2
			c0.9-1.5,2.1-2.7,3.7-3.6c1.5-0.9,3.4-1.3,5.3-1.3c1.8,0,3.4,0.3,4.8,1.1c1.4,0.7,2.5,1.8,3.2,3.2l-2.7,1.8
			c-0.6-1-1.4-1.6-2.3-2.1c-0.9-0.5-1.9-0.7-3.1-0.7c-1.3,0-2.4,0.3-3.5,0.9c-1,0.6-1.9,1.4-2.4,2.4c-0.6,1.1-0.9,2.3-0.9,3.6
			s0.3,2.6,0.9,3.6c0.6,1.1,1.4,1.9,2.4,2.4c1,0.6,2.2,0.9,3.5,0.9c1.1,0,2.1-0.2,3.1-0.7c0.9-0.5,1.7-1.2,2.3-2.1l2.7,1.7
			c-0.8,1.4-1.9,2.4-3.2,3.2c-1.4,0.7-3,1.1-4.8,1.1C273.8-562.3,272-562.8,270.5-563.6z"/>
		<path class="st1" d="M309-588.5h11c2.7,0,5.2,0.6,7.4,1.6c2.1,1.1,3.8,2.6,4.9,4.6c1.2,1.9,1.8,4.2,1.8,6.8s-0.6,4.8-1.8,6.8
			c-1.2,1.9-2.8,3.5-4.9,4.6c-2.1,1.1-4.6,1.6-7.4,1.6h-11V-588.5z M319.7-565.7c2.1,0,4-0.4,5.6-1.2s2.8-1.9,3.7-3.5
			c0.9-1.5,1.3-3.2,1.3-5.1c0-1.9-0.4-3.6-1.3-5.1c-0.9-1.5-2.1-2.6-3.7-3.5c-1.6-0.8-3.5-1.2-5.6-1.2h-7v19.5L319.7-565.7
			L319.7-565.7z"/>
		<path class="st1" d="M357.7-590.1v27.5h-3.4v-3.2c-0.8,1.1-1.8,1.9-3,2.5s-2.6,0.9-4,0.9c-1.9,0-3.6-0.4-5.1-1.3
			c-1.5-0.8-2.7-2-3.6-3.6c-0.9-1.5-1.3-3.3-1.3-5.3c0-2,0.4-3.7,1.3-5.3s2-2.7,3.6-3.6c1.5-0.8,3.2-1.3,5.1-1.3
			c1.4,0,2.7,0.2,3.9,0.8c1.2,0.6,2.2,1.3,3,2.3v-10.8L357.7-590.1L357.7-590.1z M351-566.3c1-0.6,1.8-1.4,2.3-2.4s0.9-2.3,0.9-3.6
			s-0.3-2.6-0.9-3.6c-0.6-1.1-1.4-1.9-2.3-2.4c-1-0.6-2.2-0.9-3.4-0.9c-1.3,0-2.4,0.3-3.4,0.9c-1,0.6-1.8,1.4-2.3,2.4
			c-0.6,1.1-0.9,2.3-0.9,3.6s0.3,2.6,0.9,3.6c0.6,1.1,1.4,1.9,2.3,2.4s2.1,0.9,3.4,0.9C348.9-565.4,350-565.7,351-566.3z"/>
	</g>
	<g class="st0">
		<path class="st1" d="M403.9-565.7v3.2H385v-26h18.3v3.2h-14.6v8h13v3.2h-13v8.4L403.9-565.7L403.9-565.7z"/>
	</g>
	<g class="st0">
		<path class="st1" d="M424-567.8l1.9,2.3c-0.9,1.1-1.9,1.9-3.3,2.3c-1.3,0.6-2.8,0.8-4.4,0.8c-2.1,0-4-0.4-5.6-1.3
			c-1.6-0.9-2.8-2-3.7-3.6c-0.9-1.5-1.3-3.2-1.3-5.2c0-1.9,0.4-3.6,1.3-5.2c0.9-1.5,2-2.7,3.6-3.6c1.5-0.9,3.2-1.3,5.1-1.3
			c1.8,0,3.4,0.4,4.8,1.2s2.6,1.9,3.5,3.4c0.9,1.5,1.3,3.2,1.4,5.1l-15.7,3.1c0.5,1.4,1.3,2.4,2.5,3.2s2.6,1.1,4.3,1.1
			C420.6-565.4,422.5-566.2,424-567.8z M414.1-578.5c-1,0.6-1.8,1.4-2.3,2.4c-0.6,1.1-0.8,2.3-0.8,3.6v0.4l12.6-2.3
			c-0.3-1.5-1-2.6-2.2-3.5c-1.1-0.9-2.4-1.4-4-1.4C416.2-579.4,415.1-579.1,414.1-578.5z"/>
		<path class="st1" d="M457.9-583.9c-1.2,1.1-1.8,2.7-1.8,4.7v3H468v3.2h-11.9v10.5h-3.7v-16.7c0-3,1-5.3,2.8-7
			c1.9-1.7,4.5-2.6,7.9-2.6c1.5,0,2.9,0.2,4.2,0.5c1.3,0.3,2.4,0.8,3.3,1.5l-1.2,3.1c-1.7-1.1-3.7-1.8-6.1-1.8
			C460.9-585.5,459.1-585,457.9-583.9z"/>
		<path class="st1" d="M478.1-583.9v1.7h5.7v2.9h-5.7v16.7h-3.6V-584c0-1.9,0.6-3.5,1.7-4.7c1.1-1.1,2.7-1.7,4.8-1.7
			c0.8,0,1.5,0.1,2.3,0.3c0.7,0.2,1.3,0.5,1.8,0.9l-1,2.7c-0.8-0.6-1.7-1-2.7-1C479.2-587.4,478.1-586.2,478.1-583.9z"/>
		<path class="st1" d="M525.8-575.7h3.6v13.2h-3.2v-1.8c-1.9,1.4-4.4,2-7.3,2c-2.3,0-4.5-0.5-6.5-1.5c-2-1.1-3.6-2.6-4.8-4.5
			c-1.2-2-1.8-4.4-1.8-7.1c0-2.6,0.6-4.8,1.8-6.9c1.2-2.1,2.8-3.6,5-4.8c2.1-1.1,4.5-1.7,7.2-1.7c2.1,0,4,0.3,5.7,1.1
			c1.7,0.7,3.2,1.7,4.4,3l-2.3,2.3c-2.1-2-4.6-3-7.5-3c-2,0-3.8,0.4-5.3,1.3c-1.5,0.9-2.8,2.1-3.7,3.6c-0.9,1.5-1.4,3.2-1.4,5.2
			c0,2,0.5,3.9,1.4,5.3c0.9,1.5,2.1,2.7,3.6,3.5s3.1,1.1,4.8,1.1c1.2,0,2.4-0.2,3.6-0.6c1.1-0.4,2.2-1,3.1-1.8L525.8-575.7
			L525.8-575.7z"/>
		<path class="st1" d="M554.8-582.2v17c0,3.5-0.9,6-2.6,7.7c-1.7,1.7-4.3,2.5-7.7,2.5c-1.9,0-3.6-0.2-5.3-0.7
			c-1.7-0.5-3.1-1.2-4.1-2.2l1.7-2.7c0.9,0.8,2,1.5,3.4,1.9c1.4,0.5,2.7,0.7,4.2,0.7c2.3,0,4-0.6,5.1-1.6c1.1-1.1,1.6-2.7,1.6-5
			v-1.5c-0.8,1.1-1.9,1.8-3.1,2.3c-1.2,0.5-2.6,0.7-4,0.7c-1.9,0-3.6-0.4-5.1-1.2c-1.5-0.8-2.7-1.9-3.6-3.4
			c-0.9-1.5-1.3-3.1-1.3-4.9c0-1.9,0.4-3.5,1.3-4.9c0.9-1.5,2.1-2.6,3.6-3.4c1.5-0.8,3.2-1.2,5.1-1.2c1.5,0,2.8,0.2,4.1,0.8
			c1.3,0.6,2.3,1.4,3.2,2.4v-3.1L554.8-582.2L554.8-582.2z M548-567.3c1-0.6,1.9-1.3,2.4-2.3c0.6-1,0.9-2.1,0.9-3.3
			c0-1.9-0.6-3.5-1.9-4.6c-1.3-1.2-2.9-1.8-4.8-1.8c-2,0-3.6,0.6-4.9,1.8s-1.9,2.7-1.9,4.6c0,1.2,0.3,2.3,0.9,3.3
			c0.6,1,1.4,1.8,2.4,2.3c1,0.6,2.2,0.8,3.5,0.8C545.8-566.5,546.9-566.7,548-567.3z"/>
		<path class="st1" d="M604.4-588.5v26h-3.7v-11.6h-14.9v11.6h-3.7v-26h3.7v11.1h14.9v-11.1H604.4z"/>
		<path class="st1" d="M628.2-580.2c1.5,1.5,2.2,3.6,2.2,6.4v11.3h-3.6v-10.9c0-1.9-0.5-3.3-1.4-4.3c-0.9-1-2.3-1.5-4-1.5
			c-1.9,0-3.5,0.6-4.6,1.7c-1.1,1.1-1.7,2.7-1.7,4.8v10.2h-3.6V-590h3.6v10.7c0.7-1,1.7-1.7,2.9-2.2c1.2-0.5,2.6-0.8,4-0.8
			C624.7-582.4,626.7-581.7,628.2-580.2z"/>
		<path class="st1" d="M664-585.3v19.5h5v3.2h-13.7v-3.2h5v-19.5h-5v-3.2H669v3.2H664z"/>
		<path class="st1" d="M674-586.7c-0.5-0.5-0.7-1-0.7-1.6c0-0.6,0.2-1.2,0.7-1.6c0.5-0.4,1-0.7,1.7-0.7c0.6,0,1.3,0.2,1.7,0.6
			c0.5,0.4,0.7,1,0.7,1.6c0,0.6-0.2,1.2-0.7,1.7c-0.5,0.5-1,0.7-1.7,0.7C675-585.9,674.5-586.2,674-586.7z M674-582.2h3.6v19.7H674
			V-582.2z"/>
		<path class="st1" d="M703.8-559.5c-1.3-0.6-2.3-1.6-3.2-2.7l2.1-2.5c1.5,2,3.2,3.1,5.3,3.1c3,0,4.5-1.8,4.5-5.3v-18.3h-9.4v-3.2
			h13.1v21.4c0,2.9-0.7,5-2.1,6.5c-1.4,1.5-3.4,2.2-6.1,2.2C706.5-558.5,705.1-558.8,703.8-559.5z"/>
		<path class="st1" d="M718.3-555.4c-0.7-0.2-1.4-0.5-1.9-0.9l1.1-2.7c0.7,0.6,1.7,0.9,2.9,0.9c1,0,1.7-0.3,2.2-0.9s0.7-1.5,0.7-2.6
			v-20.7h3.6v20.6c0,2-0.6,3.6-1.6,4.8c-1,1.1-2.7,1.8-4.7,1.8C719.9-555.1,719.1-555.2,718.3-555.4z M723.5-586.7
			c-0.5-0.5-0.7-1-0.7-1.6c0-0.6,0.2-1.2,0.7-1.6c0.5-0.5,1-0.7,1.7-0.7c0.7,0,1.3,0.2,1.7,0.6c0.4,0.4,0.7,1,0.7,1.6
			c0,0.6-0.2,1.2-0.7,1.7c-0.5,0.5-1,0.7-1.7,0.7C724.6-586,724-586.2,723.5-586.7z"/>
		<path class="st1" d="M762.9-574.1l-4.8,4.8v6.7h-3.7v-26h3.7v14.5l14.1-14.5h4.2l-11.1,11.7l11.8,14.3h-4.4L762.9-574.1z"/>
		<path class="st1" d="M788.2-571.7l-4.1,3.8v5.4h-3.6v-27.5h3.6v17.7l10.7-9.8h4.3l-8.3,8.2l9.1,11.6h-4.4L788.2-571.7z"/>
		<path class="st1" d="M824-588.5h3.7v22.8h14.1v3.2H824V-588.5z"/>
		<path class="st1" d="M847.1-563.9c-1-1.1-1.5-2.5-1.5-4.4v-21.8h3.6v21.5c0,1.1,0.2,1.9,0.7,2.4c0.5,0.6,1.3,0.9,2.3,0.9
			c0.6,0,1.2-0.2,1.8-0.4l0.2,2.9c-0.8,0.3-1.7,0.5-2.6,0.5C849.6-562.3,848.2-562.8,847.1-563.9z"/>
	</g>
	<g class="st0">
		<path class="st1" d="M128.6-513.5c1.7,1.7,2.5,4.3,2.5,7.5v16.2h-3.7v-16.1c0-2.3-0.6-4-1.8-5.2c-1.2-1.2-2.7-1.8-4.7-1.8
			c-2.2,0-3.9,0.6-5.1,1.9s-1.9,3.1-1.9,5.7v15.5h-3.7v-16.1c0-2.3-0.6-4-1.7-5.2c-1.1-1.1-2.7-1.8-4.6-1.8c-2.2,0-3.9,0.6-5.2,1.9
			c-1.3,1.2-1.9,3.1-1.9,5.6v15.5h-3.7v-26h3.6v3.8c0.8-1.3,1.9-2.3,3.2-3c1.4-0.7,3-1.1,4.8-1.1c1.9,0,3.6,0.4,5,1.1
			c1.4,0.8,2.4,1.9,3.1,3.2c0.8-1.4,1.9-2.4,3.5-3.2c1.5-0.7,3.2-1.1,5.2-1.1C124.6-516.1,127-515.3,128.6-513.5z"/>
		<path class="st1" d="M168.8-507.5c1.5,1.5,2.2,3.6,2.2,6.4v11.3h-3.6v-10.9c0-1.9-0.4-3.3-1.3-4.3c-0.9-1-2.1-1.5-3.8-1.5
			c-1.8,0-3.2,0.6-4.3,1.7c-1,1.1-1.6,2.7-1.6,4.8v10.2h-3.6v-10.9c0-1.9-0.4-3.3-1.3-4.3s-2.1-1.5-3.8-1.5c-1.8,0-3.2,0.6-4.3,1.7
			c-1,1.1-1.6,2.7-1.6,4.8v10.2h-3.6v-19.7h3.4v2.9c0.7-1.1,1.7-1.8,2.8-2.3c1.1-0.6,2.5-0.8,4-0.8c1.5,0,2.9,0.3,4.1,1
			s2.1,1.5,2.7,2.7c0.7-1.1,1.8-2,3.1-2.7c1.3-0.6,2.8-1,4.4-1C165.4-509.7,167.3-509,168.8-507.5z"/>
		<path class="st1" d="M217.5-513.3c1.8,1.9,2.7,4.6,2.7,8.1v15.4h-3.7v-15.3c0-2.5-0.6-4.4-1.9-5.7c-1.2-1.3-3-1.9-5.2-1.9
			c-2.3,0-4.3,0.7-5.6,2.1c-1.4,1.4-2,3.5-2,6.1v14.8h-3.7v-26h3.6v3.7c1.8-2.7,4.6-4,8.6-4C213.3-516.1,215.7-515.2,217.5-513.3z"
			/>
		<path class="st1" d="M243.7-507.5c1.5,1.5,2.2,3.6,2.2,6.4v11.3h-3.6v-10.9c0-1.9-0.5-3.3-1.4-4.3c-0.9-1-2.3-1.5-4-1.5
			c-1.9,0-3.5,0.6-4.6,1.7c-1.1,1.1-1.7,2.7-1.7,4.8v10.2h-3.6v-19.7h3.4v3c0.7-1.1,1.7-1.8,2.9-2.3s2.6-0.8,4.2-0.8
			C240.2-509.7,242.2-509,243.7-507.5z"/>
		<path class="st1" d="M277.7-491.3c-2.1-1.1-3.8-2.7-4.9-4.8c-1.2-2-1.8-4.3-1.8-6.8c0-2.5,0.6-4.8,1.8-6.8s2.8-3.6,4.9-4.8
			c2.1-1.1,4.4-1.7,7.1-1.7c2.6,0,4.9,0.6,7,1.7c2.1,1.1,3.7,2.7,4.9,4.8s1.8,4.3,1.8,6.8c0,2.5-0.6,4.8-1.8,6.8s-2.8,3.6-4.9,4.8
			c-2.1,1.1-4.4,1.7-7,1.7C282.1-489.5,279.8-490.1,277.7-491.3z M289.9-494.1c1.5-0.9,2.7-2.1,3.6-3.6c0.9-1.5,1.3-3.2,1.3-5.1
			c0-1.9-0.4-3.6-1.3-5.1c-0.9-1.5-2.1-2.7-3.6-3.6c-1.5-0.9-3.2-1.3-5.2-1.3c-1.9,0-3.6,0.4-5.2,1.3c-1.5,0.9-2.7,2.1-3.6,3.6
			c-0.9,1.5-1.3,3.2-1.3,5.1c0,1.9,0.4,3.6,1.3,5.1c0.9,1.5,2.1,2.7,3.6,3.6c1.5,0.9,3.3,1.3,5.2,1.3
			C286.7-492.8,288.4-493.3,289.9-494.1z"/>
		<path class="st1" d="M306.8-490.9c-1.5-0.9-2.7-2.1-3.6-3.6c-0.9-1.5-1.3-3.2-1.3-5.2c0-1.9,0.4-3.6,1.3-5.2
			c0.9-1.5,2.1-2.7,3.6-3.6c1.5-0.9,3.3-1.3,5.3-1.3c1.9,0,3.7,0.4,5.3,1.3c1.5,0.9,2.7,2,3.6,3.6c0.9,1.5,1.3,3.2,1.3,5.2
			c0,1.9-0.4,3.6-1.3,5.2c-0.9,1.5-2.1,2.7-3.6,3.6c-1.5,0.9-3.3,1.3-5.3,1.3C310.2-489.6,308.5-490.1,306.8-490.9z M315.6-493.6
			c1-0.6,1.8-1.4,2.3-2.4c0.6-1.1,0.9-2.3,0.9-3.6s-0.3-2.6-0.9-3.6c-0.6-1.1-1.4-1.9-2.3-2.4c-1-0.6-2.1-0.9-3.4-0.9
			c-1.3,0-2.4,0.3-3.4,0.9c-1,0.6-1.8,1.4-2.3,2.4c-0.6,1.1-0.9,2.3-0.9,3.6s0.3,2.6,0.9,3.6c0.6,1.1,1.4,1.9,2.3,2.4
			c1,0.6,2.1,0.9,3.4,0.9C313.4-492.7,314.5-493,315.6-493.6z"/>
		<path class="st1" d="M365.9-513.4c1.9,1.6,2.9,3.8,2.9,6.6c0,2.8-1,5-2.9,6.6c-1.9,1.6-4.6,2.4-7.9,2.4h-6.5v7.9h-3.7v-26H358
			C361.3-515.8,364-515,365.9-513.4z M363.2-502.4c1.2-1,1.9-2.4,1.9-4.4c0-1.9-0.6-3.3-1.9-4.4c-1.2-1-3.1-1.5-5.4-1.5h-6.3v11.6
			h6.3C360.2-501,362-501.4,363.2-502.4z"/>
		<path class="st1" d="M389-508.4c1.5,0.8,2.7,2,3.6,3.6c0.9,1.5,1.3,3.2,1.3,5.3s-0.4,3.7-1.3,5.3c-0.9,1.5-2,2.7-3.6,3.6
			c-1.5,0.8-3.2,1.3-5.1,1.3c-1.4,0-2.7-0.2-3.9-0.8c-1.2-0.6-2.2-1.4-3-2.3v10.2h-3.6v-26.9h3.4v3.2c0.8-1.1,1.8-1.9,3-2.5
			c1.2-0.6,2.6-0.8,4-0.8C385.8-509.7,387.5-509.3,389-508.4z M387-493.6c1-0.6,1.8-1.4,2.3-2.4c0.6-1.1,0.9-2.3,0.9-3.6
			s-0.3-2.6-0.9-3.6c-0.6-1.1-1.4-1.9-2.3-2.4c-1-0.6-2.1-0.9-3.4-0.9c-1.2,0-2.3,0.3-3.4,0.9c-1,0.6-1.8,1.4-2.3,2.4
			c-0.6,1.1-0.9,2.3-0.9,3.6s0.3,2.6,0.9,3.6c0.6,1.1,1.4,1.9,2.3,2.4c1,0.6,2.2,0.9,3.4,0.9C384.8-492.7,385.9-493,387-493.6z"/>
		<path class="st1" d="M443.3-496.4c-1,1.9-2.4,3.5-4.3,4.7c-1.9,1.2-3.9,1.9-6.2,2.2v4.8h-3.7v-4.8c-2.3-0.2-4.4-1-6.2-2.2
			c-1.8-1.2-3.2-2.7-4.2-4.7c-1-1.9-1.5-4-1.5-6.3c0-2.5,0.6-4.8,1.8-6.8c1.2-2,2.8-3.6,4.9-4.8c2.1-1.1,4.4-1.7,7.1-1.7
			c2.6,0,4.9,0.6,7,1.7c2.1,1.1,3.7,2.7,4.9,4.8s1.8,4.3,1.8,6.8C444.8-500.5,444.3-498.4,443.3-496.4z M437.1-494.7
			c1.3-0.9,2.3-2.1,3-3.5c0.7-1.5,1-3,1-4.7c0-1.9-0.4-3.6-1.3-5.1c-0.9-1.5-2.1-2.7-3.6-3.6c-1.5-0.9-3.2-1.3-5.1-1.3
			c-1.9,0-3.6,0.4-5.2,1.3s-2.7,2.1-3.6,3.6c-0.9,1.5-1.3,3.2-1.3,5.1c0,1.7,0.3,3.2,1,4.6c0.7,1.4,1.7,2.6,3,3.5
			c1.3,0.9,2.7,1.5,4.4,1.8v-6.1h3.5v6.1C434.3-493.2,435.8-493.8,437.1-494.7z"/>
		<path class="st1" d="M468.6-509.5v26.9H465v-10.2c-0.8,1.1-1.8,1.9-3,2.3c-1.2,0.6-2.5,0.8-3.9,0.8c-1.9,0-3.6-0.4-5.1-1.3
			c-1.5-0.8-2.7-2-3.6-3.6c-0.9-1.5-1.3-3.3-1.3-5.3c0-2,0.4-3.7,1.3-5.3c0.9-1.5,2-2.7,3.6-3.6c1.5-0.8,3.2-1.3,5.1-1.3
			c1.5,0,2.8,0.2,4,0.8s2.2,1.4,3,2.5v-3.2h3.4V-509.5z M461.8-493.6c1-0.6,1.8-1.4,2.3-2.4c0.6-1.1,0.9-2.3,0.9-3.6
			s-0.3-2.6-0.9-3.6c-0.6-1.1-1.4-1.9-2.3-2.4s-2.1-0.9-3.4-0.9c-1.3,0-2.4,0.3-3.4,0.9c-1,0.6-1.8,1.4-2.3,2.4s-0.9,2.3-0.9,3.6
			s0.3,2.6,0.9,3.6c0.6,1.1,1.4,1.9,2.3,2.4c1,0.6,2.1,0.9,3.4,0.9C459.6-492.7,460.7-493,461.8-493.6z"/>
		<path class="st1" d="M513.2-489.8l-5.6-8c-0.7,0.1-1.2,0.1-1.6,0.1h-6.5v7.9h-3.7v-26h10.2c3.4,0,6.1,0.8,7.9,2.4
			c1.9,1.6,2.9,3.8,2.9,6.6c0,2-0.5,3.7-1.5,5.1c-1,1.4-2.4,2.4-4.2,3.1l6.1,8.7L513.2-489.8L513.2-489.8z M511.2-502.4
			c1.2-1.1,1.9-2.5,1.9-4.4c0-1.9-0.6-3.3-1.9-4.4c-1.2-1-3.1-1.5-5.4-1.5h-6.3v11.7h6.3C508.2-500.9,510-501.4,511.2-502.4z"/>
		<path class="st1" d="M528.5-508.8c1.2-0.6,2.7-0.9,4.4-0.9v3.5c-0.2,0-0.5,0-0.8,0c-1.9,0-3.5,0.6-4.5,1.7
			c-1.1,1.1-1.6,2.8-1.6,4.9v9.8h-3.6v-19.7h3.4v3.3C526.3-507.3,527.3-508.2,528.5-508.8z"/>
		<path class="st1" d="M560-490.5c-1.9-0.6-3.2-1.4-4.3-2.3l1.4-2.9c1,0.9,2.3,1.6,3.8,2.2c1.5,0.6,3.2,0.8,4.8,0.8
			c2.2,0,3.8-0.4,4.8-1.1s1.6-1.7,1.6-2.9c0-0.9-0.3-1.6-0.9-2.2c-0.6-0.6-1.3-1-2.2-1.3c-0.9-0.3-2.1-0.6-3.6-1
			c-1.9-0.5-3.6-1-4.8-1.4c-1.2-0.5-2.3-1.2-3.1-2.2c-0.9-1-1.3-2.3-1.3-4c0-1.4,0.4-2.7,1.1-3.7c0.7-1.1,1.9-2,3.3-2.7
			c1.5-0.6,3.3-1,5.6-1c1.5,0,3.1,0.2,4.5,0.6c1.5,0.4,2.7,1,3.8,1.7l-1.2,3c-1-0.7-2.3-1.2-3.5-1.6c-1.2-0.3-2.4-0.6-3.6-0.6
			c-2.1,0-3.7,0.4-4.8,1.1c-1,0.8-1.6,1.8-1.6,3c0,0.9,0.3,1.6,0.9,2.2c0.6,0.6,1.3,1,2.2,1.3c0.9,0.3,2.1,0.6,3.6,1
			c1.9,0.5,3.6,1,4.7,1.4c1.2,0.5,2.2,1.2,3.1,2.2c0.9,1,1.3,2.3,1.3,3.9c0,1.4-0.4,2.6-1.1,3.7c-0.7,1.1-1.9,2-3.4,2.7
			s-3.4,1-5.6,1C563.7-489.5,561.8-489.8,560-490.5z"/>
		<path class="st1" d="M581.6-490.2c-1.5-0.4-2.7-1-3.5-1.6l1.5-2.8c0.9,0.6,1.9,1.1,3.2,1.5c1.2,0.3,2.5,0.6,3.7,0.6
			c3.2,0,4.7-0.9,4.7-2.7c0-0.6-0.2-1.1-0.6-1.4c-0.4-0.3-1-0.6-1.6-0.7c-0.6-0.2-1.5-0.3-2.7-0.6c-1.6-0.2-2.9-0.6-3.9-0.9
			s-1.9-0.9-2.6-1.6c-0.7-0.8-1-1.9-1-3.2c0-1.8,0.7-3.2,2.3-4.3c1.5-1.1,3.5-1.6,6-1.6c1.3,0,2.6,0.2,4,0.5
			c1.3,0.3,2.4,0.7,3.2,1.3l-1.5,2.8c-1.6-1.1-3.5-1.5-5.7-1.5c-1.5,0-2.7,0.2-3.5,0.7c-0.8,0.5-1.2,1.1-1.2,1.9
			c0,0.6,0.2,1.1,0.6,1.5c0.4,0.4,1,0.6,1.6,0.8c0.6,0.2,1.6,0.4,2.7,0.6c1.6,0.2,2.8,0.6,3.9,0.9c1,0.3,1.8,0.8,2.5,1.6
			c0.7,0.7,1,1.8,1,3.2c0,1.8-0.7,3.2-2.3,4.3c-1.5,1.1-3.6,1.6-6.2,1.6C584.7-489.6,583.1-489.8,581.6-490.2z"/>
	</g>
	<g class="st0">
		<path class="st1" d="M625.4-512.6h-8.9v-3.2H638v3.2h-8.9v22.8h-3.7V-512.6z"/>
	</g>
	<g class="st0">
		<path class="st1" d="M651.9-490.9c-0.5,0.5-1.1,0.8-1.9,1.1s-1.5,0.3-2.3,0.3c-2,0-3.6-0.6-4.6-1.6c-1-1.1-1.6-2.6-1.6-4.6v-18.1
			h3.6v4.3h5.7v2.9H645v10.7c0,1.1,0.2,1.9,0.8,2.4c0.6,0.6,1.3,0.9,2.3,0.9c1,0,2-0.3,2.8-0.9L651.9-490.9z"/>
		<path class="st1" d="M698.5-515.8v26h-3.6v-3.7c-1.8,2.7-4.6,4-8.5,4c-3.1,0-5.5-1-7.3-2.8c-1.8-1.9-2.6-4.6-2.6-8.1v-15.4h3.7
			v15.3c0,2.5,0.6,4.4,1.9,5.7c1.2,1.3,2.9,1.9,5.1,1.9c2.3,0,4.2-0.7,5.6-2.1c1.4-1.4,2-3.5,2-6.1v-14.8L698.5-515.8L698.5-515.8
			L698.5-515.8z"/>
		<path class="st1" d="M724.1-509.5v19.7h-3.4v-3c-0.7,1.1-1.7,1.8-2.8,2.3c-1.2,0.6-2.4,0.8-3.9,0.8c-2.7,0-4.7-0.7-6.2-2.2
			c-1.5-1.5-2.3-3.6-2.3-6.4v-11.3h3.6v10.9c0,1.9,0.5,3.3,1.4,4.4c0.9,1,2.3,1.5,4,1.5c1.9,0,3.4-0.6,4.4-1.7
			c1-1.1,1.6-2.7,1.6-4.8v-10.2L724.1-509.5L724.1-509.5z"/>
		<path class="st1" d="M774-515.8l-11.4,26h-3.7l-11.5-26h4l9.4,21.4l9.5-21.4H774z"/>
		<path class="st1" d="M794.1-509.5l-8.6,19.7h-3.6l-8.6-19.7h3.7l6.8,15.8l6.9-15.8H794.1z"/>
	</g>
	<g class="st0">
		<path class="st1" d="M129.9-443.1v15.7c0,3.6-0.9,6.1-2.6,8s-4.3,2.7-7.5,2.7c-1.9,0-3.6-0.3-5-1.1c-1.5-0.6-2.6-1.6-3.3-2.8
			c-0.8,1.2-1.9,2.1-3.3,2.8c-1.4,0.6-3.1,1.1-5,1.1c-3.2,0-5.7-0.9-7.4-2.7s-2.6-4.4-2.6-8v-15.7h3.7v15.5c0,5,2.1,7.4,6.4,7.4
			c2,0,3.6-0.6,4.8-1.9c1.1-1.2,1.7-3.1,1.7-5.7v-15.5h3.7v15.5c0,2.6,0.6,4.4,1.7,5.7c1.1,1.2,2.7,1.9,4.8,1.9
			c4.3,0,6.4-2.5,6.4-7.4v-15.5H129.9z"/>
		<path class="st1" d="M166.9-436.8v10.9c0,2.9-0.7,5.1-2.2,6.7c-1.5,1.5-3.6,2.3-6.2,2.3c-3.2,0-5.4-1.2-6.7-3.6
			c-0.6,1.2-1.5,2.1-2.6,2.7c-1.1,0.6-2.5,0.9-4.1,0.9c-2.7,0-4.8-0.8-6.3-2.3c-1.5-1.5-2.1-3.8-2.1-6.7v-10.9h3.6v10.6
			c0,2.1,0.4,3.6,1.1,4.7c0.8,1,2,1.5,3.7,1.5c1.7,0,2.9-0.5,3.7-1.5c0.8-1.1,1.2-2.6,1.2-4.7v-10.6h3.6v10.6c0,2.1,0.4,3.6,1.2,4.7
			c0.8,1.1,2,1.5,3.7,1.5c1.7,0,2.9-0.5,3.6-1.5c0.7-1,1.1-2.6,1.1-4.7v-10.6L166.9-436.8L166.9-436.8z"/>
		<path class="st1" d="M210.4-417.1l-7.8-10.7l-7.7,10.7h-4.3l9.8-13.3l-9.2-12.7h4.2l7.3,10l7.2-10h4l-9.2,12.5l9.9,13.5H210.4z"/>
		<path class="st1" d="M229.6-417.1l-5.7-7.5l-5.7,7.5h-4l7.8-10.1l-7.4-9.6h4l5.4,7.1l5.4-7.1h3.9l-7.4,9.6l7.8,10.1H229.6z"/>
		<path class="st1" d="M279.8-443.1v18.3c0,3.8-1,6.6-3,8.6s-4.8,3-8.3,3c-2.1,0-4-0.3-5.8-1c-1.8-0.6-3.2-1.6-4.4-2.8l1.6-2.9
			c2.3,2.3,5.2,3.3,8.6,3.3c5.1,0,7.7-2.7,7.7-8.2v-2.7c-1.7,2.5-4.4,3.8-8.1,3.8c-3.2,0-5.8-1-7.6-2.8c-1.8-1.9-2.7-4.6-2.7-8.1
			v-8.7h3.7v8.6c0,2.5,0.6,4.4,1.9,5.7c1.2,1.3,3,1.9,5.2,1.9c2.3,0,4.3-0.7,5.6-2.1c1.4-1.4,2-3.5,2-6.2v-8h3.7L279.8-443.1
			L279.8-443.1z"/>
		<path class="st1" d="M305.2-436.8v17c0,3.5-0.8,6-2.4,7.7s-4,2.5-7.3,2.5c-1.8,0-3.5-0.2-5-0.7c-1.6-0.5-2.9-1.2-4-2.2l1.8-2.7
			c0.9,0.8,1.9,1.4,3.2,1.9c1.2,0.5,2.5,0.6,3.9,0.6c2.2,0,3.7-0.6,4.8-1.6c1-1.1,1.5-2.7,1.5-4.9v-1.5c-0.7,1-1.6,1.7-2.8,2.2
			c-1.1,0.5-2.3,0.7-3.7,0.7c-2.7,0-4.7-0.7-6.2-2.2c-1.5-1.5-2.3-3.6-2.3-6.4v-10.3h3.6v9.9c0,1.9,0.5,3.3,1.4,4.3
			c0.9,1,2.3,1.5,4,1.5c1.9,0,3.4-0.6,4.4-1.7c1-1.1,1.6-2.7,1.6-4.8v-9.1L305.2-436.8L305.2-436.8L305.2-436.8z"/>
		<path class="st1" d="M352.2-420.3v3.2h-21.7v-2.3l7.4-9.4h-5.3v-3.1h7.7l6.3-8h-16.1v-3.2h21v2.3l-7.1,9h4.8v3.1H342l-6.6,8.4
			H352.2z"/>
		<path class="st1" d="M371.6-420v2.9h-16.5v-2.3l5-6.2h-3.6v-2.8h5.9l4.3-5.4h-11.4v-2.9h16v2.3l-4.8,6.1h3.7v2.8h-6l-4.5,5.6
			H371.6z"/>
		<path class="st1" d="M416.1-440.4c2,2,3,4.9,3,8.6v14.6h-3.7v-7.2h-15v7.2h-3.6v-14.6c0-3.8,1-6.6,3-8.6c2-2,4.7-3,8.2-3
			C411.4-443.4,414.1-442.4,416.1-440.4z M415.4-427.5v-4.5c0-2.7-0.6-4.7-2-6.1c-1.3-1.4-3.2-2-5.5-2c-2.3,0-4.2,0.6-5.5,2
			c-1.3,1.4-2,3.4-2,6.1v4.5H415.4z M405-446.7c-0.8-0.8-1.2-1.7-1.2-2.8s0.4-2.1,1.2-2.9s1.8-1.2,2.9-1.2c1.1,0,2.2,0.4,2.9,1.2
			c0.8,0.8,1.2,1.8,1.2,2.9s-0.4,2.1-1.2,2.8c-0.8,0.8-1.8,1.1-2.9,1.1C406.8-445.5,405.8-445.9,405-446.7z M409.7-447.8
			c0.5-0.5,0.7-1.1,0.7-1.8c0-0.7-0.2-1.3-0.7-1.8c-0.5-0.5-1-0.7-1.8-0.7c-0.7,0-1.3,0.2-1.7,0.7c-0.5,0.5-0.7,1.1-0.7,1.8
			c0,0.7,0.2,1.3,0.7,1.8c0.5,0.5,1,0.7,1.7,0.7C408.6-447.1,409.2-447.3,409.7-447.8z"/>
		<path class="st1" d="M444.8-436.8v19.7h-3.4v-3.2c-0.8,1.1-1.8,1.9-3,2.5c-1.2,0.6-2.6,0.9-4,0.9c-1.9,0-3.6-0.4-5.1-1.3
			c-1.5-0.8-2.7-2-3.6-3.6c-0.9-1.5-1.3-3.3-1.3-5.3c0-2,0.4-3.7,1.3-5.3c0.9-1.5,2-2.7,3.6-3.6c1.5-0.8,3.2-1.3,5.1-1.3
			c1.4,0,2.7,0.2,3.9,0.8c1.2,0.6,2.2,1.3,3,2.3v-3L444.8-436.8L444.8-436.8z M438-420.9c1-0.6,1.8-1.4,2.3-2.4
			c0.6-1.1,0.9-2.3,0.9-3.6c0-1.4-0.3-2.6-0.9-3.6c-0.6-1.1-1.4-1.9-2.3-2.4c-1-0.6-2.2-0.9-3.4-0.9c-1.3,0-2.4,0.3-3.4,0.9
			c-1,0.6-1.8,1.4-2.3,2.4c-0.6,1.1-0.9,2.3-0.9,3.6c0,1.4,0.3,2.6,0.9,3.6c0.6,1.1,1.4,1.9,2.3,2.4s2.1,0.9,3.4,0.9
			C435.9-420,437-420.3,438-420.9z M432.4-440.4c-0.8-0.8-1.2-1.7-1.2-2.8c0-1.1,0.4-2.1,1.2-2.9s1.8-1.2,2.9-1.2
			c1.1,0,2.2,0.4,2.9,1.2c0.8,0.8,1.2,1.8,1.2,2.9c0,1.1-0.4,2.1-1.2,2.8c-0.8,0.8-1.8,1.1-2.9,1.1
			C434.1-439.2,433.1-439.6,432.4-440.4z M437-441.4c0.5-0.5,0.7-1.1,0.7-1.8c0-0.7-0.2-1.3-0.7-1.8c-0.5-0.5-1-0.7-1.8-0.7
			c-0.7,0-1.3,0.2-1.7,0.7c-0.5,0.5-0.7,1.1-0.7,1.8c0,0.7,0.2,1.3,0.7,1.8c0.5,0.5,1,0.7,1.7,0.7
			C435.9-440.8,436.6-440.9,437-441.4z"/>
		<path class="st1" d="M491.2-440.4c2,2,3,4.9,3,8.6v14.6h-3.7v-7.2h-15v7.2h-3.6v-14.6c0-3.8,1-6.6,3-8.6c2-2,4.7-3,8.2-3
			C486.5-443.4,489.2-442.4,491.2-440.4z M490.5-427.5v-4.5c0-2.7-0.6-4.7-2-6.1c-1.3-1.4-3.2-2-5.5-2c-2.3,0-4.2,0.6-5.5,2
			s-2,3.4-2,6.1v4.5H490.5z M478.2-446.4c-0.4-0.3-0.6-0.8-0.6-1.4c0-0.6,0.2-1,0.6-1.4s0.8-0.6,1.4-0.6c0.5,0,1,0.2,1.4,0.6
			s0.6,0.8,0.6,1.4c0,0.6-0.2,1-0.6,1.4c-0.4,0.3-0.8,0.6-1.4,0.6S478.6-446,478.2-446.4z M485.1-446.4c-0.4-0.3-0.6-0.8-0.6-1.4
			c0-0.6,0.2-1,0.6-1.4s0.8-0.6,1.4-0.6c0.5,0,1,0.2,1.4,0.6s0.6,0.8,0.6,1.4c0,0.6-0.2,1-0.6,1.4c-0.4,0.3-0.8,0.6-1.4,0.6
			S485.5-446,485.1-446.4z"/>
		<path class="st1" d="M519.9-436.8v19.7h-3.4v-3.2c-0.8,1.1-1.8,1.9-3,2.5c-1.2,0.6-2.6,0.9-4,0.9c-1.9,0-3.6-0.4-5.1-1.3
			c-1.5-0.8-2.7-2-3.6-3.6c-0.9-1.5-1.3-3.3-1.3-5.3c0-2,0.4-3.7,1.3-5.3c0.9-1.5,2-2.7,3.6-3.6c1.5-0.8,3.2-1.3,5.1-1.3
			c1.4,0,2.7,0.2,3.9,0.8c1.2,0.6,2.2,1.3,3,2.3v-3L519.9-436.8L519.9-436.8z M513.1-420.9c1-0.6,1.8-1.4,2.3-2.4
			c0.6-1.1,0.9-2.3,0.9-3.6c0-1.4-0.3-2.6-0.9-3.6c-0.6-1.1-1.4-1.9-2.3-2.4c-1-0.6-2.2-0.9-3.4-0.9c-1.3,0-2.4,0.3-3.4,0.9
			c-1,0.6-1.8,1.4-2.3,2.4c-0.6,1.1-0.9,2.3-0.9,3.6c0,1.4,0.3,2.6,0.9,3.6c0.6,1.1,1.4,1.9,2.3,2.4s2.1,0.9,3.4,0.9
			C511-420,512.1-420.3,513.1-420.9z M505.6-440.9c-0.4-0.3-0.6-0.8-0.6-1.4c0-0.6,0.2-1,0.6-1.4s0.8-0.6,1.4-0.6
			c0.5,0,1,0.2,1.4,0.6s0.6,0.8,0.6,1.4c0,0.6-0.2,1-0.6,1.4c-0.4,0.3-0.8,0.6-1.4,0.6C506.4-440.3,505.9-440.5,505.6-440.9z
			 M512.4-440.9c-0.4-0.3-0.6-0.8-0.6-1.4c0-0.6,0.2-1,0.6-1.4c0.4-0.4,0.8-0.6,1.4-0.6c0.5,0,1,0.2,1.4,0.6
			c0.4,0.4,0.6,0.8,0.6,1.4c0,0.6-0.2,1-0.6,1.4c-0.4,0.3-0.8,0.6-1.4,0.6C513.3-440.3,512.8-440.5,512.4-440.9z"/>
		<path class="st1" d="M551.8-418.6c-2.1-1.1-3.8-2.7-4.9-4.8c-1.2-2-1.8-4.3-1.8-6.8s0.6-4.8,1.8-6.8c1.2-2,2.8-3.6,4.9-4.8
			c2.1-1.1,4.4-1.7,7.1-1.7c2.6,0,4.9,0.6,7,1.7c2.1,1.1,3.7,2.7,4.9,4.8c1.2,2,1.8,4.3,1.8,6.8s-0.6,4.8-1.8,6.8
			c-1.2,2-2.8,3.6-4.9,4.8c-2.1,1.1-4.4,1.7-7,1.7C556.2-416.8,553.9-417.4,551.8-418.6z M564.1-421.4c1.5-0.9,2.7-2.1,3.6-3.6
			c0.9-1.5,1.3-3.2,1.3-5.1c0-1.9-0.4-3.6-1.3-5.1c-0.9-1.5-2.1-2.7-3.6-3.6c-1.5-0.9-3.2-1.3-5.2-1.3c-1.9,0-3.6,0.4-5.2,1.3
			c-1.5,0.9-2.7,2.1-3.6,3.6c-0.9,1.5-1.3,3.2-1.3,5.1c0,1.9,0.4,3.6,1.3,5.1c0.9,1.5,2.1,2.7,3.6,3.6c1.5,0.9,3.3,1.3,5.2,1.3
			C560.8-420.1,562.5-420.6,564.1-421.4z M554.1-446.4c-0.4-0.3-0.6-0.8-0.6-1.4c0-0.6,0.2-1,0.6-1.4c0.4-0.4,0.8-0.6,1.4-0.6
			c0.5,0,1,0.2,1.4,0.6c0.4,0.4,0.6,0.8,0.6,1.4c0,0.6-0.2,1-0.6,1.4c-0.4,0.3-0.8,0.6-1.4,0.6S554.4-446,554.1-446.4z M561-446.4
			c-0.4-0.3-0.6-0.8-0.6-1.4c0-0.6,0.2-1,0.6-1.4c0.4-0.4,0.8-0.6,1.4-0.6c0.5,0,1,0.2,1.4,0.6c0.4,0.4,0.6,0.8,0.6,1.4
			c0,0.6-0.2,1-0.6,1.4c-0.4,0.3-0.8,0.6-1.4,0.6C561.8-445.9,561.4-446,561-446.4z"/>
		<path class="st1" d="M581-418.2c-1.5-0.9-2.7-2.1-3.6-3.6c-0.9-1.5-1.3-3.2-1.3-5.2c0-1.9,0.4-3.6,1.3-5.2
			c0.9-1.5,2.1-2.7,3.6-3.6c1.5-0.9,3.3-1.3,5.3-1.3s3.7,0.4,5.3,1.3c1.5,0.9,2.7,2,3.6,3.6c0.9,1.5,1.3,3.2,1.3,5.2
			c0,1.9-0.4,3.6-1.3,5.2c-0.9,1.5-2.1,2.7-3.6,3.6c-1.5,0.9-3.3,1.3-5.3,1.3S582.6-417.4,581-418.2z M589.7-420.9
			c1-0.6,1.8-1.4,2.3-2.4c0.6-1.1,0.9-2.3,0.9-3.6c0-1.4-0.3-2.6-0.9-3.6c-0.6-1.1-1.4-1.9-2.3-2.4c-1-0.6-2.1-0.9-3.4-0.9
			c-1.3,0-2.4,0.3-3.4,0.9c-1,0.6-1.8,1.4-2.3,2.4c-0.6,1.1-0.9,2.3-0.9,3.6c0,1.4,0.3,2.6,0.9,3.6c0.6,1.1,1.4,1.9,2.3,2.4
			c1,0.6,2.1,0.9,3.4,0.9C587.6-420,588.7-420.3,589.7-420.9z M581.4-440.9c-0.4-0.3-0.6-0.8-0.6-1.4c0-0.6,0.2-1,0.6-1.4
			c0.4-0.4,0.8-0.6,1.4-0.6c0.5,0,1,0.2,1.4,0.6c0.4,0.4,0.6,0.8,0.6,1.4c0,0.6-0.2,1-0.6,1.4c-0.4,0.3-0.8,0.6-1.4,0.6
			S581.8-440.5,581.4-440.9z M588.4-440.9c-0.4-0.3-0.6-0.8-0.6-1.4c0-0.6,0.2-1,0.6-1.4c0.4-0.4,0.8-0.6,1.4-0.6
			c0.5,0,1,0.2,1.4,0.6c0.4,0.4,0.6,0.8,0.6,1.4c0,0.6-0.2,1-0.6,1.4c-0.4,0.3-0.8,0.6-1.4,0.6S588.7-440.5,588.4-440.9z"/>
	</g>
	<g class="st0">
		<path class="st1" d="M144.9-690.1c2.3,2.5,3.6,6.1,3.6,10.8v22.2H140v-22c0-2.6-0.6-4.4-2-5.7c-1.3-1.3-3.1-1.9-5.3-1.9
			c-2.3,0-4.3,0.6-5.7,2c-1.5,1.4-2.1,3.4-2.1,6.1v21.5h-8.4v-22c0-2.6-0.6-4.4-1.9-5.7c-1.2-1.3-2.9-1.9-5.1-1.9
			c-2.3,0-4.2,0.6-5.7,2c-1.5,1.4-2.1,3.4-2.1,6.1v21.5h-8.4v-36.2h8.1v4.4c1.1-1.6,2.6-2.9,4.4-3.7c1.9-0.9,4-1.3,6.3-1.3
			c2.5,0,4.7,0.5,6.5,1.4c1.9,0.9,3.3,2.3,4.3,4c1.2-1.7,2.9-3.1,4.8-4c2-0.9,4.3-1.4,6.8-1.4C139.2-693.9,142.5-692.6,144.9-690.1z
			"/>
		<path class="st1" d="M161.5-658.5c-2.3-1.2-4.1-2.9-5.5-5.1c-1.3-2.2-1.9-4.6-1.9-7.4c0-2.7,0.6-5.3,1.9-7.4
			c1.3-2.2,3.2-3.9,5.5-5.1c2.3-1.2,4.9-1.9,7.9-1.9c2.9,0,5.6,0.6,7.8,1.9c2.3,1.2,4.1,2.9,5.4,5.1c1.3,2.2,1.9,4.6,1.9,7.4
			c0,2.7-0.6,5.3-1.9,7.4c-1.3,2.2-3.2,3.9-5.4,5.1c-2.3,1.2-4.9,1.9-7.8,1.9C166.5-656.6,163.9-657.2,161.5-658.5z M174.5-665.3
			c1.3-1.4,2-3.2,2-5.6s-0.6-4.2-2-5.6c-1.3-1.4-3-2.1-5.1-2.1c-2.1,0-3.8,0.7-5.1,2.1c-1.4,1.4-2,3.2-2,5.6s0.6,4.2,2,5.6
			c1.4,1.4,3.1,2.1,5.1,2.1S173.2-663.9,174.5-665.3z"/>
		<path class="st1" d="M215.2-682.2c2.1,2.1,3.2,5.2,3.2,9.2v15.9h-8.1v-14.7c0-2.2-0.5-3.9-1.5-4.9c-1-1.1-2.3-1.6-4.2-1.6
			c-2,0-3.6,0.6-4.8,1.9c-1.2,1.3-1.8,3.2-1.8,5.6v13.7H190v-27.8h7.7v3.2c1-1.1,2.4-2.1,4-2.7c1.6-0.6,3.3-1,5.3-1
			C210.4-685.2,213.1-684.3,215.2-682.2z"/>
		<path class="st1" d="M242.5-658.4c-0.8,0.6-1.8,1.1-2.9,1.3c-1.1,0.3-2.3,0.4-3.6,0.4c-3.3,0-5.9-0.8-7.7-2.5
			c-1.8-1.7-2.7-4.2-2.7-7.4V-691h8.1v6.8h6.9v6.2h-6.9v11.3c0,1.2,0.3,2.1,0.9,2.7c0.6,0.6,1.5,1,2.5,1c1.2,0,2.3-0.3,3.3-1.1
			L242.5-658.4z"/>
		<path class="st1" d="M249.7-657.4c-2.2-0.6-4-1.3-5.3-2.2l2.7-5.8c1.2,0.8,2.7,1.5,4.5,1.9c1.8,0.5,3.5,0.7,5.2,0.7
			c3.4,0,5.1-0.8,5.1-2.5c0-0.8-0.5-1.4-1.4-1.7c-1-0.3-2.3-0.6-4.3-0.9c-2.3-0.3-4.1-0.7-5.7-1.2c-1.5-0.5-2.7-1.2-3.9-2.3
			c-1-1.1-1.6-2.7-1.6-4.8c0-1.8,0.5-3.3,1.5-4.7c1-1.4,2.5-2.4,4.4-3.2c1.9-0.7,4.3-1.1,6.9-1.1c1.9,0,4,0.2,5.9,0.6
			c1.9,0.4,3.6,1.1,4.8,1.8l-2.7,5.7c-2.4-1.4-5.1-2.1-8-2.1c-1.7,0-3,0.2-3.9,0.7c-0.9,0.5-1.3,1.1-1.3,1.9c0,0.9,0.5,1.5,1.4,1.8
			c1,0.3,2.4,0.6,4.4,1c2.3,0.4,4.1,0.8,5.6,1.2c1.5,0.4,2.7,1.2,3.8,2.3c1,1.1,1.6,2.7,1.6,4.8c0,1.7-0.5,3.2-1.5,4.6
			c-1,1.4-2.5,2.4-4.5,3.2s-4.4,1.1-7,1.1C254.1-656.6,251.8-656.9,249.7-657.4z"/>
		<path class="st1" d="M292.4-663.7c1.1-0.4,2.2-1.1,3.2-2l4.3,4.7c-2.6,3-6.5,4.5-11.5,4.5c-3.2,0-5.9-0.6-8.3-1.9
			c-2.4-1.2-4.3-2.9-5.6-5.1c-1.3-2.2-1.9-4.6-1.9-7.4c0-2.7,0.6-5.2,1.9-7.4c1.3-2.2,3.1-3.9,5.3-5.1c2.3-1.2,4.8-1.9,7.6-1.9
			c2.7,0,5.1,0.6,7.3,1.7c2.2,1.1,3.9,2.7,5.2,4.8c1.3,2.1,1.9,4.6,1.9,7.5l-20.6,4c0.6,1.4,1.5,2.4,2.7,3.1
			c1.3,0.7,2.8,1.1,4.6,1.1C290-663.1,291.3-663.3,292.4-663.7z M282.4-677.2c-1.3,1.3-1.9,3.2-2,5.4l13.6-2.7
			c-0.4-1.5-1.1-2.6-2.3-3.5c-1.2-0.9-2.6-1.3-4.2-1.3C285.3-679.2,283.7-678.5,282.4-677.2z"/>
		<path class="st1" d="M318.7-684.3c1.6-0.7,3.6-1.1,5.7-1.1v7.4c-0.9-0.1-1.5-0.1-1.8-0.1c-2.3,0-4.1,0.6-5.4,1.9
			c-1.3,1.3-1.9,3.2-1.9,5.8v13.2h-8.1v-27.8h7.7v3.6C315.8-682.6,317.1-683.5,318.7-684.3z"/>
		<path class="st1" d="M340.8-684.3c1.6-0.7,3.6-1.1,5.7-1.1v7.4c-0.9-0.1-1.5-0.1-1.8-0.1c-2.3,0-4.1,0.6-5.4,1.9
			c-1.3,1.3-1.9,3.2-1.9,5.8v13.2h-8.1v-27.8h7.7v3.6C337.9-682.6,339.2-683.5,340.8-684.3z"/>
		<path class="st1" d="M379.2-684.8v27.8h-7.7v-3.2c-2,2.4-4.9,3.6-8.7,3.6c-2.6,0-5-0.6-7.1-1.8c-2.1-1.2-3.8-2.8-5-5
			s-1.8-4.7-1.8-7.5c0-2.8,0.6-5.4,1.8-7.5c1.2-2.2,2.9-3.9,5-5c2.1-1.1,4.5-1.8,7.1-1.8c3.6,0,6.3,1.1,8.3,3.4v-2.9L379.2-684.8
			L379.2-684.8z M369.3-665.3c1.4-1.4,2-3.2,2-5.6s-0.6-4.2-2-5.6c-1.4-1.4-3.1-2.1-5.1-2.1c-2.1,0-3.8,0.7-5.1,2.1
			c-1.4,1.4-2,3.2-2,5.6s0.6,4.2,2,5.6c1.4,1.4,3.1,2.1,5.1,2.1C366.3-663.2,368-663.9,369.3-665.3z"/>
		<path class="st1" d="M403.5-658.4c-0.8,0.6-1.8,1.1-2.9,1.3c-1.1,0.3-2.3,0.4-3.6,0.4c-3.3,0-5.9-0.8-7.7-2.5s-2.7-4.2-2.7-7.4
			V-691h8.1v6.8h6.9v6.2h-6.9v11.3c0,1.2,0.3,2.1,0.9,2.7c0.6,0.6,1.5,1,2.5,1c1.2,0,2.3-0.3,3.3-1.1L403.5-658.4z"/>
		<path class="st1" d="M448.2-691.8c2.5,1.3,4.4,3.2,5.8,5.8c1.4,2.6,2.1,5.7,2.1,9.3v19.8h-8.4v-8.7h-16.6v8.7h-8.2v-19.8
			c0-3.6,0.7-6.7,2.1-9.3c1.4-2.6,3.3-4.4,5.8-5.8c2.5-1.3,5.4-1.9,8.7-1.9S445.7-693.2,448.2-691.8z M447.6-672.5v-5.2
			c0-3-0.7-5.3-2.3-6.8c-1.5-1.5-3.5-2.3-6.1-2.3s-4.6,0.8-6.1,2.3c-1.5,1.5-2.2,3.8-2.2,6.8v5.2H447.6z"/>
		<path class="st1" d="M466.4-659.1c-1.8-1.7-2.7-4-2.7-7.1v-29.2h8.1v28.7c0,1.2,0.3,2.1,0.9,2.7c0.6,0.6,1.5,1,2.6,1
			c0.4,0,0.8-0.1,1.3-0.2c0.4-0.1,0.7-0.2,1-0.3l0.3,6.2c-1.4,0.5-2.7,0.6-4.2,0.6C470.6-656.6,468.2-657.4,466.4-659.1z"/>
		<path class="st1" d="M498.6-658.4c-0.8,0.6-1.8,1.1-2.9,1.3c-1.1,0.3-2.3,0.4-3.6,0.4c-3.3,0-5.9-0.8-7.7-2.5s-2.7-4.2-2.7-7.4
			V-691h8.1v6.8h6.9v6.2h-6.9v11.3c0,1.2,0.3,2.1,0.9,2.7c0.6,0.6,1.5,1,2.5,1c1.2,0,2.3-0.3,3.3-1.1L498.6-658.4z"/>
		<path class="st1" d="M520.2-663.7c1.1-0.4,2.2-1.1,3.2-2l4.3,4.7c-2.6,3-6.5,4.5-11.5,4.5c-3.2,0-5.9-0.6-8.3-1.9
			c-2.4-1.2-4.3-2.9-5.6-5.1c-1.3-2.2-1.9-4.6-1.9-7.4c0-2.7,0.6-5.2,1.9-7.4c1.3-2.2,3.1-3.9,5.3-5.1c2.3-1.2,4.8-1.9,7.6-1.9
			c2.7,0,5.1,0.6,7.3,1.7c2.2,1.1,3.9,2.7,5.2,4.8c1.3,2.1,1.9,4.6,1.9,7.5l-20.6,4c0.6,1.4,1.5,2.4,2.7,3.1
			c1.2,0.6,2.8,1.1,4.6,1.1C517.8-663.1,519.1-663.3,520.2-663.7z M510.2-677.2c-1.3,1.3-1.9,3.2-2,5.4l13.6-2.7
			c-0.4-1.5-1.1-2.6-2.3-3.5c-1.2-0.9-2.6-1.3-4.2-1.3C513.1-679.2,511.5-678.5,510.2-677.2z"/>
		<path class="st1" d="M546.5-684.3c1.6-0.7,3.6-1.1,5.7-1.1v7.4c-0.9-0.1-1.5-0.1-1.8-0.1c-2.3,0-4.1,0.6-5.4,1.9
			c-1.3,1.3-1.9,3.2-1.9,5.8v13.2H535v-27.8h7.7v3.6C543.6-682.6,544.9-683.5,546.5-684.3z"/>
		<path class="st1" d="M582.3-682.2c2.1,2.1,3.2,5.2,3.2,9.2v15.9h-8.1v-14.7c0-2.2-0.5-3.9-1.5-4.9c-1-1.1-2.3-1.6-4.2-1.6
			c-2,0-3.6,0.6-4.8,1.9c-1.2,1.3-1.8,3.2-1.8,5.6v13.7H557v-27.8h7.7v3.2c1-1.1,2.4-2.1,4-2.7c1.6-0.6,3.3-1,5.3-1
			C577.4-685.2,580.1-684.3,582.3-682.2z"/>
		<path class="st1" d="M621.3-684.8v27.8h-7.7v-3.2c-2,2.4-4.9,3.6-8.7,3.6c-2.6,0-5-0.6-7.1-1.8c-2.1-1.2-3.8-2.8-5-5
			c-1.2-2.2-1.8-4.7-1.8-7.5c0-2.8,0.6-5.4,1.8-7.5c1.2-2.2,2.9-3.9,5-5c2.1-1.1,4.5-1.8,7.1-1.8c3.6,0,6.3,1.1,8.3,3.4v-2.9
			L621.3-684.8L621.3-684.8z M611.4-665.3c1.4-1.4,2-3.2,2-5.6s-0.6-4.2-2-5.6c-1.4-1.4-3.1-2.1-5.1-2.1c-2.1,0-3.8,0.7-5.1,2.1
			c-1.4,1.4-2,3.2-2,5.6s0.6,4.2,2,5.6c1.4,1.4,3.1,2.1,5.1,2.1C608.3-663.2,610-663.9,611.4-665.3z"/>
		<path class="st1" d="M645.5-658.4c-0.8,0.6-1.8,1.1-2.9,1.3c-1.1,0.3-2.3,0.4-3.6,0.4c-3.3,0-5.9-0.8-7.7-2.5s-2.7-4.2-2.7-7.4
			V-691h8.1v6.8h6.9v6.2h-6.9v11.3c0,1.2,0.3,2.1,0.9,2.7c0.6,0.6,1.5,1,2.5,1c1.2,0,2.3-0.3,3.3-1.1L645.5-658.4z"/>
		<path class="st1" d="M667-663.7c1.1-0.4,2.2-1.1,3.2-2l4.3,4.7c-2.6,3-6.5,4.5-11.5,4.5c-3.2,0-5.9-0.6-8.3-1.9
			c-2.4-1.2-4.3-2.9-5.6-5.1c-1.3-2.2-1.9-4.6-1.9-7.4c0-2.7,0.6-5.2,1.9-7.4c1.3-2.2,3.1-3.9,5.3-5.1c2.3-1.2,4.8-1.9,7.6-1.9
			c2.7,0,5.1,0.6,7.3,1.7c2.2,1.1,3.9,2.7,5.2,4.8c1.3,2.1,1.9,4.6,1.9,7.5l-20.6,4c0.6,1.4,1.5,2.4,2.7,3.1
			c1.2,0.6,2.8,1.1,4.6,1.1C664.6-663.1,665.9-663.3,667-663.7z M657-677.2c-1.3,1.3-1.9,3.2-2,5.4l13.6-2.7
			c-0.4-1.5-1.1-2.6-2.3-3.5c-1.2-0.9-2.6-1.3-4.2-1.3C659.9-679.2,658.3-678.5,657-677.2z"/>
		<path class="st1" d="M684.3-657.4c-2.2-0.6-4-1.3-5.3-2.2l2.7-5.8c1.2,0.8,2.7,1.5,4.5,1.9c1.8,0.5,3.5,0.7,5.2,0.7
			c3.4,0,5.1-0.8,5.1-2.5c0-0.8-0.5-1.4-1.4-1.7c-1-0.3-2.3-0.6-4.3-0.9c-2.3-0.3-4.1-0.7-5.7-1.2c-1.5-0.5-2.7-1.2-3.9-2.3
			c-1.1-1.1-1.6-2.7-1.6-4.8c0-1.8,0.5-3.3,1.5-4.7c1-1.4,2.5-2.4,4.4-3.2s4.3-1.1,6.9-1.1c1.9,0,4,0.2,5.9,0.6
			c1.9,0.4,3.6,1.1,4.8,1.8l-2.7,5.7c-2.4-1.4-5.1-2.1-8-2.1c-1.7,0-3,0.2-3.9,0.7c-0.9,0.5-1.3,1.1-1.3,1.9c0,0.9,0.5,1.5,1.4,1.8
			c1,0.3,2.4,0.6,4.4,1c2.3,0.4,4.1,0.8,5.6,1.2c1.5,0.4,2.7,1.2,3.8,2.3c1,1.1,1.6,2.7,1.6,4.8c0,1.7-0.5,3.2-1.5,4.6
			c-1,1.4-2.5,2.4-4.5,3.2c-2,0.7-4.4,1.1-7,1.1C688.9-656.6,686.6-656.9,684.3-657.4z"/>
	</g>
</g>
<rect id="Rectangle_146" y="0" class="st2" width="947" height="467"/>
</svg>
